<svg xmlns="http://www.w3.org/2000/svg" width="29.69" height="20.992" viewBox="0 0 29.69 20.992">
  <g id="addusernotif_" data-name="addusernotif " transform="translate(0 0)">
    <g id="Group_158" data-name="Group 158" transform="translate(0 0)">
      <path id="Path_263" data-name="Path 263" d="M217.121,383.535a.58.58,0,1,0-.568-.467A.586.586,0,0,0,217.121,383.535Z" transform="translate(-200.567 -364.552)" fill="#0092a0"/>
      <path id="Path_264" data-name="Path 264" d="M329.386,258.269a1.794,1.794,0,0,0,1.791-1.792v-.462h.462a1.791,1.791,0,1,0,0-3.583h-.462v-.462a1.791,1.791,0,1,0-3.583,0v.462h-.462a1.791,1.791,0,1,0,0,3.583h.462v.462A1.793,1.793,0,0,0,329.386,258.269Zm2.254-4.677a.632.632,0,1,1,0,1.263H330.6a.58.58,0,0,0-.58.58v1.042a.632.632,0,1,1-1.263,0v-1.042a.58.58,0,0,0-.58-.58h-1.042a.632.632,0,1,1,0-1.263h1.042a.58.58,0,0,0,.58-.58V251.97a.632.632,0,1,1,1.263,0v1.042a.58.58,0,0,0,.58.58Z" transform="translate(-322.607 -240.02)" fill="#0092a0"/>
      <path id="Path_265" data-name="Path 265" d="M6.779,82.409a6.736,6.736,0,0,1,4,1.309h1.19a4.941,4.941,0,1,1,7.827-5.455A4.482,4.482,0,1,1,26.9,83.393a2.825,2.825,0,0,1,2.79,2.822v5.442a.58.58,0,0,1-.58.58H21.552V93.4a.58.58,0,0,1-.58.58H19.186a.58.58,0,1,1,0-1.16h1.206V86.8a1.928,1.928,0,0,0-1.926-1.926H12a6.784,6.784,0,0,1,.508,7.94h1.431a.58.58,0,1,1,0,1.16H11.589a6.783,6.783,0,1,1-4.81-11.568Zm8.364-6.255a3.782,3.782,0,1,0,3.782,3.782A3.786,3.786,0,0,0,15.143,76.154ZM27.218,80.07a3.323,3.323,0,1,0-3.323,3.323A3.327,3.327,0,0,0,27.218,80.07ZM28.53,91.077V86.215a1.664,1.664,0,0,0-1.662-1.662H20.921a2.116,2.116,0,0,0-.322.023,3.077,3.077,0,0,1,.952,2.227v4.275H28.53Zm-10.064-7.36a3.076,3.076,0,0,1,.891.131,2.646,2.646,0,0,1,1.532-.455,4.5,4.5,0,0,1-1.15-1.642,4.964,4.964,0,0,1-1.419,1.966ZM6.779,94.827A5.629,5.629,0,1,0,1.16,89.2,5.63,5.63,0,0,0,6.779,94.827Z" transform="translate(0 -74.994)" fill="#0092a0"/>
    </g>
  </g>
</svg>
