<svg xmlns="http://www.w3.org/2000/svg" width="15.191" height="13.5" viewBox="0 0 15.191 13.5">
  <g id="adsprofm" transform="translate(0 -28.5)">
    <g id="Group_492" data-name="Group 492" transform="translate(0 28.5)">
      <g id="Group_491" data-name="Group 491">
        <path id="Path_443" data-name="Path 443" d="M14.969,29.984h-1.2V28.723a.223.223,0,0,0-.223-.223H.223A.223.223,0,0,0,0,28.723V38.3a.223.223,0,0,0,.445,0V30.429H13.322V32.6a.223.223,0,0,0,.445,0v-.685h.979v9.643H13.277a.223.223,0,0,0,0,.445h1.691a.223.223,0,0,0,.223-.223V30.206A.223.223,0,0,0,14.969,29.984Zm-11.646,0H.445V28.945H3.323Zm10,0H3.768V28.945h9.554Zm1.424,1.484h-.979V30.429h.979Z" transform="translate(0 -28.5)"/>
      </g>
    </g>
    <g id="Group_494" data-name="Group 494" transform="translate(0 33.336)">
      <g id="Group_493" data-name="Group 493" transform="translate(0 0)">
        <path id="Path_444" data-name="Path 444" d="M13.545,191.5a.223.223,0,0,0-.223.223v6.513H.445v-.816a.223.223,0,0,0-.445,0v1.038a.223.223,0,0,0,.223.223h1.2v1.261a.223.223,0,0,0,.223.223h10.7a.223.223,0,1,0,0-.445H1.869V198.68H13.545a.223.223,0,0,0,.223-.223v-6.735A.223.223,0,0,0,13.545,191.5Z" transform="translate(0 -191.5)"/>
      </g>
    </g>
    <g id="Group_496" data-name="Group 496" transform="translate(3.546 37.302)">
      <g id="Group_495" data-name="Group 495">
        <path id="Path_445" data-name="Path 445" d="M125.063,325.167h-4.747a.817.817,0,0,0-.816.816v.593a.817.817,0,0,0,.816.816h4.747a.817.817,0,0,0,.816-.816v-.593A.817.817,0,0,0,125.063,325.167Zm.371,1.409a.371.371,0,0,1-.371.371h-4.747a.371.371,0,0,1-.371-.371v-.593a.371.371,0,0,1,.371-.371h4.747a.371.371,0,0,1,.371.371Z" transform="translate(-119.5 -325.167)"/>
      </g>
    </g>
    <g id="Group_498" data-name="Group 498" transform="translate(0.847 29.238)">
      <g id="Group_497" data-name="Group 497" transform="translate(0 0)">
        <circle id="Ellipse_27" data-name="Ellipse 27" transform="translate(0.188 0.262)"/>
      </g>
    </g>
    <g id="Group_500" data-name="Group 500" transform="translate(2.535 29.238)">
      <g id="Group_499" data-name="Group 499" transform="translate(0 0)">
        <ellipse id="Ellipse_28" data-name="Ellipse 28" cx="0.5" rx="0.5" transform="translate(-0.5 0.262)"/>
      </g>
    </g>
    <g id="Group_502" data-name="Group 502" transform="translate(1.691 29.238)">
      <g id="Group_501" data-name="Group 501" transform="translate(0 0)">
        <circle id="Ellipse_29" data-name="Ellipse 29" transform="translate(0.344 0.262)"/>
      </g>
    </g>
  </g>
</svg>
