<svg xmlns="http://www.w3.org/2000/svg" width="13.057" height="14.536" viewBox="0 0 13.057 14.536">
  <g id="announce" transform="translate(0.418 0.404)">
    <path id="Path_1021" data-name="Path 1021" d="M71.018,54.544a.607.607,0,0,1-.27.827l-.413.216a.607.607,0,0,1-.827-.27L67.8,51.973l1.492-.773Z" transform="translate(-63.018 -41.917)" fill="none" stroke="#fff" stroke-width="0.7"/>
    <path id="Path_1022" data-name="Path 1022" d="M43.95,36.85a1.425,1.425,0,0,0,1.8.683l1.132-.449a.244.244,0,0,0,.126-.324l-2.373-4.638a.241.241,0,0,0-.342-.09l-1.025.665a1.412,1.412,0,0,0-.5,1.852Z" transform="translate(-42.602 -26.862)" fill="none" stroke="#fff" stroke-width="0.7"/>
    <path id="Path_1023" data-name="Path 1023" d="M56.255,17.006,58,16.125a4.219,4.219,0,0,1,1.923-.467H62.69L58.753,8,57.1,10.265a4.364,4.364,0,0,1-1.51,1.294l-1.69.881Z" transform="translate(-51.869 -7.179)" fill="none" stroke="#fff" stroke-linecap="round" stroke-linejoin="round" stroke-width="0.7"/>
    <path id="Path_1024" data-name="Path 1024" d="M85.806,10.6a.976.976,0,0,1-.413,1.294l-.431.216a.354.354,0,0,1-.467-.144l-3.973-7.73a.354.354,0,0,1,.144-.467l.431-.234a.976.976,0,0,1,1.294.413Z" transform="translate(-73.673 -3.432)" fill="none" stroke="#fff" stroke-linecap="round" stroke-linejoin="round" stroke-width="0.7"/>
  </g>
</svg>
