<svg xmlns="http://www.w3.org/2000/svg" width="41.158" height="58.552" viewBox="0 0 41.158 58.552">
  <g id="bookmark" transform="translate(-798.194 -550.494)">
    <path id="Path_973" data-name="Path 973" d="M13235.033,3662.647l.007,58.552-19.645-10.03-21.507,10.03-.007-58.552Z" transform="translate(-12395.688 -3112.154)" fill="#f7941d"/>
    <g id="star_3_" data-name="star (3)" transform="translate(808.4 568.965)">
      <path id="Path_422" data-name="Path 422" d="M21.006,19.415a.616.616,0,0,0-.5-.419l-6.521-.948-2.916-5.909a.616.616,0,0,0-1.105,0L7.049,18.048.528,19a.616.616,0,0,0-.342,1.051l4.719,4.6-1.114,6.5a.616.616,0,0,0,.894.65l5.833-3.067,5.833,3.067a.616.616,0,0,0,.894-.65l-1.114-6.5,4.719-4.6A.616.616,0,0,0,21.006,19.415Z" transform="translate(0 -11.795)" fill="#fff"/>
      <path id="Path_423" data-name="Path 423" d="M266.489,19.415a.616.616,0,0,0-.5-.419l-6.521-.948-2.917-5.909A.616.616,0,0,0,256,11.8v16.93l5.833,3.067a.616.616,0,0,0,.894-.65l-1.114-6.5,4.719-4.6A.616.616,0,0,0,266.489,19.415Z" transform="translate(-245.483 -11.795)" fill="#fff"/>
    </g>
  </g>
</svg>
