<svg xmlns="http://www.w3.org/2000/svg" width="13.549" height="12.703" viewBox="0 0 13.549 12.703">
  <g id="Group_1239" data-name="Group 1239" transform="translate(-156.333 -124.313)">
    <path id="Path_110" data-name="Path 110" d="M6.775,8.468A1.694,1.694,0,1,0,5.081,6.775,1.7,1.7,0,0,0,6.775,8.468Zm0-5.081A3.387,3.387,0,1,1,3.387,6.775,3.4,3.4,0,0,1,6.775,3.387ZM11.856,12.7H1.694a1.672,1.672,0,0,1-1.186-.508A1.672,1.672,0,0,1,0,11.009V3.387A1.7,1.7,0,0,1,1.694,1.694H3.049L4.319.423A1.4,1.4,0,0,1,5.335,0H8.3A1.36,1.36,0,0,1,9.23.423l1.27,1.27h1.355a1.7,1.7,0,0,1,1.694,1.694v7.621A1.7,1.7,0,0,1,11.856,12.7Z" transform="translate(156.333 124.313)" fill="#0092a0" fill-rule="evenodd"/>
  </g>
</svg>
