<svg xmlns="http://www.w3.org/2000/svg" width="28.8" height="27" viewBox="0 0 28.8 27">
  <g id="camw" transform="translate(-156.333 -124.313)">
    <path id="Path_110" data-name="Path 110" d="M14.4,18a3.6,3.6,0,1,0-3.6-3.6A3.611,3.611,0,0,0,14.4,18Zm0-10.8a7.2,7.2,0,1,1-7.2,7.2A7.221,7.221,0,0,1,14.4,7.2ZM25.2,27H3.6a3.554,3.554,0,0,1-2.52-1.08A3.554,3.554,0,0,1,0,23.4V7.2A3.611,3.611,0,0,1,3.6,3.6H6.48L9.18.9A2.981,2.981,0,0,1,11.34,0h6.3a2.89,2.89,0,0,1,1.98.9l2.7,2.7H25.2a3.611,3.611,0,0,1,3.6,3.6V23.4A3.611,3.611,0,0,1,25.2,27Z" transform="translate(156.333 124.313)" fill="#fff" fill-rule="evenodd"/>
  </g>
</svg>
