<svg xmlns="http://www.w3.org/2000/svg" width="30.411" height="22.162" viewBox="0 0 30.411 22.162">
  <g id="coinssw" transform="translate(-8.421 -5.701)">
    <path id="Path_1189" data-name="Path 1189" d="M258.13,300.534a9.767,9.767,0,0,1-4.124,3.05c-2.117,2.459-6.723,4.171-12.077,4.171-.825,0-1.65-.047-2.428-.125a22.68,22.68,0,0,0,6.194.825c6.77,0,12.357-2.739,13.2-6.272a3.848,3.848,0,0,0,.125-.934,4.091,4.091,0,0,0-.358-1.65A5.68,5.68,0,0,1,258.13,300.534Z" transform="translate(-220.2 -280.592)" fill="#fff"/>
    <path id="Path_1190" data-name="Path 1190" d="M173.569,222.582c.062.171.125.342.2.514a2.83,2.83,0,0,0,.234.42,6.765,6.765,0,0,0,1.447,1.65,9.512,9.512,0,0,0,1.323.934,19.744,19.744,0,0,0,9.9,2.4,20.543,20.543,0,0,0,9.136-1.961c.14-.078.28-.14.42-.218.124-.062.233-.14.358-.2a11.038,11.038,0,0,0,1.323-.934,6.378,6.378,0,0,0,1.432-1.65,5.033,5.033,0,0,0,.436-.934,3.125,3.125,0,0,0,.109-.358,3.848,3.848,0,0,0,.125-.934c0-3.984-5.961-7.206-13.322-7.206s-13.322,3.222-13.322,7.206v.156c-2.335,1.292-3.766,3.066-3.766,5.027a3.749,3.749,0,0,0,.125.934,6.942,6.942,0,0,0,3.689,4.109c.374.2.778.4,1.2.591a21.327,21.327,0,0,0,8.311,1.572,22.678,22.678,0,0,0,6.194-.825c-.794.078-1.6.124-2.428.124-5.665,0-10.505-1.914-12.435-4.622a5.677,5.677,0,0,1-.529-.934,4.035,4.035,0,0,1-.358-1.65,3.749,3.749,0,0,1,.124-.934,5.1,5.1,0,0,0,.763,1.65,6.444,6.444,0,0,0,.809.934c2.288,2.194,6.63,3.689,11.61,3.689a21.328,21.328,0,0,0,8.311-1.572,12.237,12.237,0,0,0,1.2-.591,10.106,10.106,0,0,0,2.1-1.51,7.546,7.546,0,0,0,.825-.934,4.525,4.525,0,0,0,.763-1.65,3.851,3.851,0,0,0,.125-.934,2.74,2.74,0,0,0-.016-.358,3.7,3.7,0,0,1-.2.934,5.335,5.335,0,0,1-.934,1.65,7.552,7.552,0,0,1-.934.934,10.4,10.4,0,0,1-1.665,1.136l-.514.28a20.641,20.641,0,0,1-9.027,1.914c-4.716,0-8.856-1.323-11.221-3.331a6.612,6.612,0,0,1-.934-.934,4.884,4.884,0,0,1-.934-1.65,4.009,4.009,0,0,1-.2-.934.923.923,0,0,1,.031-.218.054.054,0,0,0-.031.016v-.156a3.753,3.753,0,0,1,.124-.934C173.491,222.349,173.538,222.458,173.569,222.582Zm5.136-2.257h1a3.079,3.079,0,0,1,.265-.809l.047-.093a3.614,3.614,0,0,1,2.848-1.743l.342,1.121.14.467.156.529a2.174,2.174,0,0,0-1.183.529h2.568a7.231,7.231,0,0,1,.514-.949,4.692,4.692,0,0,1,.685-.825,3.662,3.662,0,0,1,.654-.514,5.6,5.6,0,0,1,5.883.514,2.875,2.875,0,0,1,.623.934,3.75,3.75,0,0,1,.249.84h1.089v1.043h-1.058a2.939,2.939,0,0,1-.156.638,2.488,2.488,0,0,1-.358.7,2.37,2.37,0,0,1-.591.591,4.227,4.227,0,0,1-1.728.747,7.775,7.775,0,0,1-1.121.156l-.062-.327-.374-1.852a1.464,1.464,0,0,0,.187-.016c.047,0,.109-.016.187-.016a2.3,2.3,0,0,0,1.494-.638h-3.175c-.031.078-.078.171-.109.249a1.692,1.692,0,0,1-.125.233,3.477,3.477,0,0,1-2.4,1.914,6.456,6.456,0,0,1-1.65.156h0a4.132,4.132,0,0,1-3.206-1.214,2.714,2.714,0,0,1-.623-1.338H178.7Z" transform="translate(-161.179 -208.399)" fill="#fff"/>
    <path id="Path_1191" data-name="Path 1191" d="M291.167,248.97a1.473,1.473,0,0,0-.871.4,1.844,1.844,0,0,0-.3.374h2.755A1.4,1.4,0,0,0,291.167,248.97Z" transform="translate(-262.84 -237.822)" fill="#fff"/>
    <path id="Path_1192" data-name="Path 1192" d="M252.992,260.924c.031-.031.062-.078.109-.124H251A1.351,1.351,0,0,0,252.992,260.924Z" transform="translate(-229.91 -247.831)" fill="#fff"/>
  </g>
</svg>
