<svg xmlns="http://www.w3.org/2000/svg" width="14.295" height="10.418" viewBox="0 0 14.295 10.418">
  <g id="coinss" transform="translate(-8.421 -5.701)">
    <path id="Path_1189" data-name="Path 1189" d="M248.257,300.039a4.591,4.591,0,0,1-1.939,1.434c-.995,1.156-3.16,1.961-5.677,1.961-.388,0-.776-.022-1.141-.059a10.662,10.662,0,0,0,2.912.388c3.182,0,5.809-1.288,6.2-2.948a1.809,1.809,0,0,0,.059-.439,1.923,1.923,0,0,0-.168-.775A2.67,2.67,0,0,1,248.257,300.039Z" transform="translate(-225.965 -287.644)" fill="#929292"/>
    <path id="Path_1190" data-name="Path 1190" d="M171.466,218.087c.029.08.059.161.1.241a1.33,1.33,0,0,0,.11.2,3.181,3.181,0,0,0,.68.775,4.471,4.471,0,0,0,.622.439,9.281,9.281,0,0,0,4.653,1.127,9.657,9.657,0,0,0,4.294-.922c.066-.037.132-.066.2-.1s.11-.066.168-.1a5.188,5.188,0,0,0,.622-.439,3,3,0,0,0,.673-.775,2.367,2.367,0,0,0,.2-.439,1.468,1.468,0,0,0,.051-.168,1.809,1.809,0,0,0,.059-.439c0-1.873-2.8-3.387-6.262-3.387s-6.262,1.514-6.262,3.387v.073a2.9,2.9,0,0,0-1.771,2.363,1.762,1.762,0,0,0,.059.439,3.263,3.263,0,0,0,1.734,1.931c.176.1.366.19.563.278a10.025,10.025,0,0,0,3.907.739,10.661,10.661,0,0,0,2.912-.388c-.373.037-.754.059-1.141.059-2.663,0-4.938-.9-5.845-2.173a2.668,2.668,0,0,1-.249-.439,1.9,1.9,0,0,1-.168-.775,1.762,1.762,0,0,1,.059-.439,2.4,2.4,0,0,0,.358.775,3.029,3.029,0,0,0,.38.439,8.153,8.153,0,0,0,5.458,1.734,10.026,10.026,0,0,0,3.907-.739,5.752,5.752,0,0,0,.563-.278,4.752,4.752,0,0,0,.988-.71,3.546,3.546,0,0,0,.388-.439,2.127,2.127,0,0,0,.358-.776,1.809,1.809,0,0,0,.059-.439,1.29,1.29,0,0,0-.007-.168,1.738,1.738,0,0,1-.1.439,2.508,2.508,0,0,1-.439.776,3.551,3.551,0,0,1-.439.439,4.89,4.89,0,0,1-.783.534l-.241.132a9.7,9.7,0,0,1-4.243.9,8.416,8.416,0,0,1-5.275-1.566,3.109,3.109,0,0,1-.439-.439,2.3,2.3,0,0,1-.439-.776,1.885,1.885,0,0,1-.1-.439.433.433,0,0,1,.015-.1.026.026,0,0,0-.015.007v-.073a1.765,1.765,0,0,1,.059-.439C171.429,217.977,171.451,218.029,171.466,218.087Zm2.414-1.061h.468a1.448,1.448,0,0,1,.124-.38l.022-.044a1.7,1.7,0,0,1,1.339-.819l.161.527.066.219.073.249a1.022,1.022,0,0,0-.556.249h1.207a3.4,3.4,0,0,1,.241-.446,2.2,2.2,0,0,1,.322-.388,1.721,1.721,0,0,1,.307-.241,2.63,2.63,0,0,1,2.765.241,1.351,1.351,0,0,1,.293.439,1.761,1.761,0,0,1,.117.4h.512v.49h-.5a1.381,1.381,0,0,1-.073.3,1.169,1.169,0,0,1-.168.329,1.114,1.114,0,0,1-.278.278,1.987,1.987,0,0,1-.812.351,3.656,3.656,0,0,1-.527.073l-.029-.154-.176-.871a.687.687,0,0,0,.088-.007c.022,0,.051-.007.088-.007a1.082,1.082,0,0,0,.7-.3h-1.492c-.015.037-.037.08-.051.117a.8.8,0,0,1-.059.11,1.635,1.635,0,0,1-1.127.9,3.035,3.035,0,0,1-.775.073h0a1.943,1.943,0,0,1-1.507-.571,1.276,1.276,0,0,1-.293-.629h-.476Z" transform="translate(-161.179 -208.399)" fill="#929292"/>
    <path id="Path_1191" data-name="Path 1191" d="M290.549,248.958a.693.693,0,0,0-.41.19.867.867,0,0,0-.139.176h1.295A.66.66,0,0,0,290.549,248.958Z" transform="translate(-272.77 -240.696)" fill="#929292"/>
    <path id="Path_1192" data-name="Path 1192" d="M251.936,260.858c.015-.015.029-.037.051-.059H251A.635.635,0,0,0,251.936,260.858Z" transform="translate(-236.623 -251.683)" fill="#929292"/>
  </g>
</svg>
