<svg xmlns="http://www.w3.org/2000/svg" width="19.422" height="27.801" viewBox="0 0 19.422 27.801">
  <g id="commonq" transform="translate(0 0)">
    <g id="Group_1383" data-name="Group 1383" transform="translate(0)">
      <g id="Group_1382" data-name="Group 1382">
        <path id="Path_1217" data-name="Path 1217" d="M-971.82-371.3h-2.066a.337.337,0,0,0-.333.333v2.009a.337.337,0,0,1-.333.333h-11.339a.337.337,0,0,1-.333-.333v-2.009a.337.337,0,0,0-.333-.333h-2a1.341,1.341,0,0,0-1.342,1.342v20.1a1.341,1.341,0,0,0,1.342,1.342h16.738a1.341,1.341,0,0,0,1.342-1.342v-20.1A1.353,1.353,0,0,0-971.82-371.3Zm-9.883,6.617h6.769a.833.833,0,0,1,.838.838.833.833,0,0,1-.838.838H-981.7a.833.833,0,0,1-.838-.838A.845.845,0,0,1-981.7-364.683Zm0,3.351h6.769a.833.833,0,0,1,.838.838.833.833,0,0,1-.838.838H-981.7a.833.833,0,0,1-.838-.838A.839.839,0,0,1-981.7-361.332Zm-3.685,5.027h-.257a.833.833,0,0,1-.838-.838.833.833,0,0,1,.838-.838h.257a.833.833,0,0,1,.838.838A.839.839,0,0,1-985.387-356.3Zm0-3.351h-.257a.833.833,0,0,1-.838-.838.833.833,0,0,1,.838-.838h.257a.833.833,0,0,1,.838.838A.833.833,0,0,1-985.387-359.656Zm0-3.351h-.257a.833.833,0,0,1-.838-.838.833.833,0,0,1,.838-.838h.257a.833.833,0,0,1,.838.838A.833.833,0,0,1-985.387-363.007Zm10.549,6.7H-981.7a.833.833,0,0,1-.838-.838.833.833,0,0,1,.838-.838h6.865a.833.833,0,0,1,.838.838A.839.839,0,0,1-974.838-356.3Z" transform="translate(989.9 376.317)" fill="#fff"/>
        <path id="Path_1218" data-name="Path 1218" d="M-926.826-421.182a1.223,1.223,0,0,1-.847-1.152A1.644,1.644,0,0,0-929.311-424h-.067a1.6,1.6,0,0,0-1.638,1.59,1.252,1.252,0,0,1-.847,1.228c-1.066.362-1.838.685-1.838,1.876v1.009a.337.337,0,0,0,.333.333h8.045a.337.337,0,0,0,.333-.333v-1.009C-925-420.5-925.76-420.82-926.826-421.182Z" transform="translate(939.051 424)" fill="#fff"/>
      </g>
    </g>
  </g>
</svg>
