<svg xmlns="http://www.w3.org/2000/svg" width="78.67" height="14.299" viewBox="0 0 78.67 14.299">
  <g id="crcards" transform="translate(-628.811 -734.308)">
    <g id="credet_card" data-name="credet card" transform="translate(628.811 734.308)">
      <path id="Path_977" data-name="Path 977" d="M-343.562-163.3h-19.574A1.865,1.865,0,0,0-365-161.436v10.57A1.865,1.865,0,0,0-363.136-149h19.574a1.865,1.865,0,0,0,1.864-1.864v-10.57A1.865,1.865,0,0,0-343.562-163.3Zm-16.056,10.731h-3.1a.587.587,0,0,1-.587-.587.584.584,0,0,1,.587-.587h3.1a.587.587,0,0,1,.587.587A.584.584,0,0,1-359.618-152.569Zm.645-4.171a.8.8,0,0,1-.8.8h-2.786a.8.8,0,0,1-.8-.8v-2.311a.8.8,0,0,1,.8-.8h2.786a.8.8,0,0,1,.8.8Zm4.568,4.171h-3.1a.587.587,0,0,1-.587-.587.584.584,0,0,1,.587-.587h3.1a.587.587,0,0,1,.587.587A.587.587,0,0,1-354.4-152.569Zm5.213,0h-3.1a.587.587,0,0,1-.587-.587.584.584,0,0,1,.587-.587h3.1a.587.587,0,0,1,.587.587A.587.587,0,0,1-349.192-152.569Zm5.209,0h-3.1a.587.587,0,0,1-.587-.587.584.584,0,0,1,.587-.587h3.1a.587.587,0,0,1,.587.587A.587.587,0,0,1-343.983-152.569Zm0-6.4h-5.672a.583.583,0,0,1-.587-.583.587.587,0,0,1,.587-.587h5.672a.587.587,0,0,1,.587.587A.583.583,0,0,1-343.983-158.964Z" transform="translate(365 163.3)" fill="#737373"/>
    </g>
    <g id="credet_card-2" data-name="credet card" transform="translate(656.495 734.308)">
      <path id="Path_977-2" data-name="Path 977" d="M-343.562-163.3h-19.574A1.865,1.865,0,0,0-365-161.436v10.57A1.865,1.865,0,0,0-363.136-149h19.574a1.865,1.865,0,0,0,1.864-1.864v-10.57A1.865,1.865,0,0,0-343.562-163.3Zm-16.056,10.731h-3.1a.587.587,0,0,1-.587-.587.584.584,0,0,1,.587-.587h3.1a.587.587,0,0,1,.587.587A.584.584,0,0,1-359.618-152.569Zm.645-4.171a.8.8,0,0,1-.8.8h-2.786a.8.8,0,0,1-.8-.8v-2.311a.8.8,0,0,1,.8-.8h2.786a.8.8,0,0,1,.8.8Zm4.568,4.171h-3.1a.587.587,0,0,1-.587-.587.584.584,0,0,1,.587-.587h3.1a.587.587,0,0,1,.587.587A.587.587,0,0,1-354.4-152.569Zm5.213,0h-3.1a.587.587,0,0,1-.587-.587.584.584,0,0,1,.587-.587h3.1a.587.587,0,0,1,.587.587A.587.587,0,0,1-349.192-152.569Zm5.209,0h-3.1a.587.587,0,0,1-.587-.587.584.584,0,0,1,.587-.587h3.1a.587.587,0,0,1,.587.587A.587.587,0,0,1-343.983-152.569Zm0-6.4h-5.672a.583.583,0,0,1-.587-.583.587.587,0,0,1,.587-.587h5.672a.587.587,0,0,1,.587.587A.583.583,0,0,1-343.983-158.964Z" transform="translate(365 163.3)" fill="#737373"/>
    </g>
    <g id="credet_card-3" data-name="credet card" transform="translate(684.178 734.308)">
      <path id="Path_977-3" data-name="Path 977" d="M-343.562-163.3h-19.574A1.865,1.865,0,0,0-365-161.436v10.57A1.865,1.865,0,0,0-363.136-149h19.574a1.865,1.865,0,0,0,1.864-1.864v-10.57A1.865,1.865,0,0,0-343.562-163.3Zm-16.056,10.731h-3.1a.587.587,0,0,1-.587-.587.584.584,0,0,1,.587-.587h3.1a.587.587,0,0,1,.587.587A.584.584,0,0,1-359.618-152.569Zm.645-4.171a.8.8,0,0,1-.8.8h-2.786a.8.8,0,0,1-.8-.8v-2.311a.8.8,0,0,1,.8-.8h2.786a.8.8,0,0,1,.8.8Zm4.568,4.171h-3.1a.587.587,0,0,1-.587-.587.584.584,0,0,1,.587-.587h3.1a.587.587,0,0,1,.587.587A.587.587,0,0,1-354.4-152.569Zm5.213,0h-3.1a.587.587,0,0,1-.587-.587.584.584,0,0,1,.587-.587h3.1a.587.587,0,0,1,.587.587A.587.587,0,0,1-349.192-152.569Zm5.209,0h-3.1a.587.587,0,0,1-.587-.587.584.584,0,0,1,.587-.587h3.1a.587.587,0,0,1,.587.587A.587.587,0,0,1-343.983-152.569Zm0-6.4h-5.672a.583.583,0,0,1-.587-.583.587.587,0,0,1,.587-.587h5.672a.587.587,0,0,1,.587.587A.583.583,0,0,1-343.983-158.964Z" transform="translate(365 163.3)" fill="#737373"/>
    </g>
  </g>
</svg>
