<svg xmlns="http://www.w3.org/2000/svg" width="35.347" height="30.67" viewBox="0 0 35.347 30.67">
  <g id="creditcard" transform="translate(0 0)">
    <path id="Path_977" data-name="Path 977" d="M-337.057-163.3H-362.57a2.431,2.431,0,0,0-2.43,2.43v13.778a2.431,2.431,0,0,0,2.43,2.43h25.513a2.431,2.431,0,0,0,2.43-2.43V-160.87A2.431,2.431,0,0,0-337.057-163.3Zm-20.928,13.988h-4.036a.765.765,0,0,1-.765-.765.761.761,0,0,1,.765-.765h4.036a.765.765,0,0,1,.765.765A.761.761,0,0,1-357.985-149.312Zm.841-5.437a1.037,1.037,0,0,1-1.04,1.04h-3.632a1.037,1.037,0,0,1-1.04-1.04v-3.012a1.037,1.037,0,0,1,1.04-1.04h3.632a1.037,1.037,0,0,1,1.04,1.04Zm5.954,5.437h-4.036a.765.765,0,0,1-.765-.765.761.761,0,0,1,.765-.765h4.036a.765.765,0,0,1,.765.765A.765.765,0,0,1-351.19-149.312Zm6.794,0h-4.036a.765.765,0,0,1-.765-.765.761.761,0,0,1,.765-.765h4.036a.765.765,0,0,1,.765.765A.765.765,0,0,1-344.4-149.312Zm6.789,0h-4.036a.765.765,0,0,1-.765-.765.761.761,0,0,1,.765-.765h4.036a.765.765,0,0,1,.765.765A.765.765,0,0,1-337.606-149.312Zm0-8.336H-345a.76.76,0,0,1-.765-.76.765.765,0,0,1,.765-.765h7.393a.765.765,0,0,1,.765.765A.76.76,0,0,1-337.606-157.648Z" transform="translate(365 175.332)" fill="#fff"/>
    <path id="Path_978" data-name="Path 978" d="M-242.327-384.17a2.431,2.431,0,0,0-2.43-2.43H-270.27a2.431,2.431,0,0,0-2.43,2.43v2.053h30.373Z" transform="translate(277.673 386.6)" fill="#fff"/>
    <path id="Path_979" data-name="Path 979" d="M-272.8-240.695v3.4h17.889a1.1,1.1,0,0,1,1.078-.927h5.539a1.1,1.1,0,0,1,1.094,1.094v1.212a3.191,3.191,0,0,1,.566,1.81v4.176h1.773a2.431,2.431,0,0,0,2.43-2.43V-240.7H-272.8Z" transform="translate(277.768 248.561)" fill="#fff"/>
  </g>
</svg>
