<svg id="deletew" xmlns="http://www.w3.org/2000/svg" width="9.997" height="12.851" viewBox="0 0 9.997 12.851">
  <path id="Path_456" data-name="Path 456" d="M126.24.776h2.148v.361h.776V.725A.726.726,0,0,0,128.439,0h-2.25a.726.726,0,0,0-.725.725v.412h.776Zm0,0" transform="translate(-122.316 0)" fill="#fff"/>
  <path id="Path_457" data-name="Path 457" d="M48.114,167.75H40.832a.342.342,0,0,0-.341.369l.609,7.528a.808.808,0,0,0,.806.744H47.04a.808.808,0,0,0,.806-.744l.609-7.527a.341.341,0,0,0-.34-.369ZM42.6,175.588h-.024a.388.388,0,0,1-.387-.364l-.381-6.18a.388.388,0,0,1,.774-.048l.381,6.18A.388.388,0,0,1,42.6,175.588Zm2.27-.387a.388.388,0,0,1-.776,0v-6.18a.388.388,0,1,1,.776,0Zm2.278-6.157-.364,6.18a.388.388,0,0,1-.387.365h-.023a.388.388,0,0,1-.364-.41l.364-6.18a.388.388,0,1,1,.774.046Zm0,0" transform="translate(-39.474 -163.54)" fill="#fff"/>
  <path id="Path_458" data-name="Path 458" d="M9.981,77.312l-.255-.764a.493.493,0,0,0-.468-.337H.74a.493.493,0,0,0-.468.337l-.255.764a.32.32,0,0,0,.3.421H9.678a.316.316,0,0,0,.169-.049.319.319,0,0,0,.134-.372Zm0,0" transform="translate(0 -74.299)" fill="#fff"/>
</svg>
