<svg xmlns="http://www.w3.org/2000/svg" width="10.557" height="10.5" viewBox="0 0 10.557 10.5">
  <g id="editblue" transform="translate(0 -0.269)">
    <path id="Path_418" data-name="Path 418" d="M10.254,25.028a.277.277,0,0,0-.277.277v2.457a.831.831,0,0,1-.83.83H1.383a.831.831,0,0,1-.83-.83v-7.21a.831.831,0,0,1,.83-.83H3.84a.277.277,0,1,0,0-.553H1.383A1.385,1.385,0,0,0,0,20.551v7.21a1.385,1.385,0,0,0,1.383,1.383H9.147a1.385,1.385,0,0,0,1.383-1.383V25.3A.277.277,0,0,0,10.254,25.028Zm0,0" transform="translate(0 -18.377)" fill="#0092a0"/>
    <path id="Path_419" data-name="Path 419" d="M156.367,36.368l4.04-4.04,1.3,1.3-4.04,4.04Zm0,0" transform="translate(-152.041 -31.172)" fill="#0092a0"/>
    <path id="Path_420" data-name="Path 420" d="M132.543,198.659l1.44-.4-1.041-1.041Zm0,0" transform="translate(-128.876 -191.501)" fill="#0092a0"/>
    <path id="Path_421" data-name="Path 421" d="M317.8.471a.693.693,0,0,0-.978,0l-.293.293,1.3,1.3.293-.293a.692.692,0,0,0,0-.978Zm0,0" transform="translate(-307.769)" fill="#0092a0"/>
  </g>
</svg>
