<svg id="editadbl" xmlns="http://www.w3.org/2000/svg" width="18.807" height="18.706" viewBox="0 0 18.807 18.706">
  <g id="edit_1_" data-name="edit (1)" transform="translate(0 0)">
    <path id="Path_418" data-name="Path 418" d="M18.267,29.608a.493.493,0,0,0-.493.493v4.377A1.481,1.481,0,0,1,16.3,35.957H2.465A1.481,1.481,0,0,1,.986,34.478V21.633a1.48,1.48,0,0,1,1.479-1.479H6.841a.493.493,0,1,0,0-.986H2.465A2.467,2.467,0,0,0,0,21.633V34.478a2.467,2.467,0,0,0,2.465,2.465H16.3a2.467,2.467,0,0,0,2.465-2.465V30.1A.493.493,0,0,0,18.267,29.608Zm0,0" transform="translate(0 -18.236)" fill="#5b5a5a"/>
    <path id="Path_419" data-name="Path 419" d="M156.367,39.526l7.2-7.2,2.321,2.321-7.2,7.2Zm0,0" transform="translate(-148.659 -30.748)" fill="#5b5a5a"/>
    <path id="Path_420" data-name="Path 420" d="M132.543,199.784l2.565-.711-1.855-1.855Zm0,0" transform="translate(-126.01 -187.511)" fill="#5b5a5a"/>
    <path id="Path_421" data-name="Path 421" d="M318.793.629a1.234,1.234,0,0,0-1.743,0l-.523.523,2.321,2.321.523-.523a1.233,1.233,0,0,0,0-1.743Zm0,0" transform="translate(-300.925 -0.269)" fill="#5b5a5a"/>
  </g>
</svg>
