<svg xmlns="http://www.w3.org/2000/svg" width="17.116" height="16.859" viewBox="0 0 17.116 16.859">
  <g id="funnel" transform="translate(0 -2.917)">
    <g id="Group_354" data-name="Group 354" transform="translate(0 2.917)">
      <path id="Path_387" data-name="Path 387" d="M17.116,3.855a.938.938,0,0,0-.938-.938H.938A.938.938,0,0,0,.171,4.394L5.7,12.25l.016,5.715a1.816,1.816,0,0,0,2.823,1.506l1.974-1.316a1.876,1.876,0,0,0,.835-1.569l-.02-4.3L16.942,4.4A.938.938,0,0,0,17.116,3.855ZM9.445,11.689l.023,4.906-1.88,1.254-.017-6.194L2.744,4.793H14.359Z" transform="translate(0 -2.917)" fill="#fff"/>
    </g>
  </g>
</svg>
