<svg id="grid" xmlns="http://www.w3.org/2000/svg" width="24.973" height="24.973" viewBox="0 0 24.973 24.973">
  <path id="XMLID_55_" d="M-702.985,556.1H-713.3a.6.6,0,0,0-.6.6v10.31a.607.607,0,0,0,.6.6h10.31a.6.6,0,0,0,.6-.6V556.7A.6.6,0,0,0-702.985,556.1Z" transform="translate(713.9 -556.1)" fill="#fff"/>
  <path id="XMLID_54_" d="M-567.285,556.1H-577.6a.6.6,0,0,0-.6.6v10.31a.607.607,0,0,0,.6.6h10.31a.6.6,0,0,0,.6-.6V556.7A.607.607,0,0,0-567.285,556.1Z" transform="translate(591.653 -556.1)" fill="#fff"/>
  <path id="XMLID_53_" d="M-702.985,691.8H-713.3a.6.6,0,0,0-.6.6v10.31a.607.607,0,0,0,.6.6h10.31a.607.607,0,0,0,.6-.6V692.4A.6.6,0,0,0-702.985,691.8Z" transform="translate(713.9 -678.347)" fill="#fff"/>
  <path id="XMLID_52_" d="M-567.285,691.8H-577.6a.6.6,0,0,0-.6.6v10.31a.607.607,0,0,0,.6.6h10.31a.607.607,0,0,0,.6-.6V692.4A.6.6,0,0,0-567.285,691.8Z" transform="translate(591.653 -678.347)" fill="#fff"/>
</svg>
