<svg id="gridem" xmlns="http://www.w3.org/2000/svg" width="17.004" height="17.004" viewBox="0 0 17.004 17.004">
  <g id="Group_353" data-name="Group 353">
    <g id="Group_352" data-name="Group 352">
      <path id="Path_377" data-name="Path 377" d="M7.505,0H1.993A2,2,0,0,0,0,1.993V7.505a.664.664,0,0,0,.664.664H7.505a.664.664,0,0,0,.664-.664V.664A.664.664,0,0,0,7.505,0ZM6.841,6.841H1.328V1.993a.665.665,0,0,1,.664-.664H6.841Z" fill="#333"/>
      <path id="Path_378" data-name="Path 378" d="M7.505,266H.664a.664.664,0,0,0-.664.664v5.513a2,2,0,0,0,1.993,1.993H7.505a.664.664,0,0,0,.664-.664v-6.841A.664.664,0,0,0,7.505,266Zm-.664,6.841H1.993a.665.665,0,0,1-.664-.664v-4.849H6.841Z" transform="translate(0 -257.166)" fill="#333"/>
      <path id="Path_379" data-name="Path 379" d="M272.177,0h-5.513A.664.664,0,0,0,266,.664V7.505a.664.664,0,0,0,.664.664h6.841a.664.664,0,0,0,.664-.664V1.993A2,2,0,0,0,272.177,0Zm.664,6.841h-5.513V1.328h4.849a.665.665,0,0,1,.664.664Z" transform="translate(-257.166)" fill="#333"/>
      <path id="Path_380" data-name="Path 380" d="M273.505,266h-6.841a.664.664,0,0,0-.664.664v6.841a.664.664,0,0,0,.664.664h5.513a2,2,0,0,0,1.993-1.993v-5.513A.664.664,0,0,0,273.505,266Zm-.664,6.177a.665.665,0,0,1-.664.664h-4.849v-5.513h5.513Z" transform="translate(-257.166 -257.166)" fill="#333"/>
    </g>
  </g>
</svg>
