<svg xmlns="http://www.w3.org/2000/svg" width="19.788" height="17.605" viewBox="0 0 19.788 17.605">
  <path id="hearthamem" d="M1.57,1.723A5.321,5.321,0,0,1,5.528,0,4.978,4.978,0,0,1,8.638,1.073,6.361,6.361,0,0,1,9.895,2.386a6.358,6.358,0,0,1,1.257-1.313A4.977,4.977,0,0,1,14.261,0a5.321,5.321,0,0,1,3.958,1.723,6.185,6.185,0,0,1,1.57,4.224,7.365,7.365,0,0,1-1.963,4.821,41.851,41.851,0,0,1-4.913,4.611c-.681.58-1.452,1.238-2.254,1.938a1.162,1.162,0,0,1-1.53,0c-.8-.7-1.573-1.359-2.254-1.939a41.827,41.827,0,0,1-4.913-4.611A7.365,7.365,0,0,1,0,5.947,6.185,6.185,0,0,1,1.57,1.723Zm0,0" transform="translate(-0.001 0)" fill="#fc0"/>
</svg>
