<svg xmlns="http://www.w3.org/2000/svg" width="11.587" height="8.69" viewBox="0 0 11.587 8.69">
  <path id="imgpath" d="M10.814,0A.738.738,0,0,1,11.3.193a.688.688,0,0,1,.29.579V8.014a.738.738,0,0,1-.193.483,1.035,1.035,0,0,1-.579.193H.772A1.035,1.035,0,0,1,.193,8.5,1.035,1.035,0,0,1,0,7.918V.772A.738.738,0,0,1,.193.29.688.688,0,0,1,.772,0ZM3.283,1.738a1.1,1.1,0,0,0-.772-.29,1.1,1.1,0,0,0-.772.29,1.1,1.1,0,0,0-.29.772,1.1,1.1,0,0,0,.29.772,1.1,1.1,0,0,0,.772.29,1.1,1.1,0,0,0,.772-.29,1.1,1.1,0,0,0,.29-.772A1.1,1.1,0,0,0,3.283,1.738Zm6.856,5.5L7.242,2.9,4.635,6.276,2.9,5.021,1.448,7.242Z" fill="#f0f0f0"/>
</svg>
