<svg xmlns="http://www.w3.org/2000/svg" width="12.5" height="12.5" viewBox="0 0 12.5 12.5">
  <g id="infoprofm" transform="translate(0)">
    <path id="Path_424" data-name="Path 424" d="M412,126.244a.244.244,0,1,0,.244-.244A.244.244,0,0,0,412,126.244Zm0,0" transform="translate(-401.942 -122.924)"/>
    <path id="Path_425" data-name="Path 425" d="M433.142,162.575a4.653,4.653,0,0,1-.093.928.244.244,0,0,0,.19.288.24.24,0,0,0,.049.005.244.244,0,0,0,.239-.2,5.139,5.139,0,0,0,.1-1.025,5.072,5.072,0,0,0-.5-2.2.244.244,0,1,0-.441.21A4.588,4.588,0,0,1,433.142,162.575Zm0,0" transform="translate(-422.107 -156.325)"/>
    <path id="Path_426" data-name="Path 426" d="M198.686,209.418h-.244v-3.174A.244.244,0,0,0,198.2,206h-1.953a.244.244,0,0,0-.244.244v.977a.244.244,0,0,0,.244.244h.244v1.953h-.244a.244.244,0,0,0-.244.244v.977a.244.244,0,0,0,.244.244h2.441a.244.244,0,0,0,.244-.244v-.977A.244.244,0,0,0,198.686,209.418Zm-.244.977h-1.953v-.488h.244a.244.244,0,0,0,.244-.244v-2.441a.244.244,0,0,0-.244-.244h-.244v-.488h1.465v3.174a.244.244,0,0,0,.244.244h.244Zm0,0" transform="translate(-191.215 -200.971)"/>
    <path id="Path_427" data-name="Path 427" d="M216.977,107.953a.977.977,0,1,0-.977-.977A.978.978,0,0,0,216.977,107.953Zm0-1.465a.488.488,0,1,1-.488.488A.489.489,0,0,1,216.977,106.488Zm0,0" transform="translate(-210.727 -103.412)"/>
    <path id="Path_428" data-name="Path 428" d="M6.25,0A6.356,6.356,0,0,0,0,6.25,6.657,6.657,0,0,0,.887,9.555L.012,12.179a.244.244,0,0,0,.309.309l2.623-.875A6.656,6.656,0,0,0,6.25,12.5,6.356,6.356,0,0,0,12.5,6.25,6.356,6.356,0,0,0,6.25,0Zm0,12.012a6.107,6.107,0,0,1-3.144-.873.244.244,0,0,0-.208-.025L.63,11.87,1.386,9.6a.244.244,0,0,0-.025-.208A6.106,6.106,0,0,1,.488,6.25,5.839,5.839,0,0,1,6.25.488,5.839,5.839,0,0,1,12.011,6.25,5.839,5.839,0,0,1,6.25,12.012Zm0,0" transform="translate(0)"/>
  </g>
</svg>
