<svg xmlns="http://www.w3.org/2000/svg" width="11.437" height="18.287" viewBox="0 0 11.437 18.287">
  <g id="lightbulb" transform="translate(-95.89 0)">
    <path id="Path_249" data-name="Path 249" d="M101.609,0a5.715,5.715,0,0,0-4.787,8.843,7.894,7.894,0,0,1,1.358,4.3.571.571,0,0,0,.571.571h5.715a.571.571,0,0,0,.571-.571,7.906,7.906,0,0,1,1.357-4.3A5.715,5.715,0,0,0,101.609,0Z" transform="translate(0 0)" fill="#ffc107"/>
    <path id="Path_250" data-name="Path 250" d="M104.561,13.839H98.846a.571.571,0,0,1-.571-.571,7.9,7.9,0,0,0-1.358-4.3,5.715,5.715,0,1,1,9.573,0,7.9,7.9,0,0,0-1.358,4.3A.571.571,0,0,1,104.561,13.839ZM99.4,12.7h4.613a9.182,9.182,0,0,1,1.524-4.356,4.572,4.572,0,1,0-7.658,0A9.172,9.172,0,0,1,99.4,12.7Z" transform="translate(-0.095 -0.124)" fill="#ffc107"/>
    <path id="Path_251" data-name="Path 251" d="M166.293,417.143h-5.715a.571.571,0,0,1,0-1.143h5.715a.571.571,0,0,1,0,1.143Z" transform="translate(-61.827 -401.142)" fill="#ffc107"/>
    <path id="Path_252" data-name="Path 252" d="M196.007,481.143h-3.429a.571.571,0,1,1,0-1.143h3.429a.571.571,0,1,1,0,1.143Z" transform="translate(-92.684 -462.856)" fill="#ffc107"/>
  </g>
</svg>
