<svg id="location" xmlns="http://www.w3.org/2000/svg" width="8.477" height="11.474" viewBox="0 0 8.477 11.474">
  <g id="Group_101" data-name="Group 101" transform="translate(0)">
    <g id="Group_100" data-name="Group 100">
      <path id="Path_161" data-name="Path 161" d="M52.318,0A4.243,4.243,0,0,0,48.08,4.238a4.89,4.89,0,0,0,.36,1.632,6.834,6.834,0,0,0,.49.916l2.906,4.4a.553.553,0,0,0,.966,0l2.906-4.4a6.805,6.805,0,0,0,.49-.916,4.889,4.889,0,0,0,.359-1.632A4.243,4.243,0,0,0,52.318,0Zm3.419,5.677a6.262,6.262,0,0,1-.447.835l-2.906,4.4c-.057.087-.076.087-.133,0l-2.906-4.4a6.264,6.264,0,0,1-.447-.835,4.439,4.439,0,0,1-.321-1.438,3.74,3.74,0,1,1,7.479,0A4.442,4.442,0,0,1,55.738,5.677Z" transform="translate(-48.08 0)" fill="#5e5d5d"/>
      <path id="Path_162" data-name="Path 162" d="M114.324,64.008a2.244,2.244,0,1,0,2.244,2.244A2.246,2.246,0,0,0,114.324,64.008Zm0,3.989a1.745,1.745,0,1,1,1.745-1.745A1.747,1.747,0,0,1,114.324,68Z" transform="translate(-110.085 -62.013)" fill="#5e5d5d"/>
    </g>
  </g>
</svg>
