<svg xmlns="http://www.w3.org/2000/svg" width="30.69" height="28.333" viewBox="0 0 30.69 28.333">
  <g id="mall" transform="translate(0 0)">
    <path id="Path_256" data-name="Path 256" d="M31.195,26.591H30.7V1.457A.477.477,0,0,0,30.2,1H10.4a.477.477,0,0,0-.495.457V7.4H2.485a.477.477,0,0,0-.5.457V26.591h-.5A.477.477,0,0,0,1,27.048v1.828a.477.477,0,0,0,.495.457h29.7a.477.477,0,0,0,.5-.457V27.048A.477.477,0,0,0,31.195,26.591Zm-5.445,0V22.478a.477.477,0,0,0-.495-.457H22.78v-.914h6.93v5.484ZM2.98,18.366V14.71H6.94v3.656ZM7.93,14.71h3.96v3.656H7.93Zm4.95,0h3.96v3.656H12.88Zm4.95,0h3.96v3.656H17.83Zm4.95-6.4h1.98v3.656H22.78Zm6.93,11.882H22.78V19.28h6.93Zm-6.93-1.828V14.71h1.98v3.656Zm6.93,0H25.75V14.71h3.96Zm0-6.4H25.75V8.312h3.96Zm-6.93.914h6.93V13.8H22.78Zm0,10.054h1.98v3.656H22.78ZM29.71,5.57H25.75V1.914h3.96Zm-13.86,0V1.914h3.96V5.57ZM20.8,1.914h3.96V5.57H20.8Zm-5.94,0V5.57H10.9V1.914ZM10.9,6.484H29.71V7.4H10.9ZM21.79,8.312V13.8H2.98V8.312ZM2.98,19.28H21.79v7.312H20.8V22.478a.477.477,0,0,0-.495-.457h-5.94a.477.477,0,0,0-.495.457v4.113H10.9V22.478a.477.477,0,0,0-.495-.457H4.465a.477.477,0,0,0-.495.457v4.113H2.98Zm11.88,7.312V22.935h1.98v3.656Zm2.97-3.656h1.98v3.656H17.83ZM4.96,26.591V22.935H6.94v3.656Zm2.97-3.656H9.91v3.656H7.93ZM30.7,28.419H1.99v-.914H30.7Z" transform="translate(-1 -1)" fill="#0092a0"/>
    <path id="Path_257" data-name="Path 257" d="M11.914,21.393l.048.1a.476.476,0,0,0,.818,0l.048-.1v1.263h.914v-3.2a.457.457,0,0,0-.866-.2l-.5,1.01-.5-1.01a.457.457,0,0,0-.866.2v3.2h.914Z" transform="translate(-6.009 -10.775)" fill="#0092a0"/>
    <path id="Path_258" data-name="Path 258" d="M19.914,21.742h.914v.914h.914V20.371a1.371,1.371,0,0,0-2.742,0v2.285h.914Zm.457-1.828a.458.458,0,0,1,.457.457v.457h-.914v-.457A.458.458,0,0,1,20.371,19.914Z" transform="translate(-10.016 -10.774)" fill="#0092a0"/>
    <path id="Path_259" data-name="Path 259" d="M27.457,22.656h1.371v-.914h-.914V19H27v3.2A.457.457,0,0,0,27.457,22.656Z" transform="translate(-14.062 -10.774)" fill="#0092a0"/>
    <path id="Path_260" data-name="Path 260" d="M33.457,22.656h1.371v-.914h-.914V19H33v3.2A.457.457,0,0,0,33.457,22.656Z" transform="translate(-17.076 -10.774)" fill="#0092a0"/>
    <path id="Path_261" data-name="Path 261" d="M7,43h6.4v.914H7Z" transform="translate(-4.258 -23.807)" fill="#0092a0"/>
    <path id="Path_262" data-name="Path 262" d="M27,43h6.4v.914H27Z" transform="translate(-13.842 -23.807)" fill="#0092a0"/>
  </g>
</svg>
