<svg id="Notification" xmlns="http://www.w3.org/2000/svg" width="22.031" height="22.145" viewBox="0 0 22.031 22.145">
  <g id="Alert" transform="translate(0)">
    <path id="Path_1" data-name="Path 1" d="M20.737,19.377h-6.92a2.768,2.768,0,1,1-5.536,0H1.36a1.329,1.329,0,0,1-1.246-.969A1.478,1.478,0,0,1,.53,16.886a5.572,5.572,0,0,0,2.215-4.429V8.3a8.329,8.329,0,0,1,8.3-8.3c3.17,0,7.531,4.815,7.531,4.815A12.99,12.99,0,0,1,19.353,8.3v4.152a5.572,5.572,0,0,0,2.215,4.429,1.311,1.311,0,0,1,.415,1.522A1.329,1.329,0,0,1,20.737,19.377Z" transform="translate(-0.063)" fill="#0092a0" fill-rule="evenodd"/>
  </g>
  <path id="Path_557" data-name="Path 557" d="M14.832,16.668l1.362-1.817.862,3.175L13.938,19.84Z" transform="translate(-7 -9)" fill="rgba(255,255,255,0)"/>
</svg>
