<svg id="paying" xmlns="http://www.w3.org/2000/svg" width="18.683" height="29.5" viewBox="0 0 18.683 29.5">
  <path id="Path_268" data-name="Path 268" d="M108.425,16h13.767a.492.492,0,0,1,.492.492v26.55a.492.492,0,0,1-.492.492H112.1a5.4,5.4,0,0,1-4.168,1.967h-3.442a.492.492,0,0,1-.492-.492v-11.8a2.467,2.467,0,0,1,.289-1.157l3.644-6.833V16.492A.492.492,0,0,1,108.425,16ZM121.7,42.55V16.983H108.917V36.65h.732l2.058-2.849a5.408,5.408,0,1,1,5.048,1.177,2.451,2.451,0,0,1-.318.669l-.456.675a1.474,1.474,0,1,1-1.638,2.424l-1,1.485c0,.119-.011.236-.022.353h6.415V36.65a.492.492,0,1,1,.983,0v4.425a.492.492,0,0,1-.492.492h-7.088a5.369,5.369,0,0,1-.388.983Zm-4.868-8.629A4.425,4.425,0,1,0,112.286,33l.081-.112a2.457,2.457,0,0,1,4.465,1.034Zm-1.414,3.233-.513.76a.492.492,0,1,0,.513-.76Zm-10.435-3.946V44.517h2.95a4.43,4.43,0,0,0,4.424-4.332.492.492,0,0,1,.075-.368l3.189-4.72a1.475,1.475,0,1,0-2.444-1.652l-.009.013L110.3,37.43a.492.492,0,0,1-.4.2h-1.475a.492.492,0,0,1-.492-.492V27.308l-2.777,5.206A1.481,1.481,0,0,0,104.983,33.208Z" transform="translate(-104 -16)" fill="#0092a0"/>
  <path id="Path_269" data-name="Path 269" d="M170.95,217.475a.492.492,0,1,0-.492.492.492.492,0,0,1,0,.983,1.477,1.477,0,0,1-1.39-.983h-.576a.492.492,0,0,1,0-.983h.576a1.475,1.475,0,0,1,2.865.492.492.492,0,1,0,.492-.492.492.492,0,0,1,0-.983,1.477,1.477,0,0,1,1.39.983h.576a.492.492,0,1,1,0,.983h-.576a1.475,1.475,0,0,1-2.865-.492Z" transform="translate(-160.133 -203.708)" fill="#0092a0"/>
  <path id="Path_270" data-name="Path 270" d="M201.475,88A1.475,1.475,0,1,1,200,89.475,1.475,1.475,0,0,1,201.475,88Zm0,1.967a.492.492,0,1,0-.492-.492A.492.492,0,0,0,201.475,89.967Z" transform="translate(-190.167 -83.575)" fill="#0092a0"/>
  <path id="Path_271" data-name="Path 271" d="M146.325,53.408a.492.492,0,0,1-.492-.492V48.983h-8.85v3.933a.492.492,0,0,1-.983,0V48.492a.492.492,0,0,1,.492-.492h9.833a.492.492,0,0,1,.492.492v4.425A.492.492,0,0,1,146.325,53.408Z" transform="translate(-130.1 -46.033)" fill="#0092a0"/>
</svg>
