<svg id="phonem" xmlns="http://www.w3.org/2000/svg" width="12.678" height="12.678" viewBox="0 0 12.678 12.678">
  <rect id="Rectangle_320" data-name="Rectangle 320" width="12.39" height="12.39" transform="translate(0.289)" fill="none"/>
  <path id="Path_110" data-name="Path 110" d="M7.358,9.056,8.716,7.811a.416.416,0,0,1,.34-.113l.226.113,3.17,1.472c.226.113.226.226.226.453a2.87,2.87,0,0,1-.906,2.038,3.243,3.243,0,0,1-2.377.906,6.9,6.9,0,0,1-3.17-.792,14.839,14.839,0,0,1-3.17-2.264,19.281,19.281,0,0,1-1.7-2.49A15.647,15.647,0,0,1,.226,4.641,6.966,6.966,0,0,1,0,2.49,2.975,2.975,0,0,1,.792.792,3.442,3.442,0,0,1,2.943,0,.588.588,0,0,1,3.4.226l1.7,3.17a.4.4,0,0,0,.113.226.416.416,0,0,1-.113.34L3.622,5.32a.505.505,0,0,0,0,.566A10.81,10.81,0,0,0,4.981,7.7,11.43,11.43,0,0,0,6.792,9.169C7.018,9.282,7.245,9.282,7.358,9.056Z" transform="translate(0 0)" fill="#fff"/>
</svg>
