<svg xmlns="http://www.w3.org/2000/svg" width="114.424" height="114.424" viewBox="0 0 114.424 114.424">
  <g id="pp" transform="translate(0 0)">
    <g id="Group_1387" data-name="Group 1387">
      <circle id="Ellipse_98" data-name="Ellipse 98" cx="38.984" cy="38.984" r="38.984" transform="translate(2.08 57.212) rotate(-45)" fill="#dfddde"/>
      <circle id="Ellipse_99" data-name="Ellipse 99" cx="40.455" cy="40.455" r="40.455" transform="translate(0 57.212) rotate(-45)" fill="#ccc"/>
      <circle id="Ellipse_100" data-name="Ellipse 100" cx="38.984" cy="38.984" r="38.984" transform="translate(2.08 57.212) rotate(-45)" fill="#dfddde"/>
    </g>
    <path id="Path_1221" data-name="Path 1221" d="M1062.075,622.5a3.021,3.021,0,0,0-.33,1.243c-.33,1.775-2.029,2.917-3.6,3.83-5.124,2.993-10.247,5.935-15.244,9.08a38.936,38.936,0,0,0,59.808-1.243c-4.312-2.232-8.649-4.489-12.961-6.721a28.734,28.734,0,0,0-3.094-1.471,8.163,8.163,0,0,1-2.41-1.167c-1.065-.913-.812-2.359-1.091-3.6a2.263,2.263,0,0,0-.38-.964c-.507-.634-1.547-.609-2.105-1.192a2.175,2.175,0,0,1-.457-1.37,1.9,1.9,0,0,1,.177-.913c.177-.33.583-.482.862-.71.3-.254.609-.457.938-.685a3.87,3.87,0,0,0,1.623-1.75,15.213,15.213,0,0,0,.913-3.7c.152-1.294-.152-2.841.406-4.058.533-1.167,1.649-1.7,1.9-3.069a7.027,7.027,0,0,0-.482-3.754,11.141,11.141,0,0,0-.862-1.268c-.3-.456-.1-1.015-.051-1.547a14.7,14.7,0,0,0-.482-4.794,12.2,12.2,0,0,0-.457-1.649,5.459,5.459,0,0,0-2.257-2.689c-.507-.33-1.091-.457-1.623-.761a14.019,14.019,0,0,0-1.75-.862,29.888,29.888,0,0,0-4.16-1.446,12.477,12.477,0,0,0-8.421.431,4.537,4.537,0,0,0-2.815,3.3,4.713,4.713,0,0,0-5.2,2.08,8.023,8.023,0,0,0-.913,4.54c.076,1.446.583,2.739.786,4.16a1.81,1.81,0,0,1-.1,1.167c-.177.279-.533.431-.71.71a1.33,1.33,0,0,0-.152.71c-.1,1.776-.177,3.7.786,5.2a2.544,2.544,0,0,0,.482.558,3.356,3.356,0,0,0,.507.3,4.075,4.075,0,0,1,1.649,2.283c.279.837.228,1.725.456,2.587.177.685.406,1.446.659,2.131a3.424,3.424,0,0,0,1.015,1.319c.431.431.685.888,1.319,1.065a2.128,2.128,0,0,0,.152.355,2.822,2.822,0,0,1,.152,1.015,3.387,3.387,0,0,1-.355,2.13C1063.7,621.99,1062.582,621.788,1062.075,622.5Z" transform="translate(-1015.09 -553.872)" fill="#546f7a"/>
  </g>
</svg>
