<svg xmlns="http://www.w3.org/2000/svg" width="16.027" height="15.897" viewBox="0 0 16.027 15.897">
  <g id="pricew" transform="translate(-158.756 -172.918)">
    <g id="OBJECTS" transform="translate(159.256 173.618)">
      <g id="Group_787" data-name="Group 787" transform="translate(0 0)">
        <g id="Group_784" data-name="Group 784" transform="translate(0 0)">
          <g id="Path_559" data-name="Path 559" transform="translate(-158.256 -180.428)" fill="#fff">
            <path d="M 164.9474182128906 195.3753814697266 C 164.9473724365234 195.3753814697266 164.9473876953125 195.3753814697266 164.9473419189453 195.3753814697266 C 164.8749847412109 195.3753662109375 164.8015594482422 195.3663940429688 164.72900390625 195.3486633300781 L 158.7365264892578 194.0944213867188 L 158.7318115234375 194.0934295654297 L 158.7271118164062 194.0922698974609 C 158.4837799072266 194.0314331054688 158.2787322998047 193.8913726806641 158.1497192382812 193.6978607177734 C 158.0143890380859 193.4948425292969 157.9728546142578 193.2486724853516 158.0325622558594 193.0040893554688 L 160.5863952636719 180.7920532226562 C 160.6105499267578 180.5999603271484 160.67138671875 180.1778564453125 161.1247253417969 180.1778564453125 C 161.2030029296875 180.1778564453125 161.2906799316406 180.1905059814453 161.4002685546875 180.2176361083984 L 167.8112030029297 181.5648651123047 L 167.8158416748047 181.5658416748047 L 167.8204193115234 181.5669860839844 C 168.3073120117188 181.6887054443359 168.4432220458984 181.8907318115234 168.3797607421875 182.3983764648438 L 168.3784790039062 182.4085235595703 L 168.3763885498047 182.4185333251953 L 165.819580078125 194.6446838378906 L 165.8185882568359 194.6494293212891 L 165.8174133300781 194.6541442871094 C 165.7095794677734 195.0855102539062 165.3599243164062 195.3753814697266 164.9474182128906 195.3753814697266 Z M 164.0932922363281 182.7391204833984 C 163.8196716308594 182.7391204833984 163.5108337402344 182.9141998291016 163.4499969482422 183.2488555908203 C 163.4135437011719 183.4313507080078 163.4518585205078 183.6200256347656 163.5543060302734 183.7708129882812 C 163.6198425292969 183.8672943115234 163.7410125732422 183.9900970458984 163.9460601806641 184.0273742675781 C 163.9893646240234 184.0352630615234 164.0331726074219 184.0392456054688 164.0762481689453 184.0392456054688 C 164.3930358886719 184.0392456054688 164.6660308837891 183.8238220214844 164.7254028320312 183.5270233154297 C 164.7610321044922 183.3488006591797 164.7227172851562 183.1601104736328 164.6202545166016 183.0093231201172 C 164.5547332763672 182.9128723144531 164.4335632324219 182.7900695800781 164.2285308837891 182.7528076171875 C 164.1815185546875 182.7434539794922 164.1374816894531 182.7391204833984 164.0932922363281 182.7391204833984 Z" stroke="none"/>
            <path d="M 161.1247253417969 180.4278564453125 C 160.9313049316406 180.4278411865234 160.8686981201172 180.5491638183594 160.8331909179688 180.8332824707031 L 158.2763977050781 193.0594482421875 C 158.1834106445312 193.4313354492188 158.4158477783203 193.7567596435547 158.7877502441406 193.8497314453125 L 164.7845916748047 195.1048736572266 C 165.1565399169922 195.1978912353516 165.4819030761719 194.9654388427734 165.5748748779297 194.593505859375 L 168.1316833496094 182.3673706054688 C 168.1781768798828 181.9954833984375 168.1316833496094 181.9024963378906 167.7597961425781 181.8095245361328 L 161.3445434570312 180.4613952636719 C 161.2567596435547 180.439453125 161.1844787597656 180.4278564453125 161.1247253417969 180.4278564453125 M 164.0762481689453 184.2892456054688 C 164.0188751220703 184.2892456054688 163.96044921875 184.2840881347656 163.9013366699219 184.2733459472656 C 163.3899841308594 184.1803741455078 163.1110534667969 183.6690063476562 163.2040252685547 183.2041320800781 C 163.2969818115234 182.6927795410156 163.8083953857422 182.4138641357422 164.2732391357422 182.5068359375 C 164.7846069335938 182.5997924804688 165.0635070800781 183.1111450195312 164.9705505371094 183.5760498046875 C 164.8883209228516 183.9871673583984 164.51513671875 184.2892456054688 164.0762481689453 184.2892456054688 M 161.1246795654297 179.9278564453125 C 161.2226715087891 179.9278564453125 161.3282012939453 179.9425048828125 161.4560089111328 179.9739074707031 L 167.8810577392578 181.324462890625 C 168.4905395507812 181.4768218994141 168.7068786621094 181.7969360351562 168.6278228759766 182.4293823242188 L 168.62109375 182.4697113037109 L 166.0599517822266 194.7147521972656 C 165.9238128662109 195.2594299316406 165.4766845703125 195.6253814697266 164.9473571777344 195.6253814697266 C 164.8565368652344 195.6253814697266 164.7646789550781 195.6143493652344 164.6741333007812 195.5925903320312 L 158.6664886474609 194.3347930908203 C 158.3626861572266 194.2588500976562 158.1052856445312 194.0818939208984 157.9417114257812 193.8365325927734 C 157.7677917480469 193.5756378173828 157.713623046875 193.2607269287109 157.7887573242188 192.9486236572266 L 160.3398742675781 180.7496185302734 C 160.4139099121094 180.2043151855469 160.6778717041016 179.9278564453125 161.1246795654297 179.9278564453125 Z M 164.0762481689453 183.7892456054688 C 164.2742767333984 183.7892456054688 164.4441833496094 183.6583404541016 164.4802551269531 183.4779968261719 C 164.5025024414062 183.3667907714844 164.4775238037109 183.2441101074219 164.4134826660156 183.1498260498047 C 164.3572387695312 183.0670776367188 164.2799835205078 183.0162506103516 164.1838073730469 182.998779296875 L 164.1751708984375 182.9971313476562 C 164.1486053466797 182.9918212890625 164.1210632324219 182.9891204833984 164.0932922363281 182.9891204833984 C 163.9233551025391 182.9891204833984 163.7322998046875 183.0937042236328 163.6959686279297 183.2935791015625 L 163.6943206787109 183.3021850585938 C 163.6720733642578 183.4133911132812 163.6970520019531 183.5360412597656 163.7610931396484 183.6303253173828 C 163.8173217773438 183.7131042480469 163.8946075439453 183.7639312744141 163.9907836914062 183.7814025878906 C 164.0193786621094 183.78662109375 164.0481109619141 183.7892456054688 164.0762481689453 183.7892456054688 Z" stroke="none" fill="#0092a0"/>
          </g>
        </g>
        <g id="Group_785" data-name="Group 785" transform="translate(3.576 0.223)">
          <g id="Path_561" data-name="Path 561" transform="translate(-167.8 -182.3)" fill="#fff">
            <path d="M 174.5871276855469 196.2707672119141 L 168.4508209228516 196.2707672119141 C 167.8896179199219 196.2707672119141 167.4499969482422 195.8311462402344 167.4499969482422 195.2699279785156 L 167.4499969482422 185.8795166015625 C 167.4499969482422 185.7245483398438 167.4499969482422 185.5317077636719 168.7737579345703 183.7421569824219 C 169.3969573974609 182.8996887207031 170.0283660888672 182.0923461914062 170.03466796875 182.0842895507812 L 170.1397705078125 181.9499969482422 L 170.310302734375 181.9499969482422 L 172.7276306152344 181.9499969482422 L 172.8981628417969 181.9499969482422 L 173.0032653808594 182.0842895507812 C 173.0095672607422 182.0923461914062 173.6409759521484 182.8996887207031 174.2641754150391 183.7421569824219 C 175.5879669189453 185.5317077636719 175.5879669189453 185.7245483398438 175.5879669189453 185.8795166015625 L 175.5879669189453 195.2699279785156 C 175.5879669189453 195.8311462402344 175.1483459472656 196.2707672119141 174.5871276855469 196.2707672119141 Z M 171.5189819335938 183.9981384277344 C 171.1992950439453 183.9981384277344 170.9392395019531 184.2582092285156 170.9392395019531 184.577880859375 C 170.9392395019531 184.8975677490234 171.1992950439453 185.1576385498047 171.5189819335938 185.1576385498047 C 171.85791015625 185.1576385498047 172.0650787353516 184.8608856201172 172.0985107421875 184.5623931884766 C 172.0902862548828 184.2498321533203 171.8334655761719 183.9981384277344 171.5189819335938 183.9981384277344 Z" stroke="none"/>
            <path d="M 170.310302734375 182.2999877929688 C 170.310302734375 182.2999877929688 167.7999877929688 185.5076293945312 167.7999877929688 185.8795166015625 L 167.7999877929688 195.2699279785156 C 167.7999877929688 195.641845703125 168.0789184570312 195.9207611083984 168.4508209228516 195.9207611083984 L 174.5871276855469 195.9207611083984 C 174.9590454101562 195.9207611083984 175.2379608154297 195.641845703125 175.2379608154297 195.2699279785156 L 175.2379608154297 185.8795166015625 C 175.2379608154297 185.5076293945312 172.7276306152344 182.2999877929688 172.7276306152344 182.2999877929688 L 170.310302734375 182.2999877929688 M 171.5189819335938 185.5076293945312 C 171.0076293945312 185.5076293945312 170.5892333984375 185.0892333984375 170.5892333984375 184.577880859375 C 170.5892333984375 184.0664978027344 171.0076293945312 183.6481323242188 171.5189819335938 183.6481323242188 C 172.0303344726562 183.6481323242188 172.4487152099609 184.0664978027344 172.4487152099609 184.577880859375 C 172.4022216796875 185.0892333984375 172.0303344726562 185.5076293945312 171.5189819335938 185.5076293945312 M 169.96923828125 181.5999908447266 L 173.0686950683594 181.5999908447266 L 173.2788848876953 181.8685760498047 C 173.2852172851562 181.8766784667969 173.9195556640625 182.6877593994141 174.5455627441406 183.5339965820312 C 175.9379577636719 185.4163208007812 175.9379577636719 185.6309661865234 175.9379577636719 185.8795166015625 L 175.9379577636719 195.2699279785156 C 175.9379577636719 196.0274047851562 175.3446044921875 196.6207580566406 174.5871276855469 196.6207580566406 L 168.4508209228516 196.6207580566406 C 167.693359375 196.6207580566406 167.0999908447266 196.0274047851562 167.0999908447266 195.2699279785156 L 167.0999908447266 185.8795166015625 C 167.0999908447266 185.6309661865234 167.0999908447266 185.4163208007812 168.4923858642578 183.5340118408203 C 169.1183776855469 182.6877593994141 169.7527160644531 181.8766784667969 169.7590484619141 181.8685760498047 L 169.96923828125 181.5999908447266 Z M 171.7468872070312 184.5495147705078 C 171.7324066162109 184.4377746582031 171.6339263916016 184.3481292724609 171.5189819335938 184.3481292724609 C 171.3944396972656 184.3481292724609 171.2892303466797 184.4533386230469 171.2892303466797 184.577880859375 C 171.2892303466797 184.7024230957031 171.3944396972656 184.8076324462891 171.5189819335938 184.8076324462891 C 171.6557159423828 184.8076324462891 171.7266693115234 184.6641235351562 171.7468872070312 184.5495147705078 Z" stroke="none" fill="#0092a0"/>
          </g>
        </g>
        <g id="Group_786" data-name="Group 786" transform="translate(5.362)">
          <g id="Path_563" data-name="Path 563" transform="translate(-173.492 -181.692)" fill="#fff">
            <path d="M 176.1844482421875 196.1089324951172 C 176.1844177246094 196.1089324951172 176.1843872070312 196.1089324951172 176.1843566894531 196.1089324951172 C 175.7901000976562 196.1089019775391 175.45556640625 195.8255920410156 175.3840179443359 195.4333648681641 C 173.6212310791016 187.9607238769531 173.3068084716797 186.6056823730469 173.250732421875 186.3299255371094 L 173.2476654052734 186.3306274414062 C 172.7399597167969 184.1474609375 174.1085815429688 181.9569854736328 176.2985229492188 181.4476776123047 C 176.6006469726562 181.3774108886719 176.9098205566406 181.3417816162109 177.2174835205078 181.3417816162109 C 179.1046600341797 181.3417816162109 180.7529144287109 182.6725769042969 181.1366729736328 184.5061187744141 L 181.1440887451172 184.5415954589844 L 181.1440887451172 184.5424499511719 C 181.2531127929688 185.0381774902344 182.7026062011719 191.1902770996094 183.2700500488281 193.5957946777344 C 183.3381195068359 193.8160400390625 183.3096923828125 194.0536956787109 183.1911163330078 194.2506713867188 C 183.0687255859375 194.4539642333984 182.8647766113281 194.5941619873047 182.6301879882812 194.6367797851562 L 176.4241943359375 196.0724945068359 C 176.3458709716797 196.0966796875 176.2653045654297 196.1089324951172 176.1844482421875 196.1089324951172 Z M 176.8846740722656 183.515380859375 C 176.8463592529297 183.515380859375 176.8083953857422 183.5190887451172 176.7718353271484 183.5263977050781 C 176.5163421630859 183.5774993896484 176.3370056152344 183.8908386230469 176.3955841064453 184.1837768554688 C 176.4459075927734 184.4353179931641 176.7136993408203 184.571044921875 176.9401245117188 184.571044921875 C 176.9728851318359 184.571044921875 177.0053863525391 184.5683288574219 177.0369567871094 184.5629730224609 C 177.2977142333984 184.4772033691406 177.5219268798828 184.2170257568359 177.4371948242188 183.9345703125 L 177.4324645996094 183.9188079833984 L 177.4292297363281 183.9026641845703 C 177.3789215087891 183.6511077880859 177.1110992431641 183.515380859375 176.8846740722656 183.515380859375 Z" stroke="none"/>
            <path d="M 177.2174835205078 181.6917877197266 C 176.9404296875 181.6917572021484 176.6592712402344 181.7231140136719 176.3778076171875 181.78857421875 C 174.3788452148438 182.2534637451172 173.1237030029297 184.2524108886719 173.5885620117188 186.2513580322266 C 173.5885620117188 186.2978515625 175.7269897460938 195.3628540039062 175.7269897460938 195.3628540039062 C 175.7734680175781 195.6417846679688 176.0523223876953 195.8277282714844 176.3313140869141 195.7347412109375 L 182.5606079101562 194.2936401367188 C 182.8395385742188 194.2471466064453 183.0254821777344 193.9682312011719 182.9324951171875 193.6893005371094 C 182.9324951171875 193.6893005371094 180.7940979003906 184.6242980957031 180.7940979003906 184.5778198242188 C 180.4346313476562 182.8603363037109 178.9080352783203 181.6919250488281 177.2174835205078 181.6917877197266 M 176.9401245117188 184.9210357666016 C 176.5315856933594 184.9210357666016 176.1333618164062 184.6572418212891 176.0523834228516 184.2524108886719 C 175.9594116210938 183.7875518798828 176.2383422851562 183.2761840820312 176.7032012939453 183.1831970214844 C 177.1681365966797 183.0902557373047 177.679443359375 183.369140625 177.7724304199219 183.8340148925781 C 177.9118804931641 184.2988891601562 177.5864715576172 184.7637634277344 177.1216125488281 184.9032287597656 C 177.0615692138672 184.9152374267578 177.0007171630859 184.9210357666016 176.9401245117188 184.9210357666016 M 177.2172241210938 180.9917907714844 L 177.2172241210938 181.6917877197266 L 177.217529296875 180.9917907714844 C 179.2694702148438 180.9919586181641 181.061767578125 182.4397888183594 181.479248046875 184.4344177246094 L 181.4892883300781 184.4824066162109 C 181.6060638427734 185.0066986083984 182.8034210205078 190.0932006835938 183.6081695556641 193.5047302246094 C 183.7008819580078 193.8167266845703 183.6588745117188 194.1522674560547 183.490966796875 194.4311828613281 C 183.3181610107422 194.7182159423828 183.0316314697266 194.9169006347656 182.7018432617188 194.9794616699219 L 176.5142059326172 196.4109191894531 C 176.4065399169922 196.4427947998047 176.2957763671875 196.4589385986328 176.1843872070312 196.4589385986328 C 175.6233062744141 196.4589385986328 175.1470336914062 196.0597686767578 175.0414733886719 195.5057067871094 C 174.9904022216797 195.2892150878906 174.4833984375 193.1396636962891 173.9763793945312 190.9848785400391 C 173.1817626953125 187.6077575683594 172.9675903320312 186.6975250244141 172.9098663330078 186.4091949462891 L 172.9067535400391 186.409912109375 C 172.3553466796875 184.0387725830078 173.84130859375 181.6597900390625 176.21923828125 181.1067810058594 C 176.5473175048828 181.0304718017578 176.8830871582031 180.9917907714844 177.2172241210938 180.9917907714844 Z M 176.9537048339844 184.2206573486328 C 177.0539703369141 184.1776580810547 177.1179809570312 184.0885772705078 177.1019592285156 184.0351409912109 L 177.0924987792969 184.0036010742188 L 177.0860290527344 183.9713287353516 C 177.0774993896484 183.9286651611328 176.9891815185547 183.8653869628906 176.8846740722656 183.8653869628906 C 176.8693389892578 183.8653869628906 176.8544921875 183.8668060302734 176.8404998779297 183.8695983886719 C 176.7859497070312 183.8805084228516 176.7164611816406 184.0034790039062 176.7388000488281 184.1151275634766 C 176.747314453125 184.1577606201172 176.8356323242188 184.2210388183594 176.9401245117188 184.2210388183594 C 176.9446868896484 184.2210388183594 176.94921875 184.2209167480469 176.9537048339844 184.2206573486328 Z" stroke="none" fill="#0092a0"/>
          </g>
        </g>
      </g>
    </g>
  </g>
</svg>
