<svg xmlns="http://www.w3.org/2000/svg" width="24.046" height="23.847" viewBox="0 0 24.046 23.847">
  <g id="price" transform="translate(-158.756 -172.918)">
    <g id="OBJECTS" transform="translate(159.256 173.618)">
      <g id="Group_787" data-name="Group 787" transform="translate(0 0)">
        <g id="Group_784" data-name="Group 784" transform="translate(0 0)">
          <g id="Path_559" data-name="Path 559" transform="translate(-158.256 -180.428)" fill="#0092a0">
            <path d="M 168.5665283203125 203.3245849609375 C 168.5664978027344 203.3245849609375 168.5664825439453 203.3245849609375 168.5664367675781 203.3245849609375 C 168.4650726318359 203.3245849609375 168.3619842529297 203.3118591308594 168.2599792480469 203.2867584228516 L 159.0241851806641 201.3537139892578 L 159.0194702148438 201.3527221679688 L 159.0147857666016 201.3515472412109 C 158.6725463867188 201.2659912109375 158.3849029541016 201.0701141357422 158.2048187255859 200.7999877929688 C 158.0171356201172 200.5184631347656 157.9599761962891 200.1762542724609 158.0436859130859 199.8358154296875 L 161.9803314208984 181.0113830566406 C 162.0175628662109 180.7142639160156 162.0912933349609 180.1778717041016 162.6763610839844 180.1778717041016 C 162.7863006591797 180.1778717041016 162.9117584228516 180.1962890625 163.0708312988281 180.2358093261719 L 172.9514312744141 182.3121643066406 L 172.9560546875 182.3131408691406 L 172.9606475830078 182.3142852783203 C 173.6473999023438 182.4859619140625 173.8108673095703 182.7295379638672 173.7211151123047 183.4473876953125 L 173.7198486328125 183.4575347900391 L 173.7177581787109 183.4675445556641 L 169.7780914306641 202.3062438964844 L 169.7770843505859 202.3109893798828 L 169.7759246826172 202.3157043457031 C 169.6250610351562 202.9191589355469 169.1390380859375 203.3245849609375 168.5665283203125 203.3245849609375 Z M 167.2505035400391 183.8539581298828 C 166.7727966308594 183.8539581298828 166.2332305908203 184.1618957519531 166.1262359619141 184.7504272460938 C 166.0634307861328 185.0646362304688 166.1300354003906 185.3927154541016 166.3081359863281 185.6548614501953 C 166.4236602783203 185.8249053955078 166.6373748779297 186.0414123535156 166.9994506835938 186.1072387695312 C 167.0741577148438 186.1208190917969 167.1497802734375 186.1277160644531 167.2242431640625 186.1277160644531 C 167.7765808105469 186.1277160644531 168.2530059814453 185.7500610351562 168.3570556640625 185.229736328125 C 168.4190368652344 184.9198150634766 168.3524322509766 184.5917358398438 168.17431640625 184.3295745849609 C 168.0588073730469 184.1595458984375 167.8450927734375 183.9430541992188 167.4830322265625 183.8772277832031 C 167.4042663574219 183.8615112304688 167.3274688720703 183.8539581298828 167.2505035400391 183.8539581298828 Z" stroke="none"/>
            <path d="M 162.6763610839844 180.4278717041016 C 162.3783264160156 180.4278411865234 162.2818603515625 180.6147918701172 162.2271270751953 181.0525817871094 L 158.2874908447266 199.8912963867188 C 158.1442260742188 200.4643249511719 158.5023803710938 200.9657592773438 159.0754089355469 201.1090087890625 L 168.315673828125 203.0429992675781 C 168.8888092041016 203.1863555908203 169.3901519775391 202.828125 169.5333862304688 202.2550659179688 L 173.4730529785156 183.4163665771484 C 173.5446929931641 182.8433380126953 173.4730529785156 182.7000732421875 172.9000244140625 182.5568237304688 L 163.0150604248047 180.4795532226562 C 162.8798065185547 180.4457397460938 162.7684326171875 180.4278869628906 162.6763610839844 180.4278717041016 M 167.2242279052734 186.3777160644531 C 167.1358337402344 186.3777160644531 167.0458221435547 186.3697662353516 166.9547271728516 186.3532104492188 C 166.1667785644531 186.2099456787109 165.7369995117188 185.4219970703125 165.8802642822266 184.7057037353516 C 166.0234985351562 183.9177703857422 166.8113708496094 183.4878997802734 167.5277557373047 183.6312561035156 C 168.3156890869141 183.7745208740234 168.7454528808594 184.5624389648438 168.6022033691406 185.2787628173828 C 168.4755096435547 185.9122467041016 167.9004974365234 186.3777160644531 167.2242279052734 186.3777160644531 M 162.6762847900391 179.9278717041016 L 162.6763458251953 179.9278717041016 C 162.80615234375 179.9278869628906 162.9494781494141 179.9483032226562 163.1266937255859 179.9920959472656 L 173.0212860107422 182.0717468261719 C 173.3192596435547 182.146240234375 173.6535186767578 182.2511596679688 173.848876953125 182.5550537109375 C 174.031005859375 182.8383636474609 174.0081787109375 183.1665344238281 173.9691925048828 183.4783935546875 L 173.9624633789062 183.5187225341797 L 170.0184478759766 202.3763275146484 C 169.8392791748047 203.0930480957031 169.2557678222656 203.5745849609375 168.5664672851562 203.5745849609375 C 168.4465179443359 203.5745849609375 168.3249206542969 203.559814453125 168.204833984375 203.5306396484375 L 158.9541473388672 201.5940856933594 C 158.5514526367188 201.493408203125 158.2114562988281 201.2606506347656 157.9968109130859 200.9386749267578 C 157.7705078125 200.5991973876953 157.7007293701172 200.1882019042969 157.7999114990234 199.7802124023438 L 161.7335510253906 180.9701995849609 C 161.7720489501953 180.66552734375 161.8821563720703 179.9278717041016 162.6762847900391 179.9278717041016 Z M 167.2242279052734 185.8777160644531 C 167.6578216552734 185.8777160644531 168.0311431884766 185.5845794677734 168.1119079589844 185.1807098388672 C 168.1600952148438 184.9397277832031 168.1061248779297 184.674072265625 167.967529296875 184.4700775146484 C 167.8788909912109 184.3396148681641 167.7151184082031 184.1735229492188 167.4383087158203 184.1231842041016 L 167.4297180175781 184.1215362548828 C 167.371337890625 184.1098785400391 167.31103515625 184.1039581298828 167.2505187988281 184.1039581298828 C 166.8764953613281 184.1039581298828 166.4546966552734 184.3413696289062 166.3722076416016 184.7951354980469 L 166.3705444335938 184.8037567138672 C 166.3223571777344 185.0447235107422 166.3763275146484 185.3103637695312 166.5149230957031 185.5143585205078 C 166.6035766601562 185.6448364257812 166.7673492431641 185.8109436035156 167.044189453125 185.8612823486328 C 167.1041564941406 185.8721771240234 167.1647338867188 185.8777160644531 167.2242279052734 185.8777160644531 Z" stroke="none" fill="#f8f8f8"/>
          </g>
        </g>
        <g id="Group_785" data-name="Group 785" transform="translate(5.511 0.344)">
          <g id="Path_561" data-name="Path 561" transform="translate(-167.8 -182.3)" fill="#0092a0">
            <path d="M 178.2579803466797 203.6376190185547 L 168.8028259277344 203.6376190185547 C 168.0315856933594 203.6376190185547 167.4499969482422 203.0560302734375 167.4499969482422 202.2847747802734 L 167.4499969482422 187.8155059814453 C 167.4499969482422 187.6383972167969 167.4499969482422 187.3419799804688 169.45263671875 184.6347198486328 C 170.411376953125 183.3386383056641 171.3827056884766 182.0966796875 171.3923950195312 182.0842895507812 L 171.4974975585938 181.9499969482422 L 171.6680297851562 181.9499969482422 L 175.3927764892578 181.9499969482422 L 175.5633087158203 181.9499969482422 L 175.6684112548828 182.0842895507812 C 175.6781158447266 182.0966796875 176.6494445800781 183.3386383056641 177.6081848144531 184.6347198486328 C 179.6108245849609 187.3419799804688 179.6108245849609 187.6383972167969 179.6108245849609 187.8155059814453 L 179.6108245849609 202.2847747802734 C 179.6108245849609 203.0560302734375 179.0292358398438 203.6376190185547 178.2579803466797 203.6376190185547 Z M 173.5304107666016 184.7272796630859 C 172.9334716796875 184.7272796630859 172.4478149414062 185.2129211425781 172.4478149414062 185.8098754882812 C 172.4478149414062 186.4068298339844 172.9334716796875 186.8924865722656 173.5304107666016 186.8924865722656 C 174.1693572998047 186.8924865722656 174.5565795898438 186.3426971435547 174.6128845214844 185.7942199707031 C 174.6044616699219 185.2044830322266 174.1221008300781 184.7272796630859 173.5304107666016 184.7272796630859 Z" stroke="none"/>
            <path d="M 171.6680297851562 182.2999877929688 C 171.6680297851562 182.2999877929688 167.8000030517578 187.2424774169922 167.8000030517578 187.8155059814453 L 167.8000030517578 202.2847747802734 C 167.8000030517578 202.8578338623047 168.2297821044922 203.2876129150391 168.8028259277344 203.2876129150391 L 178.2579803466797 203.2876129150391 C 178.8310394287109 203.2876129150391 179.2608184814453 202.8578338623047 179.2608184814453 202.2847747802734 L 179.2608184814453 187.8155059814453 C 179.2608184814453 187.2424774169922 175.3927764892578 182.2999877929688 175.3927764892578 182.2999877929688 L 171.6680297851562 182.2999877929688 M 173.5304107666016 187.2424774169922 C 172.7424926757812 187.2424774169922 172.0978240966797 186.5978088378906 172.0978240966797 185.8098754882812 C 172.0978240966797 185.0219268798828 172.7424926757812 184.3772735595703 173.5304107666016 184.3772735595703 C 174.3183441162109 184.3772735595703 174.9629974365234 185.0219268798828 174.9629974365234 185.8098754882812 C 174.8913726806641 186.5978088378906 174.3183288574219 187.2424774169922 173.5304107666016 187.2424774169922 M 171.3269653320312 181.5999755859375 L 175.7338409423828 181.5999755859375 L 175.9440307617188 181.8685607910156 C 175.9537658691406 181.8809967041016 176.9280242919922 183.126708984375 177.8895568847656 184.4265594482422 C 179.9608154296875 187.2265930175781 179.9608154296875 187.5394592285156 179.9608154296875 187.8155059814453 L 179.9608154296875 202.2847747802734 C 179.9608154296875 203.2396392822266 179.2128448486328 203.9876098632812 178.2579803466797 203.9876098632812 L 168.8028259277344 203.9876098632812 C 167.8479766845703 203.9876098632812 167.1000061035156 203.2396392822266 167.1000061035156 202.2847747802734 L 167.1000061035156 187.8155059814453 C 167.1000061035156 187.5394592285156 167.1000061035156 187.2265930175781 169.1712493896484 184.4265594482422 C 170.1327972412109 183.126708984375 171.1070556640625 181.8809967041016 171.1167755126953 181.8685607910156 L 171.3269653320312 181.5999755859375 Z M 174.2623748779297 185.7792816162109 C 174.2462615966797 185.3894653320312 173.9241027832031 185.0772705078125 173.5304107666016 185.0772705078125 C 173.12646484375 185.0772705078125 172.7978210449219 185.4059143066406 172.7978210449219 185.8098754882812 C 172.7978210449219 186.2138366699219 173.12646484375 186.5424652099609 173.5304107666016 186.5424652099609 C 173.9537048339844 186.5424652099609 174.2151794433594 186.1638488769531 174.2623748779297 185.7792816162109 Z" stroke="none" fill="#f8f8f8"/>
          </g>
        </g>
        <g id="Group_786" data-name="Group 786" transform="translate(8.262)">
          <g id="Path_563" data-name="Path 563" transform="translate(-173.492 -181.692)" fill="#0092a0">
            <path d="M 177.6407470703125 203.7172088623047 C 177.6407165527344 203.7172088623047 177.6407012939453 203.7172088623047 177.6406555175781 203.7172088623047 C 177.1235809326172 203.7171630859375 176.6848907470703 203.3435516357422 176.5928192138672 202.8269348144531 C 173.8049468994141 191.0087280273438 173.3709564208984 189.1282501220703 173.3033905029297 188.7959136962891 L 173.3000335693359 188.7967071533203 C 172.5413665771484 185.534423828125 174.5867004394531 182.2611541748047 177.8594360351562 181.5000305175781 C 178.3109283447266 181.3950347900391 178.7729187011719 181.341796875 179.2325592041016 181.341796875 C 180.5850219726562 181.341796875 181.9140930175781 181.8059844970703 182.9749298095703 182.6488342285156 C 184.0545654296875 183.5066223144531 184.8043518066406 184.7205657958984 185.0861663818359 186.0670471191406 L 185.0935974121094 186.1025085449219 L 185.0935974121094 186.1046295166016 C 185.2204437255859 186.6936187744141 187.2812042236328 195.4431915283203 188.3759460449219 200.0840148925781 C 188.4672698974609 200.37353515625 188.4307708740234 200.6865844726562 188.2748413085938 200.9455718994141 C 188.1136322021484 201.2133331298828 187.8443603515625 201.3976440429688 187.53466796875 201.4526672363281 L 177.9605407714844 203.6675567626953 C 177.8560028076172 203.7005157470703 177.7485046386719 203.7172088623047 177.6407470703125 203.7172088623047 Z M 178.7197265625 184.3123931884766 C 178.6482543945312 184.3123931884766 178.5772705078125 184.3193359375 178.5087585449219 184.3330383300781 C 178.2675476074219 184.3812866210938 178.0577697753906 184.5386505126953 177.9180603027344 184.7761535644531 C 177.7776489257812 185.0148620605469 177.7275238037109 185.3037261962891 177.780517578125 185.5686950683594 C 177.8659057617188 185.9956359863281 178.3064270019531 186.3175964355469 178.80517578125 186.3175964355469 C 178.8710784912109 186.3175964355469 178.9365539550781 186.3116912841797 179.0000762939453 186.3000335693359 C 179.4927062988281 186.1444244384766 179.9174346923828 185.6433868408203 179.7523956298828 185.0932159423828 L 179.7476654052734 185.0774536132812 L 179.7444305419922 185.0612945556641 C 179.6590270996094 184.6343536376953 179.218505859375 184.3123931884766 178.7197265625 184.3123931884766 Z" stroke="none"/>
            <path d="M 179.2325592041016 181.6917877197266 C 178.8056640625 181.6917572021484 178.3724212646484 181.7400665283203 177.938720703125 181.8409271240234 C 174.8586273193359 182.5572509765625 172.9246368408203 185.6373291015625 173.6409301757812 188.7174224853516 C 173.6409301757812 188.7890472412109 176.9359130859375 202.7569122314453 176.9359130859375 202.7569122314453 C 177.0075531005859 203.1866912841797 177.4372863769531 203.4732055664062 177.8670959472656 203.3299407958984 L 187.4655303955078 201.1094207763672 C 187.8953094482422 201.0377655029297 188.1818237304688 200.6079864501953 188.0385589599609 200.1782073974609 C 188.0385589599609 200.1782073974609 184.7435913085938 186.2103729248047 184.7435913085938 186.1387481689453 C 184.189697265625 183.4923553466797 181.8374633789062 181.6920013427734 179.2325592041016 181.6917877197266 M 178.8051910400391 186.6676025390625 C 178.1756744384766 186.6676025390625 177.5620727539062 186.2611236572266 177.4373168945312 185.6373443603516 C 177.2940521240234 184.9210510253906 177.7238311767578 184.1331024169922 178.4401245117188 183.9898376464844 C 179.1565704345703 183.8466491699219 179.9443664550781 184.2763977050781 180.0876312255859 184.9926452636719 C 180.3025207519531 185.7089691162109 179.8011016845703 186.4252624511719 179.0848236083984 186.6401519775391 C 178.9923095703125 186.6586456298828 178.8985443115234 186.6676025390625 178.8051910400391 186.6676025390625 M 179.2321624755859 180.9917907714844 L 179.2321624755859 181.6917877197266 L 179.2322998046875 180.9917907714844 C 180.6638336181641 180.9919128417969 182.0702056884766 181.4830932617188 183.1926574707031 182.3748626708984 C 184.3361053466797 183.2833404541016 185.1302337646484 184.5691223144531 185.4287414550781 185.9953460693359 L 185.4435882568359 186.0666351318359 C 185.6361694335938 186.933837890625 187.8453216552734 196.3101196289062 188.7138366699219 199.9919128417969 C 188.8301696777344 200.37353515625 188.7801513671875 200.7848510742188 188.5746917724609 201.1260986328125 C 188.3629455566406 201.4777984619141 188.0107574462891 201.7206878662109 187.6055908203125 201.7955017089844 L 178.0518035888672 204.0056915283203 C 177.9175872802734 204.0465240478516 177.7794647216797 204.0672149658203 177.6406860351562 204.0672149658203 C 176.9565582275391 204.0672149658203 176.3759460449219 203.5774078369141 176.2501220703125 202.8985900878906 C 176.1839141845703 202.6179046630859 175.3954772949219 199.2752380371094 174.6070251464844 195.9243469238281 C 173.3326416015625 190.5082092285156 173.0330352783203 189.2293090820312 172.9625854492188 188.8751678466797 L 172.9591217041016 188.8759765625 C 172.15673828125 185.4257354736328 174.3194580078125 181.9639587402344 177.7801666259766 181.1591339111328 C 178.2576141357422 181.048095703125 178.7461395263672 180.9917907714844 179.2321624755859 180.9917907714844 Z M 178.9156188964844 185.9593505859375 C 179.2413787841797 185.8466491699219 179.5153503417969 185.5211029052734 179.4171600341797 185.1937866210938 L 179.4076995849609 185.1622467041016 L 179.4012298583984 185.1299438476562 C 179.3426971435547 184.8372802734375 179.0087585449219 184.6623840332031 178.7197265625 184.6623840332031 C 178.6712646484375 184.6623840332031 178.6233673095703 184.6670532226562 178.577392578125 184.6762542724609 C 178.3856048583984 184.7146148681641 178.27099609375 184.8664855957031 178.2197418212891 184.95361328125 C 178.1238098144531 185.1167144775391 178.0879058837891 185.3209838867188 178.1237182617188 185.5000610351562 C 178.1822509765625 185.7927093505859 178.5161743164062 185.9676055908203 178.80517578125 185.9676055908203 C 178.8425445556641 185.9676055908203 178.8795623779297 185.9648284912109 178.9156188964844 185.9593505859375 Z" stroke="none" fill="#f8f8f8"/>
          </g>
        </g>
      </g>
    </g>
  </g>
</svg>
