<svg xmlns="http://www.w3.org/2000/svg" width="18.435" height="18.284" viewBox="0 0 18.435 18.284">
  <g id="pricebl" transform="translate(-158.756 -172.918)">
    <g id="OBJECTS" transform="translate(158.256 163.977)">
      <g id="Group_787" data-name="Group 787">
        <g id="Group_784" data-name="Group 784" transform="translate(1 0.81)">
          <g id="Path_559" data-name="Path 559" transform="translate(-158.256 -171.596)" fill="#333">
            <path d="M 166.0340118408203 197.7621154785156 C 166.0339813232422 197.7621154785156 166.0339813232422 197.7621154785156 166.0339508056641 197.7621154785156 C 165.9529113769531 197.7621002197266 165.8705902099609 197.7519989013672 165.7891845703125 197.7320709228516 L 158.8228912353516 196.2739868164062 L 158.8181762695312 196.2730102539062 L 158.8134765625 196.2718353271484 C 158.5404663085938 196.2035827636719 158.3106079101562 196.0467529296875 158.1662750244141 195.8302459716797 C 158.0151824951172 195.6035919189453 157.9689636230469 195.3285064697266 158.0359344482422 195.0550537109375 L 161.0049133300781 180.8579406738281 C 161.0315246582031 180.6461334228516 161.0980224609375 180.1778717041016 161.5906066894531 180.1778717041016 C 161.6784057617188 180.1778717041016 161.7774047851562 180.1922454833984 161.9018402099609 180.2230987548828 L 169.3545379638672 181.7892456054688 L 169.3591766357422 181.7902221679688 L 169.3637542724609 181.7913665771484 C 169.9099578857422 181.9279022216797 170.0547485351562 182.143310546875 169.9834747314453 182.7133483886719 L 169.9822082519531 182.7234802246094 L 169.9801177978516 182.7334899902344 L 167.0081176757812 196.9450378417969 L 167.0071258544922 196.9497985839844 L 167.0059356689453 196.9545135498047 C 166.8851776123047 197.4375610351562 166.4945831298828 197.7621154785156 166.0340118408203 197.7621154785156 Z M 165.0412445068359 183.0738372802734 C 164.7063446044922 183.0738372802734 164.3282318115234 183.288818359375 164.2535400390625 183.69970703125 C 164.2091674804688 183.9217376708984 164.2559661865234 184.1522674560547 164.3811340332031 184.3364868164062 C 164.4616851806641 184.4550476074219 164.6106262207031 184.6060028076172 164.8628234863281 184.65185546875 C 164.9155731201172 184.6614379882812 164.9689331054688 184.6663055419922 165.0214233398438 184.6663055419922 C 165.408935546875 184.6663055419922 165.7430267333984 184.4021759033203 165.8157958984375 184.0382690429688 C 165.8593444824219 183.8205108642578 165.8125305175781 183.5899810791016 165.6873779296875 183.40576171875 C 165.6068267822266 183.2872009277344 165.4578704833984 183.1362609863281 165.2056732177734 183.0904083251953 C 165.1491546630859 183.0791320800781 165.0952758789062 183.0738372802734 165.0412445068359 183.0738372802734 Z" stroke="none"/>
            <path d="M 161.5906066894531 180.4278717041016 C 161.3657684326172 180.4278411865234 161.2929992675781 180.5688781738281 161.251708984375 180.8991394042969 L 158.2797241210938 195.1106872558594 C 158.1716461181641 195.54296875 158.4418334960938 195.9212341308594 158.8741149902344 196.029296875 L 165.8447875976562 197.48828125 C 166.2771453857422 197.5964813232422 166.6553344726562 197.326171875 166.7634124755859 196.8938751220703 L 169.7354125976562 182.6823272705078 C 169.7894592285156 182.2500457763672 169.7354125976562 182.1419677734375 169.3031311035156 182.0339050292969 L 161.8461151123047 180.4668579101562 C 161.7440795898438 180.4413452148438 161.6600646972656 180.4278717041016 161.5906066894531 180.4278717041016 M 165.0214385986328 184.9163055419922 C 164.9547424316406 184.9163055419922 164.8868255615234 184.9103240966797 164.818115234375 184.8978271484375 C 164.2237091064453 184.7897491455078 163.8994903564453 184.1953430175781 164.007568359375 183.6549835205078 C 164.1156311035156 183.060546875 164.7099761962891 182.7363128662109 165.2503967285156 182.8444366455078 C 165.8448028564453 182.9525146484375 166.1690063476562 183.5469055175781 166.0609436035156 184.0872802734375 C 165.9653778076172 184.565185546875 165.5316009521484 184.9163055419922 165.0214385986328 184.9163055419922 M 161.5905456542969 179.9278717041016 L 161.5906219482422 179.9278717041016 C 161.6982116699219 179.9278869628906 161.8151092529297 179.9442749023438 161.9578247070312 179.9794158935547 L 169.4243927001953 181.548828125 C 170.1942749023438 181.7412872314453 170.3038635253906 182.1659393310547 170.2315521240234 182.7443542480469 L 170.2248229980469 182.78466796875 L 167.2484741210938 197.0151519775391 C 167.0993957519531 197.6114654541016 166.6113128662109 198.0121154785156 166.0339660644531 198.0121154785156 C 165.9344177246094 198.0121154785156 165.8336181640625 197.9999542236328 165.7341918945312 197.9759674072266 L 158.7528533935547 196.5143585205078 C 158.4193572998047 196.4309997558594 158.1371765136719 196.2372894287109 157.9582672119141 195.9689178466797 C 157.7686157226562 195.6844635009766 157.7097625732422 195.3407592773438 157.7920684814453 194.9998931884766 L 160.7582397460938 180.816162109375 C 160.7818908691406 180.6353302001953 160.8230133056641 180.4308319091797 160.9373779296875 180.2607269287109 C 161.0209350585938 180.1364135742188 161.2169189453125 179.9278717041016 161.5905456542969 179.9278717041016 Z M 165.0214233398438 184.4163055419922 C 165.2901763916016 184.4163055419922 165.5211639404297 184.2366943359375 165.5706481933594 183.9892272949219 C 165.6006774902344 183.8390655517578 165.5670166015625 183.6734619140625 165.4805755615234 183.5462493896484 C 165.4269104003906 183.4672546386719 165.3278961181641 183.3667297363281 165.1609497070312 183.3363647460938 L 165.1523132324219 183.334716796875 C 165.1162414550781 183.3274993896484 165.0788726806641 183.3238372802734 165.0412445068359 183.3238372802734 C 164.8100280761719 183.3238372802734 164.5496978759766 183.4683074951172 164.49951171875 183.7444152832031 L 164.4978637695312 183.7530517578125 C 164.4678344726562 183.9031982421875 164.5014953613281 184.0687866210938 164.5879211425781 184.1959991455078 C 164.6415863037109 184.2749938964844 164.7406158447266 184.3755340576172 164.9075622558594 184.4058990478516 C 164.945556640625 184.4127960205078 164.98388671875 184.4163055419922 165.0214233398438 184.4163055419922 Z" stroke="none" fill="#f8f8f8"/>
          </g>
        </g>
        <g id="Group_785" data-name="Group 785" transform="translate(5.157 0.013)">
          <g id="Path_561" data-name="Path 561" transform="translate(-167.8 -172.411)" fill="#333">
            <path d="M 175.6892852783203 198.4826354980469 L 168.5565032958984 198.4826354980469 C 167.9360198974609 198.4826354980469 167.4499816894531 197.99658203125 167.4499816894531 197.3761138916016 L 167.4499816894531 186.4607849121094 C 167.4499816894531 186.2980651855469 167.4499816894531 186.0752258300781 168.9775848388672 184.0101318359375 C 169.7015380859375 183.0314636230469 170.4349975585938 182.0936431884766 170.4423217773438 182.0842742919922 L 170.5474243164062 181.9499816894531 L 170.7179565429688 181.9499816894531 L 173.52783203125 181.9499816894531 L 173.6983642578125 181.9499816894531 L 173.803466796875 182.0842742919922 C 173.810791015625 182.0936431884766 174.5442504882812 183.0314636230469 175.2682037353516 184.0101318359375 C 176.7958068847656 186.0752258300781 176.7958068847656 186.2980651855469 176.7958068847656 186.4607849121094 L 176.7958068847656 197.3761138916016 C 176.7958068847656 197.99658203125 176.3097686767578 198.4826354980469 175.6892852783203 198.4826354980469 Z M 172.1228942871094 184.217041015625 C 171.719970703125 184.217041015625 171.3921813964844 184.5448455810547 171.3921813964844 184.9477691650391 C 171.3921813964844 185.3506927490234 171.719970703125 185.6784973144531 172.1228942871094 185.6784973144531 C 172.5518951416016 185.6784973144531 172.8131408691406 185.3057708740234 172.8534545898438 184.9322204589844 C 172.8451538085938 184.5364379882812 172.5206298828125 184.217041015625 172.1228942871094 184.217041015625 Z" stroke="none"/>
            <path d="M 170.7179565429688 182.2999877929688 C 170.7179565429688 182.2999877929688 167.7999877929688 186.0285034179688 167.7999877929688 186.4607849121094 L 167.7999877929688 197.3761138916016 C 167.7999877929688 197.8084106445312 168.1242065429688 198.1326293945312 168.5565032958984 198.1326293945312 L 175.6892852783203 198.1326293945312 C 176.12158203125 198.1326293945312 176.44580078125 197.8084106445312 176.44580078125 197.3761138916016 L 176.44580078125 186.4607849121094 C 176.44580078125 186.0285034179688 173.52783203125 182.2999877929688 173.52783203125 182.2999877929688 L 170.7179565429688 182.2999877929688 M 172.1228942871094 186.0285034179688 C 171.5285034179688 186.0285034179688 171.0421752929688 185.5421752929688 171.0421752929688 184.9477691650391 C 171.0421752929688 184.3533630371094 171.5285034179688 183.8670501708984 172.1228942871094 183.8670501708984 C 172.7173004150391 183.8670501708984 173.20361328125 184.3533630371094 173.20361328125 184.9477691650391 C 173.1495819091797 185.5421752929688 172.71728515625 186.0285034179688 172.1228942871094 186.0285034179688 M 170.3768920898438 181.5999908447266 L 173.868896484375 181.5999908447266 L 174.0790863037109 181.8685760498047 C 174.0864410400391 181.8779754638672 174.8228454589844 182.8195495605469 175.5495910644531 183.8019866943359 C 177.1457977294922 185.9598388671875 177.1457977294922 186.2031707763672 177.1457977294922 186.4607849121094 L 177.1457977294922 197.3761138916016 C 177.1457977294922 198.1928558349609 176.5060272216797 198.8326263427734 175.6892852783203 198.8326263427734 L 168.5565032958984 198.8326263427734 C 167.7397613525391 198.8326263427734 167.0999908447266 198.1928558349609 167.0999908447266 197.3761138916016 L 167.0999908447266 186.4607849121094 C 167.0999908447266 186.2031707763672 167.0999908447266 185.9598388671875 168.6961975097656 183.8019866943359 C 169.4229431152344 182.8195495605469 170.1593475341797 181.8779754638672 170.1667022705078 181.8685760498047 L 170.3768920898438 181.5999908447266 Z M 172.5024566650391 184.9186553955078 C 172.4869995117188 184.7252655029297 172.3194732666016 184.5670471191406 172.1228942871094 184.5670471191406 C 171.9165191650391 184.5670471191406 171.7421722412109 184.7413940429688 171.7421722412109 184.9477691650391 C 171.7421722412109 185.1541442871094 171.9165191650391 185.3284912109375 172.1228942871094 185.3284912109375 C 172.3461608886719 185.3284912109375 172.4730834960938 185.1221466064453 172.5024566650391 184.9186553955078 Z" stroke="none" fill="#f8f8f8"/>
          </g>
        </g>
        <g id="Group_786" data-name="Group 786" transform="translate(7.233 0.069)">
          <g id="Path_563" data-name="Path 563" transform="translate(-173.492 -172.119)" fill="#333">
            <path d="M 176.6217956542969 198.3932952880859 C 176.6217346191406 198.3932952880859 176.6216735839844 198.3932952880859 176.6216125488281 198.3932952880859 C 176.1904907226562 198.3932495117188 175.8246612548828 198.082763671875 175.7469329833984 197.6531677246094 C 173.6780548095703 188.8828735351562 173.3263702392578 187.3646392822266 173.2665557861328 187.0703277587891 L 173.2633972167969 187.0710601806641 C 172.6803436279297 184.5638885498047 174.2521209716797 182.0482940673828 176.7671813964844 181.4633941650391 C 177.1141510009766 181.3827056884766 177.4692230224609 181.3417816162109 177.822509765625 181.3417816162109 C 179.9893798828125 181.3417816162109 181.8818817138672 182.8696746826172 182.3224945068359 184.9747772216797 L 182.3299102783203 185.0102386474609 L 182.3299102783203 185.0115051269531 C 182.4413909912109 185.5221252441406 183.982666015625 192.0660095214844 184.8030395507812 195.5437164306641 C 184.8781585693359 195.7848052978516 184.8473052978516 196.045166015625 184.7174835205078 196.2608032226562 C 184.5834350585938 196.4834442138672 184.35986328125 196.6368865966797 184.1027374267578 196.6832275390625 L 176.8855895996094 198.3528747558594 C 176.7993927001953 198.3796997070312 176.7107391357422 198.3932952880859 176.6217956542969 198.3932952880859 Z M 177.4356384277344 183.7546844482422 C 177.3873596191406 183.7546844482422 177.3394927978516 183.7593688964844 177.2933502197266 183.7685852050781 C 177.1357116699219 183.8001098632812 176.9977874755859 183.9043731689453 176.9049835205078 184.0621490478516 C 176.8096313476562 184.2242584228516 176.7755279541016 184.4201354980469 176.8114166259766 184.5995788574219 C 176.8679504394531 184.8822631835938 177.1640319824219 185.0954437255859 177.5001220703125 185.0954437255859 C 177.5428161621094 185.0954437255859 177.5851898193359 185.0917816162109 177.6263580322266 185.0845489501953 C 177.9567260742188 184.9777526855469 178.2411499023438 184.645263671875 178.13232421875 184.2824554443359 L 178.1275939941406 184.2666778564453 L 178.1243591308594 184.2505187988281 C 178.0678100585938 183.9678497314453 177.7717437744141 183.7546844482422 177.4356384277344 183.7546844482422 Z" stroke="none"/>
            <path d="M 177.822509765625 181.6917877197266 C 177.5004730224609 181.6917572021484 177.1736450195312 181.7282104492188 176.8464660644531 181.8042907714844 C 174.5229034423828 182.3446655273438 173.0639343261719 184.668212890625 173.6042938232422 186.9917755126953 C 173.6042938232422 187.0458068847656 176.0899658203125 197.5828857421875 176.0899658203125 197.5828857421875 C 176.1440277099609 197.9070892333984 176.4682006835938 198.1232757568359 176.7924346923828 198.0151824951172 L 184.0332946777344 196.3400573730469 C 184.3575134277344 196.2860107421875 184.5736541748047 195.9617919921875 184.465576171875 195.6375732421875 C 184.465576171875 195.6375732421875 181.9799194335938 185.1005096435547 181.9799194335938 185.0464782714844 C 181.5620727539062 183.0500946044922 179.78759765625 181.6919403076172 177.822509765625 181.6917877197266 M 177.5001068115234 185.4454345703125 C 177.0252227783203 185.4454345703125 176.5623321533203 185.1387939453125 176.4682159423828 184.6682281494141 C 176.3601379394531 184.1278686523438 176.6843566894531 183.5334625244141 177.2247161865234 183.4253845214844 C 177.7650146484375 183.3172912597656 178.3594818115234 183.6415252685547 178.4675598144531 184.181884765625 C 178.6296691894531 184.7222595214844 178.2514038085938 185.2626190185547 177.7110595703125 185.4247283935547 C 177.6412658691406 185.4386749267578 177.5705261230469 185.4454345703125 177.5001068115234 185.4454345703125 M 177.8222503662109 180.9917907714844 L 177.8222503662109 181.6917877197266 L 177.8225555419922 180.9917907714844 C 178.9409332275391 180.9918670654297 180.0398406982422 181.3756713867188 180.9168701171875 182.0724792480469 C 181.8108215332031 182.7826995849609 182.4316711425781 183.7879638671875 182.6650695800781 184.9030609130859 L 182.6770935058594 184.9604949951172 C 182.828125 185.6387176513672 184.4875335693359 192.6817169189453 185.14111328125 195.4524536132812 C 185.2409515380859 195.7853698730469 185.196533203125 196.1436767578125 185.017333984375 196.4413299560547 C 184.8328247070312 196.7477874755859 184.5265655517578 196.9597320556641 184.1741638183594 197.0259552001953 L 176.9760437011719 198.6911926269531 C 176.8603515625 198.7257843017578 176.7413330078125 198.7432861328125 176.6216583251953 198.7432861328125 C 176.0236511230469 198.7432861328125 175.5160369873047 198.3168487548828 175.4043579101562 197.725341796875 C 175.3484344482422 197.4882354736328 174.7570953369141 194.9811401367188 174.1657409667969 192.4679107666016 C 173.2275085449219 188.4804382324219 172.9871063232422 187.458740234375 172.9255065917969 187.1496276855469 L 172.9224853515625 187.1503295898438 C 172.2957153320312 184.4551849365234 173.9848785400391 181.7511138916016 176.6879119873047 181.1224822998047 C 177.0608367919922 181.0357666015625 177.4424896240234 180.9917907714844 177.8222503662109 180.9917907714844 Z M 177.5424346923828 184.7431488037109 C 177.6334838867188 184.7082824707031 177.7140350341797 184.6449737548828 177.7621612548828 184.5693359375 C 177.8238830566406 184.4723663330078 177.8037109375 184.4051208496094 177.7970733642578 184.3830261230469 L 177.7876129150391 184.3514709472656 L 177.7811431884766 184.3191680908203 C 177.7579040527344 184.2028961181641 177.5996704101562 184.1046905517578 177.4356384277344 184.1046905517578 C 177.4103393554688 184.1046905517578 177.3855743408203 184.1070709228516 177.3620147705078 184.1117858886719 C 177.2233123779297 184.1395263671875 177.11865234375 184.3510589599609 177.1546173095703 184.5309295654297 C 177.1778717041016 184.6472015380859 177.3360900878906 184.7454376220703 177.5001068115234 184.7454376220703 C 177.5144195556641 184.7454376220703 177.528564453125 184.7446594238281 177.5424346923828 184.7431488037109 Z" stroke="none" fill="#f8f8f8"/>
          </g>
        </g>
      </g>
    </g>
  </g>
</svg>
