<svg id="sharem" xmlns="http://www.w3.org/2000/svg" width="14.5" height="15.466" viewBox="0 0 14.5 15.466">
  <g id="Group_367" data-name="Group 367" transform="translate(0)">
    <path id="Path_392" data-name="Path 392" d="M27.781,10.029a2.709,2.709,0,0,0-2.18,1.11L21.316,8.945a2.565,2.565,0,0,0-.08-1.775l4.484-2.7a2.7,2.7,0,1,0-.658-1.753,2.694,2.694,0,0,0,.189.977L20.754,6.4a2.714,2.714,0,1,0,.171,3.36L25.2,11.95a2.682,2.682,0,0,0-.133.8,2.719,2.719,0,1,0,2.719-2.719Z" transform="translate(-16)" fill="#fff"/>
  </g>
</svg>
