<svg xmlns="http://www.w3.org/2000/svg" width="14.152" height="13.5" viewBox="0 0 14.152 13.5">
  <g id="starm" transform="translate(0 -11.795)">
    <path id="Path_422" data-name="Path 422" d="M14.132,16.921a.414.414,0,0,0-.335-.282L9.41,16,7.448,12.026a.415.415,0,0,0-.744,0L4.742,16l-4.387.638a.415.415,0,0,0-.23.707L3.3,20.441,2.551,24.81a.415.415,0,0,0,.6.437l3.924-2.063L11,25.247a.415.415,0,0,0,.6-.437l-.75-4.369,3.175-3.095A.414.414,0,0,0,14.132,16.921Z" transform="translate(0)" fill="#fcbf29"/>
    <path id="Path_423" data-name="Path 423" d="M263.057,16.921a.414.414,0,0,0-.335-.282L258.335,16l-1.962-3.975A.415.415,0,0,0,256,11.8V23.184l3.924,2.063a.415.415,0,0,0,.6-.437l-.75-4.37,3.175-3.095A.415.415,0,0,0,263.057,16.921Z" transform="translate(-248.925)" fill="#fcbf29"/>
  </g>
</svg>
