<svg xmlns="http://www.w3.org/2000/svg" width="57" height="48" viewBox="0 0 57 48">
  <g id="thecall" transform="translate(-947.25 -810.837)">
    <g id="thecall-2" data-name="thecall">
      <g id="Rectangle_2527" data-name="Rectangle 2527" transform="translate(947.25 810.837)" fill="#f3f3f3" stroke="#707070" stroke-width="0.7">
        <path d="M0,0H52a5,5,0,0,1,5,5V43a5,5,0,0,1-5,5H0a0,0,0,0,1,0,0V0A0,0,0,0,1,0,0Z" stroke="none"/>
        <path d="M.35.35H52A4.65,4.65,0,0,1,56.65,5V43A4.65,4.65,0,0,1,52,47.65H.35a0,0,0,0,1,0,0V.35A0,0,0,0,1,.35.35Z" fill="none"/>
      </g>
    </g>
    <g id="Phone" transform="translate(968.036 827.623)">
      <rect id="Rectangle_320" data-name="Rectangle 320" width="14.1" height="14.1" transform="translate(0.328)" fill="none"/>
      <path id="Path_110" data-name="Path 110" d="M8.374,10.306,9.919,8.889a.473.473,0,0,1,.386-.129l.258.129,3.607,1.675c.258.129.258.258.258.515A3.266,3.266,0,0,1,13.4,13.4a3.69,3.69,0,0,1-2.705,1.031,7.849,7.849,0,0,1-3.607-.9A16.888,16.888,0,0,1,3.478,10.95,21.942,21.942,0,0,1,1.546,8.116,17.807,17.807,0,0,1,.258,5.282,7.928,7.928,0,0,1,0,2.834,3.385,3.385,0,0,1,.9.9,3.918,3.918,0,0,1,3.349,0a.669.669,0,0,1,.515.258L5.8,3.865a.45.45,0,0,0,.129.258.473.473,0,0,1-.129.386L4.122,6.055a.575.575,0,0,0,0,.644A12.3,12.3,0,0,0,5.668,8.76a13.007,13.007,0,0,0,2.061,1.675C7.987,10.564,8.245,10.564,8.374,10.306Z" transform="translate(0 0)" fill="#0092a0"/>
    </g>
  </g>
</svg>
