<svg id="timew" xmlns="http://www.w3.org/2000/svg" width="9" height="9" viewBox="0 0 9 9">
  <g id="timew-2" data-name="timew">
    <g id="Group_96" data-name="Group 96">
      <path id="Path_159" data-name="Path 159" d="M4.5,0A4.5,4.5,0,1,0,9,4.5,4.5,4.5,0,0,0,4.5,0Zm0,8.357A3.857,3.857,0,1,1,8.357,4.5,3.857,3.857,0,0,1,4.5,8.357Z" fill="#f0f0f0"/>
    </g>
  </g>
  <g id="Group_99" data-name="Group 99" transform="translate(1.607 1.607)">
    <g id="Group_98" data-name="Group 98">
      <path id="Path_160" data-name="Path 160" d="M88.226,85.333a.321.321,0,0,0-.321.321V87.9h-2.25a.321.321,0,1,0,0,.643h2.571a.321.321,0,0,0,.321-.321V85.654A.321.321,0,0,0,88.226,85.333Z" transform="translate(-85.333 -85.333)" fill="#f0f0f0"/>
    </g>
  </g>
</svg>
