<svg id="timegr" xmlns="http://www.w3.org/2000/svg" width="20.282" height="20.282" viewBox="0 0 20.282 20.282">
  <g id="Group_97" data-name="Group 97">
    <g id="Group_96" data-name="Group 96">
      <path id="Path_159" data-name="Path 159" d="M10.141,0A10.141,10.141,0,1,0,20.282,10.141,10.141,10.141,0,0,0,10.141,0Zm0,18.834a8.692,8.692,0,1,1,8.692-8.692A8.692,8.692,0,0,1,10.141,18.834Z" fill="#0092a0"/>
    </g>
  </g>
  <g id="Group_99" data-name="Group 99" transform="translate(3.622 3.622)">
    <g id="Group_98" data-name="Group 98">
      <path id="Path_160" data-name="Path 160" d="M91.852,85.333a.724.724,0,0,0-.724.724v5.071H86.057a.724.724,0,1,0,0,1.449h5.795a.724.724,0,0,0,.724-.724V86.057A.724.724,0,0,0,91.852,85.333Z" transform="translate(-85.333 -85.333)" fill="#0092a0"/>
    </g>
  </g>
</svg>
