<svg id="userlogin" xmlns="http://www.w3.org/2000/svg" width="15.522" height="15.436" viewBox="0 0 15.522 15.436">
  <g id="Group_1374" data-name="Group 1374">
    <g id="Group_1373" data-name="Group 1373">
      <path id="Path_1211" data-name="Path 1211" d="M260.7-411.875a.225.225,0,0,0-.21-.156h-1.093a3.494,3.494,0,0,0-3.494,3.494v1.551a.523.523,0,0,0,.522.522h5.734a.22.22,0,0,0,.21-.291Zm7.231-.156H266.84a.22.22,0,0,0-.21.156l-1.669,5.115a.22.22,0,0,0,.21.291H270.9a.523.523,0,0,0,.522-.522v-1.551A3.493,3.493,0,0,0,267.928-412.031Zm.016-5.583a4.287,4.287,0,0,0-4.286-4.286,4.286,4.286,0,0,0-4.286,4.286,4.286,4.286,0,0,0,4.286,4.286A4.283,4.283,0,0,0,267.944-417.614Z" transform="translate(-255.9 421.9)" fill="#56575c"/>
      <path id="Path_1212" data-name="Path 1212" d="M388.368-236.3a.668.668,0,0,0-.668.668v3.57a.667.667,0,0,0,.668.668.668.668,0,0,0,.668-.668v-3.57A.668.668,0,0,0,388.368-236.3Z" transform="translate(-380.604 246.293)" fill="#56575c"/>
    </g>
  </g>
</svg>
