<svg xmlns="http://www.w3.org/2000/svg" width="42" height="42" viewBox="0 0 42 42">
  <g id="youtube" transform="translate(-497 -1907)">
    <circle id="Ellipse_94" data-name="Ellipse 94" cx="21" cy="21" r="21" transform="translate(497 1907)" fill="#fff"/>
    <path id="youtube_icon" data-name="youtube icon" d="M95.5,20.2a2.236,2.236,0,0,0-2-2,134.857,134.857,0,0,0-20.1,0,2.151,2.151,0,0,0-2,2,62.751,62.751,0,0,0,0,13.7,2.236,2.236,0,0,0,2,2,134.857,134.857,0,0,0,20.1,0,2.151,2.151,0,0,0,2-2A62.751,62.751,0,0,0,95.5,20.2ZM87.3,27l-6.1,3.5a.338.338,0,0,1-.5-.3V23.3a.338.338,0,0,1,.5-.3l6.1,3.5C87.5,26.5,87.5,26.8,87.3,27Z" transform="translate(434.551 1900.949)" fill="red"/>
  </g>
</svg>
