<svg xmlns="http://www.w3.org/2000/svg" width="18.206" height="18.206" viewBox="0 0 18.206 18.206">
  <g id="attachment" transform="translate(9.108) rotate(45)">
    <g id="_x34__17_" transform="translate(0 0)">
      <g id="Group_157" data-name="Group 157">
        <path id="Path_255" data-name="Path 255" d="M12.212,4.689,5.666,11.162a2.8,2.8,0,0,1-3.928,0,2.725,2.725,0,0,1,0-3.884L7.63,1.451a1.867,1.867,0,0,1,2.619,0,1.817,1.817,0,0,1,0,2.59L4.356,9.867a.933.933,0,0,1-1.31,0,.909.909,0,0,1,0-1.295L8.284,3.394l-.655-.647L2.393,7.926a1.817,1.817,0,0,0,0,2.59,1.866,1.866,0,0,0,2.619,0L10.9,4.689A2.725,2.725,0,0,0,10.9.8,2.8,2.8,0,0,0,6.975.8L.756,6.954l.023.023a3.631,3.631,0,0,0,.3,4.833,3.732,3.732,0,0,0,4.887.3l.023.023,6.874-6.8Z" fill="#0092a0"/>
      </g>
    </g>
  </g>
</svg>
