<svg xmlns="http://www.w3.org/2000/svg" width="52" height="52" viewBox="0 0 52 52">
  <g id="bulbnotif" transform="translate(-162 -210)">
    <circle id="Ellipse_14" data-name="Ellipse 14" cx="26" cy="26" r="26" transform="translate(162 210)" fill="#fff"/>
    <g id="lightbulb" transform="translate(80.213 217)">
      <path id="Path_249" data-name="Path 249" d="M107.461,0a11.562,11.562,0,0,0-9.685,17.892,15.972,15.972,0,0,1,2.747,8.7,1.156,1.156,0,0,0,1.156,1.156h11.563a1.156,1.156,0,0,0,1.156-1.156,16,16,0,0,1,2.745-8.7A11.563,11.563,0,0,0,107.461,0Z" transform="translate(0 0)" fill="#ffc107"/>
      <path id="Path_250" data-name="Path 250" d="M113.333,27.869H101.771a1.156,1.156,0,0,1-1.156-1.156,15.991,15.991,0,0,0-2.747-8.7,11.563,11.563,0,1,1,19.37,0,15.979,15.979,0,0,0-2.747,8.7A1.156,1.156,0,0,1,113.333,27.869Zm-10.448-2.313h9.333a18.578,18.578,0,0,1,3.083-8.813,9.25,9.25,0,1,0-15.494,0A18.558,18.558,0,0,1,102.885,25.557Z" transform="translate(-0.091 -0.119)" fill="#ffc107"/>
      <path id="Path_251" data-name="Path 251" d="M172.726,418.313H161.163a1.156,1.156,0,1,1,0-2.312h11.563a1.156,1.156,0,0,1,0,2.313Z" transform="translate(-59.484 -385.938)" fill="#ffc107"/>
      <path id="Path_252" data-name="Path 252" d="M200.1,482.312h-6.938a1.156,1.156,0,1,1,0-2.312H200.1a1.156,1.156,0,1,1,0,2.312Z" transform="translate(-89.171 -445.313)" fill="#ffc107"/>
    </g>
  </g>
</svg>
