<svg xmlns="http://www.w3.org/2000/svg" width="20.69" height="19.397" viewBox="0 0 20.69 19.397">
  <g id="cambl" transform="translate(3)">
    <path id="Path_110" data-name="Path 110" d="M10.345,12.931a2.586,2.586,0,1,0-2.586-2.586A2.594,2.594,0,0,0,10.345,12.931Zm0-7.759a5.172,5.172,0,1,1-5.172,5.172A5.188,5.188,0,0,1,10.345,5.172ZM18.1,19.4H2.586a2.553,2.553,0,0,1-1.81-.776A2.553,2.553,0,0,1,0,16.81V5.172A2.594,2.594,0,0,1,2.586,2.586H4.655L6.595.647A2.141,2.141,0,0,1,8.147,0h4.526a2.077,2.077,0,0,1,1.422.647l1.94,1.94H18.1A2.594,2.594,0,0,1,20.69,5.172V16.81A2.594,2.594,0,0,1,18.1,19.4Z" transform="translate(-3 0)" fill="#5b5a5a" fill-rule="evenodd"/>
  </g>
</svg>
