<svg xmlns="http://www.w3.org/2000/svg" width="25.567" height="23.969" viewBox="0 0 25.567 23.969">
  <g id="cammob" transform="translate(-156.333 -124.313)">
    <path id="Path_110" data-name="Path 110" d="M12.784,15.979a3.2,3.2,0,1,0-3.2-3.2A3.205,3.205,0,0,0,12.784,15.979Zm0-9.588a6.392,6.392,0,1,1-6.392,6.392A6.411,6.411,0,0,1,12.784,6.392Zm9.588,17.577H3.2A3.155,3.155,0,0,1,.959,23.01,3.155,3.155,0,0,1,0,20.773V6.392A3.205,3.205,0,0,1,3.2,3.2H5.753L8.15.8A2.646,2.646,0,0,1,10.067,0H15.66a2.566,2.566,0,0,1,1.758.8l2.4,2.4h2.557a3.205,3.205,0,0,1,3.2,3.2V20.773A3.205,3.205,0,0,1,22.371,23.969Z" transform="translate(156.333 124.313)" fill="#7f7f7f" fill-rule="evenodd"/>
    <g id="No" transform="translate(166.31 137.038) rotate(-45)">
      <path id="Union_3" data-name="Union 3" d="M1.953,2.308l-1.6,1.6L0,3.551l1.6-1.6L0,.355.355,0l1.6,1.6L3.551,0l.355.355-1.6,1.6,1.6,1.6-.355.355Z" transform="translate(0 0)" fill="#fff"/>
      <rect id="Rectangle_1468" data-name="Rectangle 1468" width="4.229" height="4.229" transform="translate(0 0)" fill="none"/>
    </g>
  </g>
</svg>
