<svg xmlns="http://www.w3.org/2000/svg" width="51.798" height="38.848" viewBox="0 0 51.798 38.848">
  <path id="Path_1344" data-name="Path 1344" d="M8.156,6.9A8.093,8.093,0,0,1,15.6,2H36.2a8.1,8.1,0,0,1,7.439,4.9L46.2,12.887a2.616,2.616,0,0,0,1.23,1.308,5.853,5.853,0,0,1,3.124,4.086l1.085,5.436A7.894,7.894,0,0,1,51.8,25.3V26.64A8.045,8.045,0,0,1,48.562,33.1V39.23a1.619,1.619,0,0,1-1.619,1.619H40.468a1.619,1.619,0,0,1-1.619-1.619V34.9c-4.183.155-8.887.285-12.949.285s-8.767-.129-12.949-.285V39.23a1.619,1.619,0,0,1-1.619,1.619H4.857A1.619,1.619,0,0,1,3.238,39.23V33.1A8.045,8.045,0,0,1,0,26.64V25.3A8.093,8.093,0,0,1,.16,23.716l1.085-5.439A5.852,5.852,0,0,1,4.365,14.2,2.613,2.613,0,0,0,5.6,12.887L8.162,6.9ZM9.71,27.9a3.237,3.237,0,1,0-3.237-3.237A3.237,3.237,0,0,0,9.71,27.9Zm32.374,0a3.237,3.237,0,1,0-3.237-3.237A3.237,3.237,0,0,0,42.084,27.9ZM19.422,21.424a3.237,3.237,0,1,0,0,6.475H32.371a3.237,3.237,0,1,0,0-6.475Zm-10.016-9.1a1.651,1.651,0,0,0,1.609,2.367c2.946-.236,10.845-.55,14.882-.55s11.939.314,14.882.55a1.651,1.651,0,0,0,1.609-2.367L39.293,6.131a1.619,1.619,0,0,0-1.447-.894h-23.9a1.619,1.619,0,0,0-1.447.893l-3.095,6.2Z" transform="translate(-0.001 -2)" fill="#fff"/>
</svg>
