<svg xmlns="http://www.w3.org/2000/svg" width="17.055" height="17.368" viewBox="0 0 17.055 17.368">
  <g id="converham" transform="translate(-519.968 -357.935)">
    <g id="chat" transform="translate(519.968 357.935)">
      <g id="Group_84" data-name="Group 84" transform="translate(0)">
        <path id="Path_148" data-name="Path 148" d="M11.933,0H11.9A8.52,8.52,0,0,0,5.223,13.83L3.98,16.719a.463.463,0,0,0,.242.61.473.473,0,0,0,.265.033l4.556-.8a8.21,8.21,0,0,0,2.839.493A8.527,8.527,0,0,0,11.933,0ZM9.01,6.822h2.513a.465.465,0,0,1,0,.931H9.01a.465.465,0,0,1,0-.931Zm5.77,3.257H9.01a.465.465,0,0,1,0-.931h5.77a.465.465,0,1,1,0,.931Z" transform="translate(-3.366)" fill="#0092a0"/>
      </g>
    </g>
  </g>
</svg>
