<svg xmlns="http://www.w3.org/2000/svg" width="12.395" height="15.933" viewBox="0 0 12.395 15.933">
  <g id="deleteconvo" transform="translate(0 0)">
    <path id="Path_456" data-name="Path 456" d="M126.426.962h2.663V1.41h.962V.9a.9.9,0,0,0-.9-.9h-2.789a.9.9,0,0,0-.9.9V1.41h.962Zm0,0" transform="translate(-121.56 0)" fill="#fff"/>
    <path id="Path_457" data-name="Path 457" d="M49.942,167.75H40.914a.424.424,0,0,0-.422.458l.755,9.333a1,1,0,0,0,1,.922h6.365a1,1,0,0,0,1-.922l.755-9.333a.423.423,0,0,0-.422-.458ZM43.1,177.467h-.03a.481.481,0,0,1-.479-.451l-.473-7.662a.481.481,0,0,1,.96-.059l.473,7.662A.481.481,0,0,1,43.1,177.467Zm2.814-.48a.481.481,0,0,1-.962,0v-7.662a.481.481,0,1,1,.962,0Zm2.824-7.634-.452,7.662a.481.481,0,0,1-.48.453h-.029a.481.481,0,0,1-.452-.508l.451-7.662a.481.481,0,0,1,.96.057Zm0,0" transform="translate(-39.23 -162.53)" fill="#fff"/>
    <path id="Path_458" data-name="Path 458" d="M12.375,77.576l-.316-.947a.612.612,0,0,0-.58-.418H.917a.611.611,0,0,0-.58.418l-.316.947A.4.4,0,0,0,.4,78.1H12a.392.392,0,0,0,.21-.061.4.4,0,0,0,.166-.462Zm0,0" transform="translate(0 -73.84)" fill="#fff"/>
  </g>
</svg>
