<svg xmlns="http://www.w3.org/2000/svg" width="23.191" height="22.616" viewBox="0 0 23.191 22.616">
  <g id="dropdown" transform="translate(-30.766 -6)">
    <g id="ascending-sort" transform="translate(30.766 6)">
      <path id="Path_381" data-name="Path 381" d="M12.27,5.276v-.77a.77.77,0,0,0-.77-.77H.77a.77.77,0,0,0-.77.77v.77a.77.77,0,0,0,.77.77H11.5A.77.77,0,0,0,12.27,5.276Z" transform="translate(0 -3.736)" fill="#0092a0"/>
      <path id="Path_382" data-name="Path 382" d="M10.054,66.736H.77a.77.77,0,0,0-.77.77v.77a.77.77,0,0,0,.77.77h9.284a.77.77,0,0,0,.77-.77v-.77A.77.77,0,0,0,10.054,66.736Z" transform="translate(0 -61.886)" fill="#0092a0"/>
      <path id="Path_383" data-name="Path 383" d="M8.608,129.736H.77a.77.77,0,0,0-.77.77v.77a.77.77,0,0,0,.77.77H8.608a.77.77,0,0,0,.77-.77v-.77A.77.77,0,0,0,8.608,129.736Z" transform="translate(0 -120.035)" fill="#0092a0"/>
      <path id="Path_384" data-name="Path 384" d="M7.162,199.736H.77a.77.77,0,0,0-.77.77v.77a.77.77,0,0,0,.77.77H7.162a.77.77,0,0,0,.77-.77v-.77A.77.77,0,0,0,7.162,199.736Z" transform="translate(0 -184.646)" fill="#0092a0"/>
      <path id="Path_385" data-name="Path 385" d="M5.716,262.736H.77a.77.77,0,0,0-.77.77v.77a.77.77,0,0,0,.77.77H5.716a.77.77,0,0,0,.77-.77v-.77A.77.77,0,0,0,5.716,262.736Z" transform="translate(0 -242.795)" fill="#0092a0"/>
      <path id="Path_386" data-name="Path 386" d="M165.246,24.761l-.544-.544a.77.77,0,0,0-1.089,0l-2.648,2.648V9.506a.77.77,0,0,0-.77-.77h-.77a.77.77,0,0,0-.77.77V26.865l-2.648-2.648a.77.77,0,0,0-1.089,0l-.544.544a.77.77,0,0,0,0,1.089l4.892,4.892a.77.77,0,0,0,1.089,0l4.892-4.892A.77.77,0,0,0,165.246,24.761Z" transform="translate(-142.28 -8.351)" fill="#0092a0"/>
    </g>
  </g>
</svg>
