<svg id="editad" xmlns="http://www.w3.org/2000/svg" width="10.117" height="10.063" viewBox="0 0 10.117 10.063">
  <g id="edit_1_" data-name="edit (1)" transform="translate(0 0)">
    <path id="Path_418" data-name="Path 418" d="M9.827,24.784a.265.265,0,0,0-.265.265V27.4a.8.8,0,0,1-.8.8H1.326a.8.8,0,0,1-.8-.8v-6.91a.8.8,0,0,1,.8-.8H3.68a.265.265,0,1,0,0-.53H1.326A1.327,1.327,0,0,0,0,20.494V27.4A1.327,1.327,0,0,0,1.326,28.73H8.767A1.327,1.327,0,0,0,10.092,27.4V25.05A.265.265,0,0,0,9.827,24.784Zm0,0" transform="translate(0 -18.667)" fill="#fff"/>
    <path id="Path_419" data-name="Path 419" d="M156.367,36.2l3.872-3.872,1.249,1.249-3.872,3.872Zm0,0" transform="translate(-152.22 -31.478)" fill="#fff"/>
    <path id="Path_420" data-name="Path 420" d="M132.543,198.6l1.38-.382-1-1Zm0,0" transform="translate(-129.028 -191.996)" fill="#fff"/>
    <path id="Path_421" data-name="Path 421" d="M317.746.462a.664.664,0,0,0-.938,0l-.281.281,1.249,1.249.281-.281a.664.664,0,0,0,0-.938Zm0,0" transform="translate(-308.133 -0.269)" fill="#fff"/>
  </g>
</svg>
