<svg xmlns="http://www.w3.org/2000/svg" width="30.207" height="17.121" viewBox="0 0 30.207 17.121">
  <g id="eye" transform="translate(0 0)">
    <g id="Group_160" data-name="Group 160" transform="translate(0 0)">
      <g id="Group_159" data-name="Group 159">
        <path id="Path_266" data-name="Path 266" d="M.488,118.036a18.7,18.7,0,0,1,6.35-5.2,18.321,18.321,0,0,1,8.03-1.938c.078,0,.389,0,.467,0a18.322,18.322,0,0,1,8.03,1.938,18.7,18.7,0,0,1,6.35,5.2,2.309,2.309,0,0,1,0,2.844,18.7,18.7,0,0,1-6.35,5.2,18.321,18.321,0,0,1-8.03,1.938c-.078,0-.389,0-.467,0a18.322,18.322,0,0,1-8.03-1.938,18.7,18.7,0,0,1-6.35-5.2A2.309,2.309,0,0,1,.488,118.036Zm22.328,6.944a17.461,17.461,0,0,0,5.93-4.856,1.082,1.082,0,0,0,0-1.333,17.333,17.333,0,0,0-7.927-5.7,8.549,8.549,0,0,1,0,12.735A17.33,17.33,0,0,0,22.816,124.98ZM15.1,126.791a7.334,7.334,0,1,0-7.334-7.334A7.342,7.342,0,0,0,15.1,126.791ZM1.457,120.124a17.3,17.3,0,0,0,7.925,5.7,8.549,8.549,0,0,1,0-12.734,17.342,17.342,0,0,0-7.927,5.7A1.082,1.082,0,0,0,1.457,120.124Z" transform="translate(0.002 -110.897)" fill="#0092a0"/>
      </g>
    </g>
    <g id="Group_162" data-name="Group 162" transform="translate(11.965 5.422)">
      <g id="Group_161" data-name="Group 161">
        <path id="Path_267" data-name="Path 267" d="M205.943,202.8a3.138,3.138,0,1,1-3.138,3.138A3.142,3.142,0,0,1,205.943,202.8Zm0,5.048a1.91,1.91,0,1,0-1.91-1.91A1.912,1.912,0,0,0,205.943,207.852Z" transform="translate(-202.805 -202.804)" fill="#0092a0"/>
      </g>
    </g>
  </g>
</svg>
