<svg id="flag" xmlns="http://www.w3.org/2000/svg" width="9.308" height="13.564" viewBox="0 0 9.308 13.564">
  <g id="Group_368" data-name="Group 368" transform="translate(0)">
    <path id="Path_393" data-name="Path 393" d="M89.448.548a3.788,3.788,0,0,0-2-.548,9.075,9.075,0,0,0-2.572.508,8.367,8.367,0,0,1-2.343.475h0a3.019,3.019,0,0,1-1.4-.328V.4a.4.4,0,1,0-.795,0v12.77a.4.4,0,1,0,.795,0V6.927a3.839,3.839,0,0,0,1.4.253A9.074,9.074,0,0,0,85.1,6.671,8.365,8.365,0,0,1,87.444,6.2a3.014,3.014,0,0,1,1.595.435.4.4,0,0,0,.6-.341V.889A.4.4,0,0,0,89.448.548ZM84.873,5.91a8.365,8.365,0,0,1-2.343.475,3.02,3.02,0,0,1-1.4-.328V1.525a3.838,3.838,0,0,0,1.4.253h0A9.075,9.075,0,0,0,85.1,1.27,8.366,8.366,0,0,1,87.444.795a3.02,3.02,0,0,1,1.4.328V5.655a3.839,3.839,0,0,0-1.4-.253A9.074,9.074,0,0,0,84.873,5.91Z" transform="translate(-80.333 0)" fill="#fff"/>
  </g>
</svg>
