<svg xmlns="http://www.w3.org/2000/svg" width="25.335" height="22.442" viewBox="0 0 25.335 22.442">
  <path id="homepgfoot" d="M205.521,43.892a.836.836,0,0,0,.777-.777V34.177h2.137a1.328,1.328,0,0,0,1.36-1.36,1.679,1.679,0,0,0-.583-1.166l-2.72-2.526v-4.08a.836.836,0,0,0-.777-.777h-1.749a.836.836,0,0,0-.777.777v.971l-5.052-4.275a1.765,1.765,0,0,0-1.943,0l-11.269,9.909a1.511,1.511,0,0,0-.389,1.554,1.461,1.461,0,0,0,1.36.971h2.137v8.938a.836.836,0,0,0,.777.777h4.857V37.48a1.533,1.533,0,0,1,1.554-1.554h3.692a1.533,1.533,0,0,1,1.554,1.554v6.412Z" transform="translate(-184.461 -21.45)" fill="#484848" opacity="0.7"/>
</svg>
