<svg xmlns="http://www.w3.org/2000/svg" width="42" height="42" viewBox="0 0 42 42">
  <g id="linked" transform="translate(-438 -1907)">
    <circle id="Ellipse_95" data-name="Ellipse 95" cx="21" cy="21" r="21" transform="translate(438 1907)" fill="#fff"/>
    <g id="XMLID_1561_" transform="translate(374.9 1887.459)">
      <g id="Group_1265" data-name="Group 1265" transform="translate(73.1 28.7)">
        <g id="XMLID_31_">
          <rect id="XMLID_33_" width="4.527" height="14.456" transform="translate(0.292 7.155)" fill="#117bb8"/>
          <path id="XMLID_32_" d="M75.728,33.957A2.628,2.628,0,1,0,73.1,31.328,2.617,2.617,0,0,0,75.728,33.957Z" transform="translate(-73.1 -28.7)" fill="#117bb8"/>
        </g>
        <path id="XMLID_30_" d="M82.635,40.555c0-2.044.876-3.212,2.774-3.212,1.606,0,2.482,1.168,2.482,3.212v7.593h4.381V39.095c0-3.8-2.19-5.695-5.257-5.695a5.115,5.115,0,0,0-4.381,2.336v-1.9H78.4V48.294h4.235Z" transform="translate(-70.661 -26.537)" fill="#117bb8"/>
      </g>
    </g>
  </g>
</svg>
