<svg xmlns="http://www.w3.org/2000/svg" width="16.424" height="21.877" viewBox="0 0 16.424 21.877">
  <g id="locationw" transform="translate(0.5 0.5)">
    <g id="Group_101" data-name="Group 101" transform="translate(0)">
      <g id="Group_100" data-name="Group 100">
        <path id="Path_161" data-name="Path 161" d="M55.792,0A7.721,7.721,0,0,0,48.08,7.712a8.9,8.9,0,0,0,.654,2.969,12.434,12.434,0,0,0,.891,1.667l5.288,8.012a1.006,1.006,0,0,0,1.757,0l5.288-8.012a12.382,12.382,0,0,0,.891-1.667A8.9,8.9,0,0,0,63.5,7.712,7.721,7.721,0,0,0,55.792,0Zm6.222,10.329a11.4,11.4,0,0,1-.812,1.52l-5.288,8.012c-.1.158-.137.158-.242,0l-5.288-8.012a11.4,11.4,0,0,1-.812-1.52,8.076,8.076,0,0,1-.583-2.617,6.8,6.8,0,1,1,13.609,0A8.083,8.083,0,0,1,62.014,10.329Z" transform="translate(-48.08 0)" fill="#fff" stroke="#fff" stroke-width="1"/>
        <path id="Path_162" data-name="Path 162" d="M116.163,64.008a4.083,4.083,0,1,0,4.083,4.083A4.088,4.088,0,0,0,116.163,64.008Zm0,7.258a3.176,3.176,0,1,1,3.176-3.176A3.179,3.179,0,0,1,116.163,71.266Z" transform="translate(-108.451 -60.378)" fill="#fff" stroke="#fff" stroke-width="1"/>
      </g>
    </g>
  </g>
</svg>
