<svg id="locationbigw" xmlns="http://www.w3.org/2000/svg" width="18.877" height="27.8" viewBox="0 0 18.877 27.8">
  <path id="Path_1205" data-name="Path 1205" d="M-280.257,93.892c-.007-.068-.021-.13-.027-.2a1.092,1.092,0,0,0-.034-.143l-.041-.157c-.014-.041-.021-.089-.034-.13-.021-.061-.041-.123-.068-.184l-.055-.143c-.007-.027-.021-.055-.027-.082-.034-.082-.075-.164-.116-.246l-.048-.1a.171.171,0,0,0-.027-.048c-.055-.1-.116-.2-.178-.294a.381.381,0,0,1-.034-.055,2.615,2.615,0,0,0-.239-.321l-.027-.041c-.082-.1-.178-.2-.273-.307l-.027-.027A4.473,4.473,0,0,0-284.65,90.1h-.055a4.509,4.509,0,0,0-4.5,4.5,4.509,4.509,0,0,0,4.5,4.5h.055a4.485,4.485,0,0,0,3.15-1.332,3.771,3.771,0,0,0,.287-.321.288.288,0,0,1,.034-.048,3.4,3.4,0,0,0,.219-.3.788.788,0,0,1,.048-.075c.061-.1.123-.191.178-.294a.333.333,0,0,0,.021-.048.64.64,0,0,1,.034-.068l.021-.041c.041-.075.075-.157.109-.232a.385.385,0,0,0,.027-.082l.055-.15c.02-.061.048-.123.068-.184.014-.041.021-.082.034-.13l.041-.164a1.328,1.328,0,0,0,.034-.137,1.97,1.97,0,0,0,.027-.2l.02-.157a.4.4,0,0,0,.014-.089c.014-.15.021-.307.021-.458s-.007-.307-.021-.458c-.007-.027-.007-.061-.014-.089Z" transform="translate(294.112 -85.611)" fill="#fff"/>
  <path id="Path_1206" data-name="Path 1206" d="M-343.821,39.281c.048-.075.1-.15.157-.253l.021-.041c.116-.225.3-.553.314-.567a10.052,10.052,0,0,0,1.107-4.6c0-.171-.007-.342-.014-.512,0-.075-.007-.15-.014-.219l-.007-.143c0-.048-.007-.1-.007-.137-.007-.061-.014-.123-.02-.178l-.014-.13-.021-.184-.021-.143-.021-.123c-.014-.068-.021-.143-.034-.212s-.02-.109-.034-.171l-.027-.15c-.014-.055-.021-.1-.034-.157-.02-.075-.034-.15-.055-.219l-.034-.123c-.007-.041-.02-.075-.027-.116-.02-.082-.048-.157-.075-.239l-.027-.1c-.014-.041-.02-.075-.034-.109-.027-.075-.055-.157-.082-.232l-.034-.1c-.014-.034-.027-.075-.041-.1-.034-.089-.068-.171-.1-.253l-.041-.1a.8.8,0,0,0-.034-.075c-.048-.109-.1-.219-.157-.335l-.041-.075c-.055-.109-.116-.219-.184-.342l-.027-.055c-.068-.116-.137-.225-.212-.348a.149.149,0,0,1-.021-.034c-.075-.109-.143-.219-.232-.335,0-.007-.021-.027-.021-.034-.082-.116-.164-.225-.253-.328-.007-.007-.014-.02-.021-.027-.089-.109-.184-.219-.287-.335s-.2-.219-.3-.321h0a9.379,9.379,0,0,0-6.825-2.63,9.035,9.035,0,0,0-9.442,9.442,10.075,10.075,0,0,0,1.271,4.906l.143.26c.007.014.014.021.014.027l.239.362.068.1,6.04,10.146h-.007l1.4,2.35a.413.413,0,0,0,.362.2h0a.419.419,0,0,0,.362-.212l1.366-2.35h0l5.889-10.139C-343.91,39.424-343.869,39.356-343.821,39.281Zm-2.555-5.35c-.007.048-.014.1-.021.15l-.021.13c-.014.089-.021.171-.041.253a1.956,1.956,0,0,1-.048.191l-.034.137a1.343,1.343,0,0,1-.048.178c-.027.082-.055.157-.082.232l-.048.123a1,1,0,0,1-.048.13c-.041.1-.089.191-.137.287l-.041.082a.624.624,0,0,1-.048.1c-.061.116-.137.232-.2.348-.027.048-.041.068-.055.089a4.382,4.382,0,0,1-.266.355.3.3,0,0,1-.041.048,3.935,3.935,0,0,1-.328.362,5.353,5.353,0,0,1-3.751,1.6h-.055a5.339,5.339,0,0,1-5.336-5.336,5.339,5.339,0,0,1,5.336-5.336h.055a5.306,5.306,0,0,1,3.737,1.578l.02.027a4.514,4.514,0,0,1,.314.348.289.289,0,0,1,.034.048c.1.123.184.239.266.362a.6.6,0,0,1,.041.068c.089.137.157.253.225.369a.621.621,0,0,1,.048.1l.021.041c.061.123.109.225.157.328a1,1,0,0,1,.048.13l.041.123c.027.075.061.157.082.232a1.7,1.7,0,0,1,.048.178l.034.13c.021.068.034.13.048.2s.027.164.041.253l.021.13c.007.048.014.1.021.15a4.8,4.8,0,0,1,.027.547A2.908,2.908,0,0,1-346.377,33.931Z" transform="translate(361.1 -24.4)" fill="#fff"/>
</svg>
