<svg xmlns="http://www.w3.org/2000/svg" xmlns:xlink="http://www.w3.org/1999/xlink" width="125.001" height="24.307" viewBox="0 0 125.001 24.307">
  <defs>
    <linearGradient id="linear-gradient" x1="0.715" y1="0.767" x2="0.064" y2="0.035" gradientUnits="objectBoundingBox">
      <stop offset="0" stop-color="#7f00bf"/>
      <stop offset="0.003" stop-color="#b2b2b2"/>
      <stop offset="0.339" stop-color="#d6d6d6"/>
      <stop offset="0.629" stop-color="#ebebeb"/>
      <stop offset="0.859" stop-color="#f6f6f6"/>
      <stop offset="1" stop-color="#fff"/>
    </linearGradient>
    <linearGradient id="linear-gradient-2" x1="1.067" y1="0.785" x2="0.147" y2="-0.223" gradientUnits="objectBoundingBox">
      <stop offset="0" stop-color="#bebebe"/>
      <stop offset="0.045" stop-color="#c9c9c9"/>
      <stop offset="0.169" stop-color="#dcdcdc"/>
      <stop offset="0.282" stop-color="#e8e8e8"/>
      <stop offset="0.377" stop-color="#f5f5f5"/>
      <stop offset="0.454" stop-color="#fcfcfc"/>
      <stop offset="0.5" stop-color="#fefefe"/>
      <stop offset="0.559" stop-color="#fff"/>
      <stop offset="0.657" stop-color="#fff"/>
      <stop offset="0.779" stop-color="#fff"/>
      <stop offset="0.921" stop-color="#fff"/>
      <stop offset="1" stop-color="#fff"/>
    </linearGradient>
    <linearGradient id="linear-gradient-3" x1="0.891" y1="0.131" x2="0.119" y2="1.173" gradientUnits="objectBoundingBox">
      <stop offset="0" stop-color="#bfbfbf"/>
      <stop offset="0.104" stop-color="#cecece"/>
      <stop offset="0.287" stop-color="#dbdbdb"/>
      <stop offset="0.47" stop-color="#e6e6e6"/>
      <stop offset="0.65" stop-color="#eee"/>
      <stop offset="0.828" stop-color="#fbfbfb"/>
      <stop offset="1" stop-color="#fff"/>
    </linearGradient>
    <linearGradient id="linear-gradient-4" x1="0.978" y1="0.011" x2="0.03" y2="0.951" gradientUnits="objectBoundingBox">
      <stop offset="0" stop-color="#bebebe"/>
      <stop offset="0.045" stop-color="#c9c9c9"/>
      <stop offset="0.169" stop-color="#e1e1e1"/>
      <stop offset="0.282" stop-color="#e6e6e6"/>
      <stop offset="0.377" stop-color="#f5f5f5"/>
      <stop offset="0.454" stop-color="#f9f9f9"/>
      <stop offset="0.5" stop-color="#fff"/>
      <stop offset="0.559" stop-color="#fff"/>
      <stop offset="0.657" stop-color="#fff"/>
      <stop offset="0.779" stop-color="#fff"/>
      <stop offset="0.921" stop-color="#fff"/>
      <stop offset="1" stop-color="#fff"/>
    </linearGradient>
    <linearGradient id="linear-gradient-5" x1="0.001" y1="0.5" x2="0.999" y2="0.5" gradientUnits="objectBoundingBox">
      <stop offset="0" stop-color="#c5c5c5"/>
      <stop offset="0.104" stop-color="#c8c8c8"/>
      <stop offset="0.287" stop-color="#dfdfdf"/>
      <stop offset="0.47" stop-color="#e5e5e5"/>
      <stop offset="0.65" stop-color="#f5f5f5"/>
      <stop offset="0.828" stop-color="#fff"/>
      <stop offset="1" stop-color="#fff"/>
    </linearGradient>
    <linearGradient id="linear-gradient-6" x1="-0.023" y1="0.081" x2="1.038" y2="0.893" gradientUnits="objectBoundingBox">
      <stop offset="0" stop-color="#bfbfbf"/>
      <stop offset="0.045" stop-color="#c4c4c4"/>
      <stop offset="0.169" stop-color="#d4d4d4"/>
      <stop offset="0.282" stop-color="#e5e5e5"/>
      <stop offset="0.377" stop-color="#f5f5f5"/>
      <stop offset="0.454" stop-color="#fff"/>
      <stop offset="0.5" stop-color="#fcfcfc"/>
      <stop offset="0.559" stop-color="#fff"/>
      <stop offset="0.657" stop-color="#fff"/>
      <stop offset="0.779" stop-color="#fcfcfc"/>
      <stop offset="0.921" stop-color="#fff"/>
      <stop offset="1" stop-color="#fff"/>
    </linearGradient>
    <linearGradient id="linear-gradient-7" x1="0.5" y1="1.009" x2="0.5" y2="0.002" gradientUnits="objectBoundingBox">
      <stop offset="0" stop-color="#bcbcbc"/>
      <stop offset="0.104" stop-color="#cfcfcf"/>
      <stop offset="0.287" stop-color="#dedede"/>
      <stop offset="0.47" stop-color="#e6e6e6"/>
      <stop offset="0.65" stop-color="#f6f6f6"/>
      <stop offset="0.828" stop-color="#fbfbfb"/>
      <stop offset="1" stop-color="#fff"/>
    </linearGradient>
    <linearGradient id="linear-gradient-8" x1="0.039" y1="0.963" x2="1.198" y2="0.248" gradientUnits="objectBoundingBox">
      <stop offset="0" stop-color="#bbb"/>
      <stop offset="0.045" stop-color="#c5c5c5"/>
      <stop offset="0.169" stop-color="#dbdbdb"/>
      <stop offset="0.282" stop-color="#e6e6e6"/>
      <stop offset="0.377" stop-color="#f6f6f6"/>
      <stop offset="0.454" stop-color="#fcfcfc"/>
      <stop offset="0.5" stop-color="#fff"/>
      <stop offset="0.559" stop-color="#fff"/>
      <stop offset="0.657" stop-color="#fefefe"/>
      <stop offset="0.779" stop-color="#fefefe"/>
      <stop offset="0.921" stop-color="#fff"/>
      <stop offset="1" stop-color="#fff"/>
    </linearGradient>
  </defs>
  <g id="logowhite" transform="translate(-5.497 -17.559)">
    <g id="Group_811" data-name="Group 811" transform="translate(5.497 16.5)">
      <path id="Path_604" data-name="Path 604" d="M54.81,35.529a11.346,11.346,0,0,0-.183-1.582,1.982,1.982,0,0,0-2.069-1.4,3.969,3.969,0,0,0-1.461.122,1.964,1.964,0,0,0-1.582,1.947H44.951a5.209,5.209,0,0,1,2.191-5.355,7.546,7.546,0,0,1,3.773-1.1,12.385,12.385,0,0,1,4.747.426A5.745,5.745,0,0,1,59.8,33.46a15.587,15.587,0,0,1,.183,2.373v4.99c0,.974.183,1.217,1.217,1.339.061,0,.061,0,.183.061v3.591c0,.061-.122.243-.243.243A9.5,9.5,0,0,1,57,46.118a2.391,2.391,0,0,1-1.765-1.461c-.122-.3-.548-.426-.669-.122a3.481,3.481,0,0,1-2.5,1.582,11.649,11.649,0,0,1-4.808-.061,4.867,4.867,0,0,1-3.712-4.26,6.462,6.462,0,0,1,.183-2.86,4.593,4.593,0,0,1,3.591-3.043,11.92,11.92,0,0,1,2.921-.3C51.767,35.529,53.227,35.529,54.81,35.529Zm-.122,4.017H50c-.122,0-.243.061-.365.061a.979.979,0,0,0-.73.791,1.254,1.254,0,0,0,.365,1.217,2.467,2.467,0,0,0,.548.3,5.582,5.582,0,0,0,3.591-.061A1.812,1.812,0,0,0,54.688,39.545Z" transform="translate(-20.363 -21.045)" fill="#fff"/>
      <path id="Path_605" data-name="Path 605" d="M91.074,39.022a2.711,2.711,0,0,0,2.069,2.739,5.952,5.952,0,0,0,2.739.061,2.424,2.424,0,0,0,1.7-1.278c.061-.122.243-.3.365-.3h4.99a1.071,1.071,0,0,0-.061.365A8.156,8.156,0,0,1,96.795,45.9a10.221,10.221,0,0,1-5.416-.183,7.265,7.265,0,0,1-5.234-5.477,12.731,12.731,0,0,1,.122-6.755,7.284,7.284,0,0,1,5.416-5.234,10.963,10.963,0,0,1,5.781,0,7.182,7.182,0,0,1,5.6,6.025c.243,1.4.183,2.86.3,4.321,0,.365-.183.365-.426.365H91.622A1.685,1.685,0,0,1,91.074,39.022Zm0-3.712h6.938a2.631,2.631,0,0,0-1.7-2.556,5.034,5.034,0,0,0-3.53,0A2.751,2.751,0,0,0,91.074,35.31Z" transform="translate(-36.91 -20.947)" fill="#fff"/>
      <path id="Path_606" data-name="Path 606" d="M80.234,18.361V42.095H75V18.848c0-.426.122-.548.548-.548h4.26A.9.9,0,0,0,80.234,18.361Z" transform="translate(-32.703 -17.205)" fill="#fff"/>
      <g id="Group_805" data-name="Group 805" transform="translate(67.553 1.059)">
        <path id="Path_607" data-name="Path 607" d="M136.522,37.2a7.641,7.641,0,0,0,3.651-4.747h0a7.675,7.675,0,0,0-.791-5.964,7.756,7.756,0,0,0-4.808-3.651,7.675,7.675,0,0,0-5.964.791,7.756,7.756,0,0,0-3.651,4.808,7.675,7.675,0,0,0,.791,5.964,7.756,7.756,0,0,0,4.808,3.651,7.974,7.974,0,0,0,5.964-.852m7.972-4.5c0-.183.061-.3.061-.487a5.047,5.047,0,1,1,1.521,4.808A4.721,4.721,0,0,1,144.494,32.7Zm17.648-8.946h0V30.57l5.9-6.816h5.842l-6.572,7.059,6.633,11.38h-5.842L164.7,35.925c-.669-1.278-1.278-1.765-1.826-1.582-.487.183-.791.487-.791.852v7h-4.868V38.177a7.171,7.171,0,0,1-1.035,1.339,9.156,9.156,0,0,1-6.39,2.982h0a9.137,9.137,0,0,1-6.633-2.373,8.669,8.669,0,0,1-1.521-1.826,11.623,11.623,0,0,1-3.1,2.556,12.279,12.279,0,0,1-9.189,1.217,12.109,12.109,0,0,1-7.364-5.66,6.938,6.938,0,0,1-.609-1.156v6.877H116.5V18.338H119c.669,0,1.643-.061,2.191-.061.243,0,.183,1.7.183,2.313v4.868a11.965,11.965,0,0,1,4.99-5.6,12.279,12.279,0,0,1,9.189-1.217,12.109,12.109,0,0,1,7.364,5.66,11.947,11.947,0,0,1,1.582,5.051,13.916,13.916,0,0,0,0-3.895,8.825,8.825,0,0,1,4.443-1.339,9.137,9.137,0,0,1,6.633,2.373,9.648,9.648,0,0,1,1.582,1.947v-10.1h2.5c.669,0,1.947-.061,2.13,0a7.375,7.375,0,0,1,.243,2.313v3.1Z" transform="translate(-116.5 -18.241)" fill="#fff"/>
        <path id="Path_608" data-name="Path 608" d="M142.438,39.117a3.719,3.719,0,0,0,1.826-2.373,3.543,3.543,0,0,1-1.156.183,3.147,3.147,0,0,1-2.373-5.234,3.95,3.95,0,0,0-2.313.548,3.982,3.982,0,1,0,4.017,6.877" transform="translate(-124.303 -23.502)" fill="#e6e6e6" fill-rule="evenodd"/>
        <path id="Path_609" data-name="Path 609" d="M170.311,43.572a2.488,2.488,0,0,0,1.1-1.4,2.188,2.188,0,0,1-.669.122,1.9,1.9,0,0,1-1.887-1.887,1.7,1.7,0,0,1,.487-1.217,2.351,2.351,0,0,0-2.252,3.53,2.384,2.384,0,0,0,3.225.852" transform="translate(-136.17 -26.435)" fill="#e6e6e6" fill-rule="evenodd"/>
        <path id="Path_610" data-name="Path 610" d="M131.11,37.121a7.756,7.756,0,0,0,4.808,3.651,7.863,7.863,0,0,0,9.615-5.538h0a7.675,7.675,0,0,0-.791-5.964,7.756,7.756,0,0,0-4.808-3.651,7.675,7.675,0,0,0-5.964.791,7.756,7.756,0,0,0-3.651,4.808,7.561,7.561,0,0,0,.791,5.9m6.329-5.842a3.143,3.143,0,0,0,3.165,3.165,3.543,3.543,0,0,0,1.156-.183,3.929,3.929,0,0,1-1.826,2.373,4.008,4.008,0,1,1-4.017-6.938,3.95,3.95,0,0,1,2.313-.548A3.407,3.407,0,0,0,137.439,31.278Z" transform="translate(-121.799 -21.018)" fill="#0092a0" fill-rule="evenodd"/>
        <path id="Path_611" data-name="Path 611" d="M167.164,38.663a1.9,1.9,0,0,0,1.887,1.887,2.188,2.188,0,0,0,.669-.122,2.488,2.488,0,0,1-1.1,1.4,2.359,2.359,0,0,1-2.373-4.077,2.262,2.262,0,0,1,1.4-.3,1.7,1.7,0,0,0-.487,1.217m-3.408-2.313a5.014,5.014,0,0,0-1.217,2.313c0,.183-.061.3-.061.487a5.224,5.224,0,0,0,1.582,4.382,5.039,5.039,0,0,0,6.816-7.424A4.962,4.962,0,0,0,163.756,36.351Z" transform="translate(-134.484 -24.691)" fill="#0092a0" fill-rule="evenodd"/>
        <path id="Path_612" data-name="Path 612" d="M141.791,43.507a7.912,7.912,0,0,1-10.772-2.86,7.42,7.42,0,0,1-1.035-3.347,7.932,7.932,0,0,0,1.035,4.5,7.756,7.756,0,0,0,4.808,3.651,7.863,7.863,0,0,0,9.615-5.538h0a7.655,7.655,0,0,0,.243-2.617,12.187,12.187,0,0,1-.243,1.461h0a7.486,7.486,0,0,1-3.651,4.747" transform="translate(-121.77 -25.701)" fill="#e6e6e6" fill-rule="evenodd"/>
        <path id="Path_613" data-name="Path 613" d="M164.06,46.46a5.018,5.018,0,0,0,7.12-.3,4.835,4.835,0,0,0,1.278-3.956,5.308,5.308,0,0,1-1.278,2.86,5.018,5.018,0,0,1-7.12.3,5.1,5.1,0,0,1-1.582-3.165,5.115,5.115,0,0,0,1.582,4.26" transform="translate(-134.484 -27.619)" fill="#e6e6e6" fill-rule="evenodd"/>
        <path id="Path_614" data-name="Path 614" d="M145.844,47.389a9.137,9.137,0,0,0,6.633,2.373h0a9.156,9.156,0,0,0,6.39-2.982,11.2,11.2,0,0,0,1.035-1.339,9.609,9.609,0,0,0,1.4-5.294s-.122-1.217-.183-1.339a9.613,9.613,0,0,1-16.188,7.546h0a6.957,6.957,0,0,0,.913,1.035m-3.773.061a12.616,12.616,0,0,1-17.283-4.625,9.9,9.9,0,0,1-.669-1.4,12.713,12.713,0,0,1-1.035-4.625,12.043,12.043,0,0,0,1.035,5.781,10.579,10.579,0,0,0,.609,1.156,12.162,12.162,0,0,0,7.364,5.66,12.071,12.071,0,0,0,11.2-2.678C142.862,46.963,142.5,47.206,142.071,47.45Z" transform="translate(-119.067 -25.505)" fill="#0092a0" fill-rule="evenodd"/>
      </g>
      <g id="Group_810" data-name="Group 810" transform="translate(0 1.206)">
        <g id="Group_806" data-name="Group 806" transform="translate(0.002 14.971)">
          <path id="Path_615" data-name="Path 615" d="M12.5,45.117a.839.839,0,0,1-1.339-.669V41.1H6.717A1.221,1.221,0,0,0,5.5,42.317v4.321a1.883,1.883,0,0,0,2.982,1.521Z" transform="translate(-5.5 -41.1)" fill="url(#linear-gradient)"/>
          <path id="Path_616" data-name="Path 616" d="M6.63,41.343h4.443v3.347a.91.91,0,0,0,1.582.426.839.839,0,0,1-1.339-.669V41.1H6.874a1.105,1.105,0,0,0-.974.487A.97.97,0,0,1,6.63,41.343Z" transform="translate(-5.657 -41.1)" fill="url(#linear-gradient-2)"/>
        </g>
        <g id="Group_807" data-name="Group 807" transform="translate(0 11.441)">
          <path id="Path_617" data-name="Path 617" d="M24.426,37.978,20.836,35.3a.861.861,0,0,1,0,1.339L8.482,45.828A1.866,1.866,0,0,1,5.5,44.307v2.5a1.221,1.221,0,0,0,1.217,1.217h8.155a14.214,14.214,0,0,0,5.173-.913A11.668,11.668,0,0,0,24,44.55a7.706,7.706,0,0,0,1.278-1.521A3.637,3.637,0,0,0,24.426,37.978Z" transform="translate(-5.498 -35.3)" fill="url(#linear-gradient-3)"/>
          <path id="Path_618" data-name="Path 618" d="M7.324,46.5A2.021,2.021,0,0,0,8.6,46.072l12.415-9.25A.91.91,0,0,0,20.9,35.3a.861.861,0,0,1,0,1.339L8.481,45.828A1.866,1.866,0,0,1,5.5,44.307,1.857,1.857,0,0,0,7.324,46.5Z" transform="translate(-5.497 -35.3)" fill="url(#linear-gradient-4)"/>
        </g>
        <g id="Group_808" data-name="Group 808" transform="translate(5.662)">
          <path id="Path_619" data-name="Path 619" d="M30.562,24.776a11.162,11.162,0,0,0-2.921-4.808,11.668,11.668,0,0,0-3.956-2.556,13.983,13.983,0,0,0-5.173-.913H17.3A2.468,2.468,0,0,0,14.8,19V22.4a.839.839,0,0,1,1.339-.669l8.337,6.207,3.591,2.678a3.757,3.757,0,0,1,.852,5.173,10.733,10.733,0,0,0,1.643-3.347h0A13.693,13.693,0,0,0,30.562,24.776Z" transform="translate(-14.8 -16.5)" fill="url(#linear-gradient-5)"/>
          <path id="Path_620" data-name="Path 620" d="M28.288,33.584,16.361,24.7a.948.948,0,0,0-1.461.609v.122a.845.845,0,0,1,1.339-.548l8.337,6.207,3.591,2.678a3.727,3.727,0,0,1,1.217,4.443A3.546,3.546,0,0,0,28.288,33.584Z" transform="translate(-14.839 -19.648)" fill="url(#linear-gradient-6)"/>
        </g>
        <g id="Group_809" data-name="Group 809" transform="translate(0.002)">
          <path id="Path_621" data-name="Path 621" d="M6.717,16.5A1.221,1.221,0,0,0,5.5,17.717v6.755a1.221,1.221,0,0,0,1.217,1.217H11.16V19a2.468,2.468,0,0,1,2.5-2.5Z" transform="translate(-5.5 -16.5)" fill="url(#linear-gradient-7)"/>
          <path id="Path_622" data-name="Path 622" d="M13.411,16.5a2.468,2.468,0,0,0-2.5,2.5v6.512h-4.2A1.221,1.221,0,0,1,5.5,24.29v.243A1.221,1.221,0,0,0,6.717,25.75H11.16V19a2.468,2.468,0,0,1,2.5-2.5Z" transform="translate(-5.5 -16.5)" fill="url(#linear-gradient-8)"/>
        </g>
      </g>
    </g>
  </g>
</svg>
