<svg xmlns="http://www.w3.org/2000/svg" xmlns:xlink="http://www.w3.org/1999/xlink" width="296.003" height="59.434" viewBox="0 0 296.003 59.434">
  <defs>
    <linearGradient id="linear-gradient" x1="-0.002" y1="0.5" x2="1" y2="0.5" gradientUnits="objectBoundingBox">
      <stop offset="0" stop-color="#00a4b4"/>
      <stop offset="0.653" stop-color="#2eedff"/>
      <stop offset="1" stop-color="#3aeeff"/>
    </linearGradient>
    <linearGradient id="linear-gradient-3" x1="0.715" y1="0.767" x2="0.064" y2="0.035" gradientUnits="objectBoundingBox">
      <stop offset="0" stop-color="#7f00bf"/>
      <stop offset="0.003" stop-color="#41a0aa"/>
      <stop offset="0.339" stop-color="#4cc9d5"/>
      <stop offset="0.629" stop-color="#58deeb"/>
      <stop offset="0.859" stop-color="#61e7f3"/>
      <stop offset="1" stop-color="#5ef1ff"/>
    </linearGradient>
    <linearGradient id="linear-gradient-4" x1="1.067" y1="0.785" x2="0.147" y2="-0.223" gradientUnits="objectBoundingBox">
      <stop offset="0" stop-color="#4eb7c1"/>
      <stop offset="0.045" stop-color="#50b7c1"/>
      <stop offset="0.169" stop-color="#4fc8d4"/>
      <stop offset="0.282" stop-color="#5fdce8"/>
      <stop offset="0.377" stop-color="#6be9f5"/>
      <stop offset="0.454" stop-color="#66f0fe"/>
      <stop offset="0.5" stop-color="#65f2ff"/>
      <stop offset="0.559" stop-color="#75f3ff"/>
      <stop offset="0.657" stop-color="#5bf1ff"/>
      <stop offset="0.779" stop-color="#68f2ff"/>
      <stop offset="0.921" stop-color="#63f1ff"/>
      <stop offset="1" stop-color="#60f1ff"/>
    </linearGradient>
    <linearGradient id="linear-gradient-5" x1="0.891" y1="0.131" x2="0.119" y2="1.173" gradientUnits="objectBoundingBox">
      <stop offset="0" stop-color="#47b5bf"/>
      <stop offset="0.104" stop-color="#54c7d2"/>
      <stop offset="0.287" stop-color="#55d3df"/>
      <stop offset="0.47" stop-color="#3dadb8"/>
      <stop offset="0.65" stop-color="#53d6e2"/>
      <stop offset="0.828" stop-color="#5beaf8"/>
      <stop offset="1" stop-color="#6af2ff"/>
    </linearGradient>
    <linearGradient id="linear-gradient-6" x1="0.978" y1="0.011" x2="0.03" y2="0.951" gradientUnits="objectBoundingBox">
      <stop offset="0" stop-color="#48aeb8"/>
      <stop offset="0.045" stop-color="#49bfcb"/>
      <stop offset="0.169" stop-color="#51d0dc"/>
      <stop offset="0.282" stop-color="#59d7e3"/>
      <stop offset="0.377" stop-color="#5fe2ef"/>
      <stop offset="0.454" stop-color="#62e9f6"/>
      <stop offset="0.5" stop-color="#64effc"/>
      <stop offset="0.559" stop-color="#54f0ff"/>
      <stop offset="0.657" stop-color="#64f1ff"/>
      <stop offset="0.779" stop-color="#68f2ff"/>
      <stop offset="0.921" stop-color="#58f0ff"/>
      <stop offset="1" stop-color="#60f1ff"/>
    </linearGradient>
    <linearGradient id="linear-gradient-7" x1="0.001" y1="0.5" x2="0.999" y2="0.5" gradientUnits="objectBoundingBox">
      <stop offset="0" stop-color="#397f98"/>
      <stop offset="0.104" stop-color="#2a7792"/>
      <stop offset="0.287" stop-color="#51c8d4"/>
      <stop offset="0.47" stop-color="#51ccd8"/>
      <stop offset="0.65" stop-color="#5ee6f3"/>
      <stop offset="0.828" stop-color="#5ceefc"/>
      <stop offset="1" stop-color="#5ef1ff"/>
    </linearGradient>
    <linearGradient id="linear-gradient-8" x1="-0.023" y1="0.081" x2="1.038" y2="0.893" gradientUnits="objectBoundingBox">
      <stop offset="0" stop-color="#47b2bc"/>
      <stop offset="0.045" stop-color="#4fbfc9"/>
      <stop offset="0.169" stop-color="#4bc4cf"/>
      <stop offset="0.282" stop-color="#58d1dc"/>
      <stop offset="0.377" stop-color="#63e9f6"/>
      <stop offset="0.454" stop-color="#5bf1ff"/>
      <stop offset="0.5" stop-color="#58f0ff"/>
      <stop offset="0.559" stop-color="#4befff"/>
      <stop offset="0.657" stop-color="#60f1ff"/>
      <stop offset="0.779" stop-color="#5ef1ff"/>
      <stop offset="0.921" stop-color="#6bf2ff"/>
      <stop offset="1" stop-color="#67f2ff"/>
    </linearGradient>
    <linearGradient id="linear-gradient-9" x1="0.5" y1="1.009" x2="0.5" y2="0.002" gradientUnits="objectBoundingBox">
      <stop offset="0" stop-color="#2f84a2"/>
      <stop offset="0.104" stop-color="#2a7792"/>
      <stop offset="0.287" stop-color="#50cbd6"/>
      <stop offset="0.47" stop-color="#5bd9e5"/>
      <stop offset="0.65" stop-color="#5de8f5"/>
      <stop offset="0.828" stop-color="#64f1ff"/>
      <stop offset="1" stop-color="#54f0ff"/>
    </linearGradient>
    <linearGradient id="linear-gradient-10" x1="0.039" y1="0.963" x2="1.198" y2="0.248" gradientUnits="objectBoundingBox">
      <stop offset="0" stop-color="#49b9c4"/>
      <stop offset="0.045" stop-color="#51c3ce"/>
      <stop offset="0.169" stop-color="#54d0dc"/>
      <stop offset="0.282" stop-color="#57d9e5"/>
      <stop offset="0.377" stop-color="#61e9f6"/>
      <stop offset="0.454" stop-color="#65f2ff"/>
      <stop offset="0.5" stop-color="#5ef1ff"/>
      <stop offset="0.559" stop-color="#55f0ff"/>
      <stop offset="0.657" stop-color="#55f0ff"/>
      <stop offset="0.779" stop-color="#0092a0"/>
      <stop offset="0.921" stop-color="#54f0ff"/>
      <stop offset="1" stop-color="#74f3ff"/>
    </linearGradient>
  </defs>
  <g id="Group_1913" data-name="Group 1913" transform="translate(-1274.997 -2898.721)">
    <g id="logo_1" data-name="logo 1" transform="translate(1269.533 2881.594)">
      <g id="Group_811" data-name="Group 811" transform="translate(5.497 16.5)">
        <path id="Path_604" data-name="Path 604" d="M70.312,45.674a26.867,26.867,0,0,0-.432-3.746c-.72-2.45-2.594-3.17-4.9-3.314a9.4,9.4,0,0,0-3.458.288,4.651,4.651,0,0,0-3.746,4.611H46.969c-1.3-4.179,1.153-10.086,5.187-12.68a17.868,17.868,0,0,1,8.934-2.594,29.325,29.325,0,0,1,11.239,1.009c5.62,1.729,8.79,5.764,9.8,11.527a36.907,36.907,0,0,1,.432,5.62V58.21c0,2.305.432,2.882,2.882,3.17.144,0,.144,0,.432.144v8.5c0,.144-.288.576-.576.576a22.486,22.486,0,0,1-9.8.144,5.661,5.661,0,0,1-4.179-3.458c-.288-.72-1.3-1.009-1.585-.288-1.3,2.305-3.458,3.17-5.908,3.746A27.582,27.582,0,0,1,52.445,70.6a11.525,11.525,0,0,1-8.79-10.086,15.3,15.3,0,0,1,.432-6.772,10.875,10.875,0,0,1,8.5-7.2,28.223,28.223,0,0,1,6.916-.72C63.107,45.674,66.566,45.674,70.312,45.674Zm-.288,9.51h-11.1c-.288,0-.576.144-.865.144A2.318,2.318,0,0,0,56.335,57.2a2.97,2.97,0,0,0,.865,2.882,5.84,5.84,0,0,0,1.3.72A13.218,13.218,0,0,0,67,60.66C69.592,59.507,70.6,58.066,70.024,55.184Z" transform="translate(11.249 -11.38)" fill="#fff"/>
        <path id="Path_605" data-name="Path 605" d="M98.359,54.286c.144,3.314,1.873,5.764,4.9,6.484a14.094,14.094,0,0,0,6.484.144,5.739,5.739,0,0,0,4.035-3.026c.144-.288.576-.72.865-.72h11.816a2.535,2.535,0,0,0-.144.865c-2.45,6.772-7.493,10.807-14.409,12.536a24.2,24.2,0,0,1-12.824-.432c-6.628-2.017-10.663-6.34-12.392-12.968a30.144,30.144,0,0,1,.288-15.994A17.246,17.246,0,0,1,99.8,28.781a25.956,25.956,0,0,1,13.689,0c7.493,2.017,11.96,6.916,13.256,14.265.576,3.314.432,6.772.72,10.231,0,.865-.432.865-1.009.865h-26.8A3.989,3.989,0,0,1,98.359,54.286Zm0-8.79h16.426c.288-2.305-1.441-5.043-4.035-6.052a11.919,11.919,0,0,0-8.357,0A6.514,6.514,0,0,0,98.359,45.5Z" transform="translate(29.888 -11.49)" fill="#fff"/>
        <path id="Path_606" data-name="Path 606" d="M87.392,18.444v56.2H75V19.6c0-1.009.288-1.3,1.3-1.3H86.383A2.136,2.136,0,0,0,87.392,18.444Z" transform="translate(25.149 -15.706)" fill="#fff"/>
        <g id="Group_805" data-name="Group 805" transform="translate(159.947 2.508)">
          <path id="Path_607" data-name="Path 607" d="M163.906,63.139A18.093,18.093,0,0,0,172.552,51.9h0a18.173,18.173,0,0,0-1.873-14.121A18.364,18.364,0,0,0,159.3,29.133a18.172,18.172,0,0,0-14.121,1.873,18.364,18.364,0,0,0-8.646,11.383A18.173,18.173,0,0,0,138.4,56.51a18.364,18.364,0,0,0,11.383,8.646,18.88,18.88,0,0,0,14.121-2.017m18.876-10.663c0-.432.144-.72.144-1.153a11.95,11.95,0,1,1,3.6,11.383A11.178,11.178,0,0,1,182.782,52.476Zm41.787-21.181h0V47.433l13.977-16.138h13.833L236.817,48.009l15.706,26.945H238.69l-8.069-14.841c-1.585-3.026-3.026-4.179-4.323-3.746-1.153.432-1.873,1.153-1.873,2.017V74.954H212.9v-9.51a16.979,16.979,0,0,1-2.45,3.17,21.68,21.68,0,0,1-15.13,7.061h0a21.634,21.634,0,0,1-15.706-5.62,20.525,20.525,0,0,1-3.6-4.323,27.521,27.521,0,0,1-7.349,6.052A29.073,29.073,0,0,1,146.9,74.666a28.67,28.67,0,0,1-17.435-13.4,16.43,16.43,0,0,1-1.441-2.738V74.81H116.5V18.47h5.908c1.585,0,3.89-.144,5.187-.144.576,0,.432,4.035.432,5.475V35.329a28.33,28.33,0,0,1,11.816-13.256A29.073,29.073,0,0,1,161.6,19.191a28.67,28.67,0,0,1,17.435,13.4,28.286,28.286,0,0,1,3.746,11.96,32.953,32.953,0,0,0,0-9.222,20.9,20.9,0,0,1,10.519-3.17,21.634,21.634,0,0,1,15.706,5.62,22.844,22.844,0,0,1,3.746,4.611V18.47h5.908c1.585,0,4.611-.144,5.043,0s.576,4.035.576,5.475v7.349Z" transform="translate(-116.5 -18.241)" fill="#fff"/>
          <path id="Path_608" data-name="Path 608" d="M150.651,49.287a8.806,8.806,0,0,0,4.323-5.62,8.39,8.39,0,0,1-2.738.432,7.452,7.452,0,0,1-5.62-12.392,9.353,9.353,0,0,0-5.475,1.3,9.429,9.429,0,1,0,9.51,16.282" transform="translate(-107.711 -12.315)" fill-rule="evenodd" fill="url(#linear-gradient)"/>
          <path id="Path_1343" data-name="Path 1343" d="M146.623,42.509a5.605,5.605,0,0,0,3.1-3.456,6.927,6.927,0,0,1-1.962.266c-2.995,0-5.37-2.038-5.37-4.608a4.2,4.2,0,0,1,1.343-3.013,7.607,7.607,0,0,0-3.924.8c-3.2,1.6-4.338,5.14-2.479,7.975,1.859,2.658,5.99,3.633,9.295,2.038" transform="translate(-66.29 5.827) rotate(-3)" fill-rule="evenodd" fill="url(#linear-gradient)"/>
          <path id="Path_610" data-name="Path 610" d="M132.577,53.238a18.364,18.364,0,0,0,11.383,8.646,18.618,18.618,0,0,0,22.766-13.112h0a18.173,18.173,0,0,0-1.873-14.121A18.364,18.364,0,0,0,153.471,26a18.172,18.172,0,0,0-14.121,1.873A18.364,18.364,0,0,0,130.7,39.261a17.9,17.9,0,0,0,1.873,13.977M147.563,39.4a7.442,7.442,0,0,0,7.493,7.493,8.39,8.39,0,0,0,2.738-.432,9.3,9.3,0,0,1-4.323,5.62,9.49,9.49,0,1,1-9.51-16.426,9.353,9.353,0,0,1,5.475-1.3A8.067,8.067,0,0,0,147.563,39.4Z" transform="translate(-110.531 -15.112)" fill="#4b4b4b" fill-rule="evenodd"/>
          <path id="Path_611" data-name="Path 611" d="M173.62,44.057a4.489,4.489,0,0,0,4.467,4.467,5.18,5.18,0,0,0,1.585-.288,5.891,5.891,0,0,1-2.594,3.314,5.585,5.585,0,0,1-5.62-9.654,5.357,5.357,0,0,1,3.314-.72,4.023,4.023,0,0,0-1.153,2.882m-8.069-5.475a11.871,11.871,0,0,0-2.882,5.475c0,.432-.144.72-.144,1.153a12.37,12.37,0,0,0,3.746,10.375A11.932,11.932,0,0,0,182.41,38.005,11.749,11.749,0,0,0,165.551,38.582Z" transform="translate(-96.243 -10.975)" fill="#4b4b4b" fill-rule="evenodd"/>
          <path id="Path_612" data-name="Path 612" d="M157.97,52a18.734,18.734,0,0,1-25.5-6.772,17.568,17.568,0,0,1-2.45-7.925,18.781,18.781,0,0,0,2.45,10.663,18.364,18.364,0,0,0,11.383,8.646A18.618,18.618,0,0,0,166.616,43.5h0a18.126,18.126,0,0,0,.576-6.2,28.866,28.866,0,0,1-.576,3.458h0A17.726,17.726,0,0,1,157.97,52" transform="translate(-110.564 -9.837)" fill="#e6e6e6" fill-rule="evenodd"/>
          <path id="Path_613" data-name="Path 613" d="M166.271,52.286a11.881,11.881,0,0,0,16.859-.72,11.449,11.449,0,0,0,3.026-9.366,12.568,12.568,0,0,1-3.026,6.772,11.881,11.881,0,0,1-16.859.72,12.081,12.081,0,0,1-3.746-7.493,12.112,12.112,0,0,0,3.746,10.086" transform="translate(-96.243 -7.677)" fill="#e6e6e6" fill-rule="evenodd"/>
          <path id="Path_614" data-name="Path 614" d="M177.009,61.872a21.635,21.635,0,0,0,15.706,5.62h0a21.68,21.68,0,0,0,15.13-7.06,26.505,26.505,0,0,0,2.45-3.17,22.752,22.752,0,0,0,3.314-12.536s-.288-2.882-.432-3.17c1.153,20.749-23.2,31.7-38.328,17.867h0a16.475,16.475,0,0,0,2.161,2.45m-8.934.144a29.87,29.87,0,0,1-40.922-10.951,23.438,23.438,0,0,1-1.585-3.314,30.1,30.1,0,0,1-2.45-10.951,28.514,28.514,0,0,0,2.45,13.689,25.043,25.043,0,0,0,1.441,2.738,28.8,28.8,0,0,0,17.435,13.4,28.582,28.582,0,0,0,26.513-6.34C169.948,60.863,169.084,61.44,168.075,62.016Z" transform="translate(-113.609 -10.058)" fill="#4b4b4b" fill-rule="evenodd"/>
        </g>
      </g>
    </g>
    <g id="logo_1-2" data-name="logo 1" transform="translate(1269.5 2880.814)">
      <g id="Group_811-2" data-name="Group 811" transform="translate(5.497 17.559)">
        <g id="Group_810" data-name="Group 810" transform="translate(0 0.347)">
          <g id="Group_806" data-name="Group 806" transform="translate(0.005 35.348)">
            <path id="Path_615" data-name="Path 615" d="M22.024,50.584A1.982,1.982,0,0,1,18.863,49V41.1H8.374A2.882,2.882,0,0,0,5.5,43.974v10.2a4.446,4.446,0,0,0,7.041,3.592Z" transform="translate(-5.5 -41.1)" fill="url(#linear-gradient-3)"/>
            <path id="Path_616" data-name="Path 616" d="M7.624,41.675H18.114v7.9c0,1.437,2.155,2.443,3.736,1.006A1.982,1.982,0,0,1,18.688,49V41.1H8.2a2.61,2.61,0,0,0-2.3,1.15A2.29,2.29,0,0,1,7.624,41.675Z" transform="translate(-5.325 -41.1)" fill="url(#linear-gradient-4)"/>
          </g>
          <g id="Group_807" data-name="Group 807" transform="translate(0 27.014)">
            <path id="Path_617" data-name="Path 617" d="M50.188,41.622,41.71,35.3a2.032,2.032,0,0,1,0,3.161l-29.169,21.7A4.406,4.406,0,0,1,5.5,56.566v5.891a2.882,2.882,0,0,0,2.874,2.874H27.628a33.561,33.561,0,0,0,12.214-2.155,27.55,27.55,0,0,0,9.34-6.035A18.2,18.2,0,0,0,52.2,53.549,8.588,8.588,0,0,0,50.188,41.622Z" transform="translate(-5.495 -35.3)" fill="url(#linear-gradient-5)"/>
            <path id="Path_618" data-name="Path 618" d="M9.812,61.739a4.773,4.773,0,0,0,3.018-1.006L42.143,38.892a2.148,2.148,0,0,0-.287-3.592,2.032,2.032,0,0,1,0,3.161l-29.313,21.7A4.406,4.406,0,0,1,5.5,56.566C5.358,60.877,8.375,61.739,9.812,61.739Z" transform="translate(-5.497 -35.3)" fill="url(#linear-gradient-6)"/>
          </g>
          <g id="Group_808" data-name="Group 808" transform="translate(13.368)">
            <path id="Path_619" data-name="Path 619" d="M52.016,36.042a26.355,26.355,0,0,0-6.9-11.352,27.55,27.55,0,0,0-9.34-6.035A33.017,33.017,0,0,0,23.565,16.5H20.691A5.827,5.827,0,0,0,14.8,22.391v8.047a1.982,1.982,0,0,1,3.161-1.581L37.647,43.514l8.478,6.322A8.871,8.871,0,0,1,48.136,62.05a25.341,25.341,0,0,0,3.88-7.9h0A32.33,32.33,0,0,0,52.016,36.042Z" transform="translate(-14.8 -16.5)" fill="url(#linear-gradient-7)"/>
            <path id="Path_620" data-name="Path 620" d="M46.512,45.892,18.349,24.913A2.239,2.239,0,0,0,14.9,26.35v.287a2,2,0,0,1,3.161-1.293L37.747,40l8.478,6.322A8.8,8.8,0,0,1,49.1,56.812,8.372,8.372,0,0,0,46.512,45.892Z" transform="translate(-14.756 -12.986)" fill="url(#linear-gradient-8)"/>
          </g>
          <g id="Group_809" data-name="Group 809" transform="translate(0.005)">
            <path id="Path_621" data-name="Path 621" d="M8.374,16.5A2.882,2.882,0,0,0,5.5,19.374v15.95A2.882,2.882,0,0,0,8.374,38.2H18.863V22.391A5.827,5.827,0,0,1,24.755,16.5Z" transform="translate(-5.5 -16.5)" fill="url(#linear-gradient-9)"/>
            <path id="Path_622" data-name="Path 622" d="M24.18,16.5a5.827,5.827,0,0,0-5.891,5.891V37.766H8.374A2.882,2.882,0,0,1,5.5,34.892v.575a2.882,2.882,0,0,0,2.874,2.874H18.863V22.391A5.827,5.827,0,0,1,24.755,16.5Z" transform="translate(-5.5 -16.5)" fill="url(#linear-gradient-10)"/>
          </g>
        </g>
      </g>
    </g>
  </g>
</svg>
