<svg id="msgw" xmlns="http://www.w3.org/2000/svg" width="20.261" height="20.634" viewBox="0 0 20.261 20.634">
  <g id="chat">
    <g id="Group_84" data-name="Group 84" transform="translate(0)">
      <path id="Path_148" data-name="Path 148" d="M13.544,0h-.033A10.122,10.122,0,0,0,5.572,16.43L4.1,19.863a.55.55,0,0,0,.287.724.562.562,0,0,0,.315.039l5.412-.951a9.754,9.754,0,0,0,3.372.586A10.131,10.131,0,0,0,13.544,0ZM10.072,8.1h2.985a.553.553,0,0,1,0,1.106H10.072a.553.553,0,0,1,0-1.106Zm6.855,3.87H10.072a.553.553,0,0,1,0-1.106h6.855a.553.553,0,1,1,0,1.106Z" transform="translate(-3.366)" fill="#fdfdff"/>
    </g>
  </g>
</svg>
