<svg id="paypal" xmlns="http://www.w3.org/2000/svg" width="26.33" height="30.656" viewBox="0 0 26.33 30.656">
  <path id="Path_980" data-name="Path 980" d="M-174.961-217.6a5.154,5.154,0,0,0-1.884-.418l-9.912-.279a1.383,1.383,0,0,0-1.4,1.162l-2.266,14.022-.005.036c-.263,1.606-.511,3.092-.656,3.986a1.031,1.031,0,0,1-1.017.862h-5.111a1.031,1.031,0,0,1-1.017-1.193l3.96-25.106a1.036,1.036,0,0,1,1.043-.872l12.292.284A6.264,6.264,0,0,1-174.961-217.6Z" transform="translate(198.247 225.404)" fill="#fff"/>
  <path id="Path_981" data-name="Path 981" d="M-31.333-87.02c-.021.088-.041.181-.062.268l-.511,2.019a9.083,9.083,0,0,1-8.9,6.866c-1.461-.015-2.927-.031-4.388-.041a.84.84,0,0,0-.842.707c-.227,1.363-.506,3.077-.769,4.672l2.266-14.022a1.384,1.384,0,0,1,1.4-1.162l9.912.279A5.071,5.071,0,0,1-31.333-87.02Z" transform="translate(54.619 94.82)" fill="#e3f1fc"/>
  <path id="Path_982" data-name="Path 982" d="M-48.875-68.325l-.49,1.967a8.642,8.642,0,0,1-8.513,6.551c-.465-.005-.945-.015-1.446-.021a1.318,1.318,0,0,0-1.322,1.094c-.356,2.081-.836,4.755-1.1,6.247a1.375,1.375,0,0,1-1.363,1.136l-3.856-.015a1.38,1.38,0,0,1-1.358-1.6l1.084-6.706.005-.036c.263-1.6.547-3.309.769-4.672a.844.844,0,0,1,.841-.707c1.461.015,2.927.031,4.388.041a9.079,9.079,0,0,0,8.9-6.866l.511-2.019c.021-.088.041-.181.062-.268A5.069,5.069,0,0,1-48.875-68.325Z" transform="translate(75.052 82.006)" fill="#59b1dc"/>
</svg>
