<svg xmlns="http://www.w3.org/2000/svg" width="10.746" height="12.512" viewBox="0 0 10.746 12.512">
  <g id="paypalw" transform="translate(198.247 225.404)">
    <path id="Path_980" data-name="Path 980" d="M-188.743-222.22a2.1,2.1,0,0,0-.769-.171l-4.046-.114a.564.564,0,0,0-.573.474l-.925,5.723,0,.015c-.107.655-.209,1.262-.268,1.627a.421.421,0,0,1-.415.352h-2.086a.421.421,0,0,1-.415-.487l1.616-10.247a.423.423,0,0,1,.426-.356l5.017.116A2.557,2.557,0,0,1-188.743-222.22Z" fill="#fff"/>
    <path id="Path_981" data-name="Path 981" d="M-40.487-87.429l-.025.11-.209.824a3.707,3.707,0,0,1-3.63,2.8c-.6-.006-1.195-.013-1.791-.017a.343.343,0,0,0-.343.289c-.093.556-.206,1.256-.314,1.907l.925-5.723a.565.565,0,0,1,.573-.474l4.046.114A2.069,2.069,0,0,1-40.487-87.429Z" transform="translate(-148.256 -134.791)" fill="#e3f1fc"/>
    <path id="Path_982" data-name="Path 982" d="M-60.4-71.8l-.2.8a3.527,3.527,0,0,1-3.475,2.674l-.59-.008a.538.538,0,0,0-.539.447c-.145.849-.341,1.941-.451,2.55a.561.561,0,0,1-.556.464l-1.574-.006a.563.563,0,0,1-.554-.653l.442-2.737,0-.015c.107-.651.223-1.351.314-1.907a.344.344,0,0,1,.343-.289c.6.006,1.195.013,1.791.017a3.705,3.705,0,0,0,3.63-2.8l.209-.824.025-.11A2.069,2.069,0,0,1-60.4-71.8Z" transform="translate(-127.164 -148.018)" fill="#bbe3f7"/>
  </g>
</svg>
