<svg id="phoneconvo" xmlns="http://www.w3.org/2000/svg" width="15" height="15" viewBox="0 0 15 15">
  <rect id="Rectangle_320" data-name="Rectangle 320" width="14.659" height="14.659" transform="translate(0.341)" fill="none"/>
  <path id="Path_110" data-name="Path 110" d="M8.706,10.715l1.607-1.473a.492.492,0,0,1,.4-.134l.268.134,3.75,1.741c.268.134.268.268.268.536a3.4,3.4,0,0,1-1.071,2.411A3.837,3.837,0,0,1,11.116,15a8.161,8.161,0,0,1-3.75-.938,17.557,17.557,0,0,1-3.75-2.679A22.813,22.813,0,0,1,1.607,8.438,18.513,18.513,0,0,1,.268,5.491,8.242,8.242,0,0,1,0,2.947,3.519,3.519,0,0,1,.938.938,4.073,4.073,0,0,1,3.482,0a.7.7,0,0,1,.536.268l2.009,3.75a.468.468,0,0,0,.134.268.492.492,0,0,1-.134.4L4.286,6.295a.6.6,0,0,0,0,.67A12.79,12.79,0,0,0,5.893,9.107a13.523,13.523,0,0,0,2.143,1.741C8.3,10.983,8.572,10.983,8.706,10.715Z" transform="translate(0 0)" fill="#fff"/>
</svg>
