<svg id="sortm" xmlns="http://www.w3.org/2000/svg" width="17.432" height="17" viewBox="0 0 17.432 17">
  <path id="Path_381" data-name="Path 381" d="M9.223,4.893V4.315a.579.579,0,0,0-.579-.579H.579A.579.579,0,0,0,0,4.315v.579a.579.579,0,0,0,.579.579H8.644A.579.579,0,0,0,9.223,4.893Z" transform="translate(0 -3.736)" fill="#fff"/>
  <path id="Path_382" data-name="Path 382" d="M7.557,66.736H.579A.579.579,0,0,0,0,67.315v.579a.579.579,0,0,0,.579.579H7.557a.579.579,0,0,0,.579-.579v-.579A.579.579,0,0,0,7.557,66.736Z" transform="translate(0 -63.09)" fill="#fff"/>
  <path id="Path_383" data-name="Path 383" d="M6.47,129.736H.579a.579.579,0,0,0-.579.579v.579a.579.579,0,0,0,.579.579H6.47a.579.579,0,0,0,.579-.579v-.579A.579.579,0,0,0,6.47,129.736Z" transform="translate(0 -122.444)" fill="#fff"/>
  <path id="Path_384" data-name="Path 384" d="M5.384,199.736H.579a.579.579,0,0,0-.579.579v.579a.579.579,0,0,0,.579.579h4.8a.579.579,0,0,0,.579-.579v-.579A.579.579,0,0,0,5.384,199.736Z" transform="translate(0 -188.393)" fill="#fff"/>
  <path id="Path_385" data-name="Path 385" d="M4.3,262.736H.579a.579.579,0,0,0-.579.579v.579a.579.579,0,0,0,.579.579H4.3a.579.579,0,0,0,.579-.579v-.579A.579.579,0,0,0,4.3,262.736Z" transform="translate(0 -247.747)" fill="#fff"/>
  <path id="Path_386" data-name="Path 386" d="M162.49,20.782l-.409-.409a.579.579,0,0,0-.818,0l-1.99,1.99V9.315a.579.579,0,0,0-.579-.579h-.579a.579.579,0,0,0-.579.579V22.363l-1.99-1.99a.579.579,0,0,0-.818,0l-.409.409a.579.579,0,0,0,0,.818l3.677,3.677a.579.579,0,0,0,.818,0L162.49,21.6A.579.579,0,0,0,162.49,20.782Z" transform="translate(-145.227 -8.447)" fill="#fff"/>
</svg>
