<svg xmlns="http://www.w3.org/2000/svg" width="56" height="48" viewBox="0 0 56 48">
  <g id="theuser" transform="translate(-947.25 -674.837)">
    <g id="Rectangle_2524" data-name="Rectangle 2524" transform="translate(947.25 674.837)" fill="#f3f3f3" stroke="#707070" stroke-width="0.7">
      <path d="M0,0H51a5,5,0,0,1,5,5V43a5,5,0,0,1-5,5H0a0,0,0,0,1,0,0V0A0,0,0,0,1,0,0Z" stroke="none"/>
      <path d="M.35.35H51A4.65,4.65,0,0,1,55.65,5V43A4.65,4.65,0,0,1,51,47.65H.35a0,0,0,0,1,0,0V.35A0,0,0,0,1,.35.35Z" fill="none"/>
    </g>
    <g id="Group_1408" data-name="Group 1408" transform="translate(968.036 691.163)">
      <g id="Group_1374" data-name="Group 1374" transform="translate(0)">
        <g id="Group_1373" data-name="Group 1373">
          <path id="Path_1211" data-name="Path 1211" d="M260.359-412.581a.209.209,0,0,0-.2-.145h-1.016a3.248,3.248,0,0,0-3.248,3.248v1.441a.486.486,0,0,0,.485.485h5.33a.2.2,0,0,0,.2-.27Zm6.721-.145H266.07a.2.2,0,0,0-.2.145l-1.551,4.755a.2.2,0,0,0,.2.27h5.325a.486.486,0,0,0,.485-.485v-1.441A3.247,3.247,0,0,0,267.081-412.726Zm.015-5.19a3.985,3.985,0,0,0-3.984-3.984,3.985,3.985,0,0,0-3.984,3.984,3.985,3.985,0,0,0,3.984,3.984A3.981,3.981,0,0,0,267.1-417.916Z" transform="translate(-255.9 421.9)" fill="#0092a0"/>
          <path id="Path_1212" data-name="Path 1212" d="M388.321-236.3a.62.62,0,0,0-.621.621v3.318a.62.62,0,0,0,.621.621.62.62,0,0,0,.621-.621v-3.318A.62.62,0,0,0,388.321-236.3Z" transform="translate(-381.104 245.589)" fill="#0092a0"/>
        </g>
      </g>
    </g>
  </g>
</svg>
