<svg xmlns="http://www.w3.org/2000/svg" width="9.834" height="9.834" viewBox="0 0 9.834 9.834">
  <g id="time" transform="translate(-280.826 -288.134)">
    <g id="time-2" data-name="time" transform="translate(280.826 288.134)">
      <g id="Group_97" data-name="Group 97">
        <g id="Group_96" data-name="Group 96">
          <path id="Path_159" data-name="Path 159" d="M4.917,0A4.917,4.917,0,1,0,9.834,4.917,4.917,4.917,0,0,0,4.917,0Zm0,9.132A4.215,4.215,0,1,1,9.132,4.917,4.215,4.215,0,0,1,4.917,9.132Z" fill="#5e5d5d"/>
        </g>
      </g>
      <g id="Clock" transform="translate(1.756 1.756)">
        <g id="Group_98" data-name="Group 98">
          <path id="Path_160" data-name="Path 160" d="M88.494,85.333a.351.351,0,0,0-.351.351v2.459H85.684a.351.351,0,1,0,0,.7h2.81a.351.351,0,0,0,.351-.351v-2.81A.351.351,0,0,0,88.494,85.333Z" transform="translate(-85.333 -85.333)" fill="#5e5d5d"/>
        </g>
      </g>
    </g>
  </g>
</svg>
