<svg xmlns="http://www.w3.org/2000/svg" width="42" height="42" viewBox="0 0 42 42">
  <g id="twitter" transform="translate(-556 -1907)">
    <circle id="Ellipse_93" data-name="Ellipse 93" cx="21" cy="21" r="21" transform="translate(556 1907)" fill="#fff"/>
    <path id="twicon" d="M118.633,20.991a3.971,3.971,0,0,1-2.791.6,4.71,4.71,0,0,0,2.188-3.395c-.754,2.188-3.47,1.961-3.47,1.961h0a5.61,5.61,0,0,0-4.526-1.81c-1.132,0-5.582.528-5.13,7.317,0,0-8.072-.151-12.07-6.412a7.363,7.363,0,0,0,1.961,7.393,3.344,3.344,0,0,1-2.791-.6,7.032,7.032,0,0,0,4.979,5.582,4.63,4.63,0,0,1-3.319.226C95.1,35.475,99.623,35.7,99.623,35.7c-2.565,3.093-8.223,3.093-8.223,3.093,4.9,2.867,24.441,3.847,24.441-13.654,0-.528-.075-1.056-.075-1.509v.075A4.178,4.178,0,0,0,118.633,20.991Z" transform="translate(471.6 1898.8)" fill="#1da0f1"/>
  </g>
</svg>
