<svg id="Group_1458" data-name="Group 1458" xmlns="http://www.w3.org/2000/svg" width="22.673" height="22.548" viewBox="0 0 22.673 22.548">
  <g id="Group_1374" data-name="Group 1374" transform="translate(0)">
    <g id="Group_1373" data-name="Group 1373">
      <path id="Path_1211" data-name="Path 1211" d="M262.907-407.256a.328.328,0,0,0-.307-.228H261a5.1,5.1,0,0,0-5.1,5.1v2.265a.764.764,0,0,0,.763.763h8.376a.321.321,0,0,0,.307-.425Zm10.562-.228h-1.589a.321.321,0,0,0-.307.228l-2.438,7.471a.321.321,0,0,0,.307.425h8.368a.764.764,0,0,0,.763-.763v-2.265A5.1,5.1,0,0,0,273.469-407.484Zm.024-8.155a6.261,6.261,0,0,0-6.26-6.26,6.261,6.261,0,0,0-6.26,6.26,6.261,6.261,0,0,0,6.26,6.26A6.256,6.256,0,0,0,273.493-415.64Z" transform="translate(-255.9 421.9)" fill="#0092a0"/>
      <path id="Path_1212" data-name="Path 1212" d="M388.675-236.3a.975.975,0,0,0-.975.975v5.214a.975.975,0,0,0,.975.975.975.975,0,0,0,.975-.975v-5.214A.975.975,0,0,0,388.675-236.3Z" transform="translate(-377.335 250.897)" fill="#0092a0"/>
    </g>
  </g>
</svg>
