<svg id="usermail" xmlns="http://www.w3.org/2000/svg" width="15.606" height="10.365" viewBox="0 0 15.606 10.365">
  <path id="Path_1126" data-name="Path 1126" d="M123.519,32.1l6.791-4.051L123.4,24v7.863C123.4,31.982,123.4,32.1,123.519,32.1Z" transform="translate(-123.4 -22.69)" fill="#56575c"/>
  <path id="Path_1127" data-name="Path 1127" d="M130.529,27.6,123.5,31.77a1.061,1.061,0,0,0,.953.6h13.462a.943.943,0,0,0,.953-.6l-6.91-4.051-.715.357Z" transform="translate(-123.381 -22.001)" fill="#56575c"/>
  <path id="Path_1128" data-name="Path 1128" d="M137.571,31.844V24.1L130.9,28.031l6.671,3.931Z" transform="translate(-121.965 -22.67)" fill="#56575c"/>
  <path id="Path_1129" data-name="Path 1129" d="M124.472,22.9a1.068,1.068,0,0,0-1.072,1.072h0l7.863,4.646,7.744-4.527v-.119a1.068,1.068,0,0,0-1.072-1.072Z" transform="translate(-123.4 -22.9)" fill="#56575c"/>
</svg>
