<svg xmlns="http://www.w3.org/2000/svg" width="23.373" height="23.243" viewBox="0 0 23.373 23.243">
  <g id="userfoot" opacity="0.7">
    <g id="userfoot-2" data-name="userfoot" transform="translate(0)">
      <g id="Group_1373" data-name="Group 1373">
        <path id="Path_1211" data-name="Path 1211" d="M263.123-406.8a.338.338,0,0,0-.316-.235h-1.646a5.261,5.261,0,0,0-5.262,5.262v2.335a.787.787,0,0,0,.786.786h8.634a.331.331,0,0,0,.316-.438Zm10.888-.235h-1.638a.331.331,0,0,0-.316.235l-2.513,7.7a.331.331,0,0,0,.316.438h8.626a.787.787,0,0,0,.786-.786v-2.335A5.259,5.259,0,0,0,274.011-407.04Zm.024-8.407a6.455,6.455,0,0,0-6.453-6.453,6.455,6.455,0,0,0-6.453,6.453,6.454,6.454,0,0,0,6.453,6.453A6.449,6.449,0,0,0,274.036-415.447Z" transform="translate(-255.9 421.9)" fill="#484848"/>
        <path id="Path_1212" data-name="Path 1212" d="M388.705-236.3a1,1,0,0,0-1.005,1.005v5.375a1,1,0,0,0,1.005,1.005,1,1,0,0,0,1.005-1.005v-5.375A1,1,0,0,0,388.705-236.3Z" transform="translate(-377.015 251.347)" fill="#484848"/>
      </g>
    </g>
  </g>
</svg>
