<svg xmlns="http://www.w3.org/2000/svg" width="18.075" height="18.075" viewBox="0 0 18.075 18.075">
  <g id="whatsappm" transform="translate(21.6 -14.6)">
    <g id="OBJECTS" transform="translate(-21.6 14.6)">
      <g id="Group_783" data-name="Group 783">
        <g id="Group_782" data-name="Group 782">
          <path id="Path_558" data-name="Path 558" d="M213.475,159.406a8.89,8.89,0,0,1-13.159,7.714l-4.916,1.556,1.606-4.717a8.676,8.676,0,0,1-1.275-4.552,8.872,8.872,0,0,1,17.744,0Zm-8.872-7.4a7.453,7.453,0,0,0-7.465,7.4,7.317,7.317,0,0,0,1.424,4.337l-.927,2.748,2.864-.91a7.417,7.417,0,1,0,4.105-13.573Zm4.486,9.418a1.049,1.049,0,0,0-.414-.248c-.215-.116-1.291-.629-1.49-.7s-.348-.116-.5.116c-.149.215-.563.7-.7.844s-.248.166-.463.05a5.957,5.957,0,0,1-1.755-1.076,6.881,6.881,0,0,1-1.208-1.49c-.132-.215-.017-.331.1-.447.1-.1.215-.248.331-.381a1.175,1.175,0,0,0,.215-.364.434.434,0,0,0-.017-.381c-.05-.116-.5-1.175-.679-1.606s-.364-.414-.5-.414a3.449,3.449,0,0,0-.364.033,1.2,1.2,0,0,0-.629.265,2.431,2.431,0,0,0-.761,1.8,4.156,4.156,0,0,0,.894,2.235,8.91,8.91,0,0,0,3.708,3.261c2.218.861,2.218.579,2.615.546a2.227,2.227,0,0,0,1.473-1.026,1.846,1.846,0,0,0,.132-1.026Zm0,0" transform="translate(-195.4 -150.6)" fill="#fff" fill-rule="evenodd"/>
        </g>
      </g>
    </g>
  </g>
</svg>
